<?xml version="1.0" encoding="utf-8" ?>
<svg xmlns="http://www.w3.org/2000/svg" xmlns:xlink="http://www.w3.org/1999/xlink" width="1100" height="420">
	<defs>
		<clipPath id="clip_0">
			<rect x="-170" y="-267" width="1440" height="1742" clip-rule="evenodd"/>
		</clipPath>
	</defs>
	<g clip-path="url(#clip_0)">
		<path fill="rgb(242,242,242)" stroke="none" d="M6 0L1094 0Q1094.15 0 1094.31 0.0069945Q1094.46 0.013989 1094.61 0.0279637Q1094.76 0.0419385 1094.91 0.0628649Q1095.06 0.0837914 1095.21 0.111627Q1095.36 0.139462 1095.5 0.17415Q1095.65 0.208838 1095.79 0.250307Q1095.93 0.291776 1096.07 0.339942Q1096.21 0.388108 1096.35 0.442873Q1096.49 0.497638 1096.62 0.558889Q1096.75 0.620141 1096.88 0.687755Q1097.01 0.755368 1097.14 0.829206Q1097.27 0.903043 1097.39 0.982954Q1097.51 1.06287 1097.63 1.14869Q1097.74 1.23451 1097.86 1.32606Q1097.97 1.41762 1098.08 1.51473Q1098.18 1.61183 1098.29 1.71429Q1098.39 1.81674 1098.49 1.92434Q1098.58 2.03193 1098.67 2.14445Q1098.77 2.25697 1098.85 2.37418Q1098.94 2.49139 1099.02 2.61306Q1099.1 2.73472 1099.17 2.86059Q1099.24 2.98646 1099.31 3.11628Q1099.38 3.2461 1099.44 3.3796Q1099.5 3.5131 1099.56 3.65001Q1099.61 3.78692 1099.66 3.92696Q1099.71 4.06701 1099.75 4.2099Q1099.79 4.35279 1099.83 4.49823Q1099.86 4.64367 1099.89 4.79138Q1099.92 4.93908 1099.94 5.08874Q1099.96 5.23839 1099.97 5.3897Q1099.99 5.54101 1099.99 5.69367Q1100 5.84632 1100 6L1100 414Q1100 414.154 1099.99 414.306Q1099.99 414.459 1099.97 414.61Q1099.96 414.762 1099.94 414.911Q1099.92 415.061 1099.89 415.209Q1099.86 415.356 1099.83 415.502Q1099.79 415.647 1099.75 415.79Q1099.71 415.933 1099.66 416.073Q1099.61 416.213 1099.56 416.35Q1099.5 416.487 1099.44 416.62Q1099.38 416.754 1099.31 416.884Q1099.24 417.014 1099.17 417.139Q1099.1 417.265 1099.02 417.387Q1098.94 417.509 1098.85 417.626Q1098.77 417.743 1098.67 417.856Q1098.58 417.968 1098.49 418.076Q1098.39 418.183 1098.29 418.286Q1098.18 418.388 1098.08 418.485Q1097.97 418.582 1097.86 418.674Q1097.74 418.766 1097.63 418.851Q1097.51 418.937 1097.39 419.017Q1097.27 419.097 1097.14 419.171Q1097.01 419.245 1096.88 419.312Q1096.75 419.38 1096.62 419.441Q1096.49 419.502 1096.35 419.557Q1096.21 419.612 1096.07 419.66Q1095.93 419.708 1095.79 419.75Q1095.65 419.791 1095.5 419.826Q1095.36 419.861 1095.21 419.888Q1095.06 419.916 1094.91 419.937Q1094.76 419.958 1094.61 419.972Q1094.46 419.986 1094.31 419.993Q1094.15 420 1094 420L6 420Q5.84632 420 5.69367 419.993Q5.54101 419.986 5.3897 419.972Q5.23839 419.958 5.08874 419.937Q4.93908 419.916 4.79138 419.888Q4.64367 419.861 4.49823 419.826Q4.35279 419.791 4.2099 419.75Q4.06701 419.708 3.92696 419.66Q3.78692 419.612 3.65001 419.557Q3.5131 419.502 3.3796 419.441Q3.2461 419.38 3.11628 419.312Q2.98646 419.245 2.86059 419.171Q2.73472 419.097 2.61306 419.017Q2.49139 418.937 2.37418 418.851Q2.25697 418.766 2.14445 418.674Q2.03193 418.582 1.92434 418.485Q1.81674 418.388 1.71429 418.286Q1.61183 418.183 1.51473 418.076Q1.41762 417.968 1.32606 417.856Q1.23451 417.743 1.14869 417.626Q1.06287 417.509 0.982954 417.387Q0.903043 417.265 0.829206 417.139Q0.755368 417.014 0.687755 416.884Q0.620141 416.754 0.558889 416.62Q0.497638 416.487 0.442873 416.35Q0.388108 416.213 0.339942 416.073Q0.291776 415.933 0.250307 415.79Q0.208838 415.647 0.17415 415.502Q0.139462 415.356 0.111627 415.209Q0.0837914 415.061 0.0628649 414.911Q0.0419385 414.762 0.0279637 414.61Q0.013989 414.459 0.0069945 414.306Q0 414.154 0 414L0 6Q0 5.84632 0.0069945 5.69367Q0.013989 5.54101 0.0279637 5.3897Q0.0419385 5.23839 0.0628649 5.08874Q0.0837914 4.93908 0.111627 4.79138Q0.139462 4.64367 0.17415 4.49823Q0.208838 4.35279 0.250307 4.2099Q0.291776 4.06701 0.339942 3.92696Q0.388108 3.78692 0.442873 3.65001Q0.497638 3.5131 0.558889 3.3796Q0.620141 3.2461 0.687755 3.11628Q0.755368 2.98646 0.829206 2.86059Q0.903043 2.73472 0.982954 2.61306Q1.06287 2.49139 1.14869 2.37418Q1.23451 2.25697 1.32606 2.14445Q1.41762 2.03193 1.51473 1.92434Q1.61183 1.81674 1.71429 1.71429Q1.81674 1.61183 1.92434 1.51473Q2.03193 1.41762 2.14445 1.32606Q2.25697 1.23451 2.37418 1.14869Q2.49139 1.06287 2.61306 0.982954Q2.73472 0.903043 2.86059 0.829206Q2.98646 0.755368 3.11628 0.687755Q3.2461 0.620141 3.3796 0.558889Q3.5131 0.497638 3.65001 0.442873Q3.78692 0.388108 3.92696 0.339942Q4.06701 0.291776 4.2099 0.250307Q4.35279 0.208838 4.49823 0.17415Q4.64367 0.139462 4.79138 0.111627Q4.93908 0.0837914 5.08874 0.0628649Q5.23839 0.0419385 5.3897 0.0279637Q5.54101 0.013989 5.69367 0.0069945Q5.84632 0 6 0Z"/>
	</g>
	<defs>
		<clipPath id="clip_1">
			<rect x="-170" y="-267" width="1440" height="1742" clip-rule="evenodd"/>
		</clipPath>
	</defs>
	<g clip-path="url(#clip_1)">
		<path fill="none" stroke="rgb(242,238,235)" stroke-width="1" stroke-miterlimit="4" d="M6 0L1094 0Q1094.15 0 1094.31 0.0069945Q1094.46 0.013989 1094.61 0.0279637Q1094.76 0.0419385 1094.91 0.0628649Q1095.06 0.0837914 1095.21 0.111627Q1095.36 0.139462 1095.5 0.17415Q1095.65 0.208838 1095.79 0.250307Q1095.93 0.291776 1096.07 0.339942Q1096.21 0.388108 1096.35 0.442873Q1096.49 0.497638 1096.62 0.558889Q1096.75 0.620141 1096.88 0.687755Q1097.01 0.755368 1097.14 0.829206Q1097.27 0.903043 1097.39 0.982954Q1097.51 1.06287 1097.63 1.14869Q1097.74 1.23451 1097.86 1.32606Q1097.97 1.41762 1098.08 1.51473Q1098.18 1.61183 1098.29 1.71429Q1098.39 1.81674 1098.49 1.92434Q1098.58 2.03193 1098.67 2.14445Q1098.77 2.25697 1098.85 2.37418Q1098.94 2.49139 1099.02 2.61306Q1099.1 2.73472 1099.17 2.86059Q1099.24 2.98646 1099.31 3.11628Q1099.38 3.2461 1099.44 3.3796Q1099.5 3.5131 1099.56 3.65001Q1099.61 3.78692 1099.66 3.92696Q1099.71 4.06701 1099.75 4.2099Q1099.79 4.35279 1099.83 4.49823Q1099.86 4.64367 1099.89 4.79138Q1099.92 4.93908 1099.94 5.08874Q1099.96 5.23839 1099.97 5.3897Q1099.99 5.54101 1099.99 5.69367Q1100 5.84632 1100 6L1100 414Q1100 414.154 1099.99 414.306Q1099.99 414.459 1099.97 414.61Q1099.96 414.762 1099.94 414.911Q1099.92 415.061 1099.89 415.209Q1099.86 415.356 1099.83 415.502Q1099.79 415.647 1099.75 415.79Q1099.71 415.933 1099.66 416.073Q1099.61 416.213 1099.56 416.35Q1099.5 416.487 1099.44 416.62Q1099.38 416.754 1099.31 416.884Q1099.24 417.014 1099.17 417.139Q1099.1 417.265 1099.02 417.387Q1098.94 417.509 1098.85 417.626Q1098.77 417.743 1098.67 417.856Q1098.58 417.968 1098.49 418.076Q1098.39 418.183 1098.29 418.286Q1098.18 418.388 1098.08 418.485Q1097.97 418.582 1097.86 418.674Q1097.74 418.766 1097.63 418.851Q1097.51 418.937 1097.39 419.017Q1097.27 419.097 1097.14 419.171Q1097.01 419.245 1096.88 419.312Q1096.75 419.38 1096.62 419.441Q1096.49 419.502 1096.35 419.557Q1096.21 419.612 1096.07 419.66Q1095.93 419.708 1095.79 419.75Q1095.65 419.791 1095.5 419.826Q1095.36 419.861 1095.21 419.888Q1095.06 419.916 1094.91 419.937Q1094.76 419.958 1094.61 419.972Q1094.46 419.986 1094.31 419.993Q1094.15 420 1094 420L6 420Q5.84632 420 5.69367 419.993Q5.54101 419.986 5.3897 419.972Q5.23839 419.958 5.08874 419.937Q4.93908 419.916 4.79138 419.888Q4.64367 419.861 4.49823 419.826Q4.35279 419.791 4.2099 419.75Q4.06701 419.708 3.92696 419.66Q3.78692 419.612 3.65001 419.557Q3.5131 419.502 3.3796 419.441Q3.2461 419.38 3.11628 419.312Q2.98646 419.245 2.86059 419.171Q2.73472 419.097 2.61306 419.017Q2.49139 418.937 2.37418 418.851Q2.25697 418.766 2.14445 418.674Q2.03193 418.582 1.92434 418.485Q1.81674 418.388 1.71429 418.286Q1.61183 418.183 1.51473 418.076Q1.41762 417.968 1.32606 417.856Q1.23451 417.743 1.14869 417.626Q1.06287 417.509 0.982954 417.387Q0.903043 417.265 0.829206 417.139Q0.755368 417.014 0.687755 416.884Q0.620141 416.754 0.558889 416.62Q0.497638 416.487 0.442873 416.35Q0.388108 416.213 0.339942 416.073Q0.291776 415.933 0.250307 415.79Q0.208838 415.647 0.17415 415.502Q0.139462 415.356 0.111627 415.209Q0.0837914 415.061 0.0628649 414.911Q0.0419385 414.762 0.0279637 414.61Q0.013989 414.459 0.0069945 414.306Q0 414.154 0 414L0 6Q0 5.84632 0.0069945 5.69367Q0.013989 5.54101 0.0279637 5.3897Q0.0419385 5.23839 0.0628649 5.08874Q0.0837914 4.93908 0.111627 4.79138Q0.139462 4.64367 0.17415 4.49823Q0.208838 4.35279 0.250307 4.2099Q0.291776 4.06701 0.339942 3.92696Q0.388108 3.78692 0.442873 3.65001Q0.497638 3.5131 0.558889 3.3796Q0.620141 3.2461 0.687755 3.11628Q0.755368 2.98646 0.829206 2.86059Q0.903043 2.73472 0.982954 2.61306Q1.06287 2.49139 1.14869 2.37418Q1.23451 2.25697 1.32606 2.14445Q1.41762 2.03193 1.51473 1.92434Q1.61183 1.81674 1.71429 1.71429Q1.81674 1.61183 1.92434 1.51473Q2.03193 1.41762 2.14445 1.32606Q2.25697 1.23451 2.37418 1.14869Q2.49139 1.06287 2.61306 0.982954Q2.73472 0.903043 2.86059 0.829206Q2.98646 0.755368 3.11628 0.687755Q3.2461 0.620141 3.3796 0.558889Q3.5131 0.497638 3.65001 0.442873Q3.78692 0.388108 3.92696 0.339942Q4.06701 0.291776 4.2099 0.250307Q4.35279 0.208838 4.49823 0.17415Q4.64367 0.139462 4.79138 0.111627Q4.93908 0.0837914 5.08874 0.0628649Q5.23839 0.0419385 5.3897 0.0279637Q5.54101 0.013989 5.69367 0.0069945Q5.84632 0 6 0Z"/>
	</g>
	<defs>
		<clipPath id="clip_2">
			<rect x="-170" y="-267" width="1440" height="1742" clip-rule="evenodd"/>
		</clipPath>
	</defs>
	<g clip-path="url(#clip_2)">
		<path fill="none" stroke="rgb(151,151,151)" stroke-width="1" stroke-miterlimit="4" transform="translate(509 169)" d="M0.5 0.5L81.262 81.262"/>
	</g>
	<defs>
		<clipPath id="clip_3">
			<rect x="-170" y="-267" width="1440" height="1742" clip-rule="evenodd"/>
		</clipPath>
	</defs>
	<g clip-path="url(#clip_3)">
		<path fill="none" stroke="rgb(151,151,151)" stroke-width="1" stroke-miterlimit="4" transform="translate(509.5 169.738)" d="M0 80.762L80.762 0"/>
	</g>
</svg>
