<?xml version="1.0" encoding="utf-8" ?>
<svg xmlns="http://www.w3.org/2000/svg" xmlns:xlink="http://www.w3.org/1999/xlink" width="29" height="26">
	<defs>
		<clipPath id="clip_0">
			<rect x="-170" y="-726" width="1440" height="1723" clip-rule="evenodd"/>
		</clipPath>
	</defs>
	<g clip-path="url(#clip_0)">
		<path fill="rgb(74,74,74)" stroke="none" transform="translate(0.0898438 0.0477219)" d="M2.79632 0L26.1142 0C27.6561 0 28.9105 1.25437 28.9104 2.79622L28.9104 16.4301C28.9104 17.972 27.6559 19.2264 26.1141 19.2264L25.3089 19.2264L25.3089 24.3126C25.3089 24.7865 25.0234 25.2135 24.5858 25.3949C24.4409 25.4549 24.2886 25.4841 24.1377 25.4841C23.8329 25.4841 23.5333 25.3651 23.3091 25.141L17.3947 19.2265L2.79632 19.2265C1.25437 19.2265 0 17.972 0 16.4302L0 2.79632C0 1.25437 1.25447 0 2.79632 0ZM26.1143 16.8835C26.3642 16.8835 26.5676 16.6801 26.5676 16.4302L26.5676 2.79622C26.5676 2.54628 26.3642 2.34289 26.1143 2.34289L2.79632 2.34289C2.54637 2.34289 2.34299 2.54618 2.34299 2.79622L2.34299 16.4301C2.34299 16.68 2.54628 16.8834 2.79632 16.8834L17.8806 16.8834C18.1762 16.8834 18.4456 16.9939 18.6518 17.1747C18.6667 17.1874 18.6825 17.2016 18.6992 17.2179C18.7036 17.2223 18.7083 17.2265 18.7128 17.2309L22.9662 21.4844C22.9662 21.4844 22.9681 17.9903 22.9711 17.9647C23.0174 17.3599 23.5215 16.8835 24.138 16.8835L26.1143 16.8835Z" fill-rule="evenodd"/>
	</g>
	<defs>
		<clipPath id="clip_1">
			<rect x="-170" y="-726" width="1440" height="1723" clip-rule="evenodd"/>
		</clipPath>
	</defs>
	<g clip-path="url(#clip_1)">
		<path fill="rgb(74,74,74)" stroke="none" transform="translate(13.374 8.48953)" d="M1.17144 0C0.524813 0 0 0.524813 0 1.17144C0 1.81808 0.524813 2.34289 1.17144 2.34289C1.81817 2.34289 2.34289 1.81808 2.34289 1.17144C2.34289 0.524813 1.81808 0 1.17144 0Z"/>
	</g>
	<defs>
		<clipPath id="clip_2">
			<rect x="-170" y="-726" width="1440" height="1723" clip-rule="evenodd"/>
		</clipPath>
	</defs>
	<g clip-path="url(#clip_2)">
		<path fill="rgb(74,74,74)" stroke="none" transform="translate(7.92969 8.48953)" d="M1.17144 0C0.52491 0 0 0.524813 0 1.17144C0 1.81808 0.52491 2.34289 1.17144 2.34289C1.81817 2.34289 2.34289 1.81808 2.34289 1.17144C2.34289 0.524813 1.81817 0 1.17144 0Z"/>
	</g>
	<defs>
		<clipPath id="clip_3">
			<rect x="-170" y="-726" width="1440" height="1723" clip-rule="evenodd"/>
		</clipPath>
	</defs>
	<g clip-path="url(#clip_3)">
		<path fill="rgb(74,74,74)" stroke="none" transform="translate(18.8164 8.48953)" d="M1.17144 0C0.524813 0 0 0.524813 0 1.17144C0 1.81808 0.524813 2.34289 1.17144 2.34289C1.81817 2.34289 2.34289 1.81808 2.34289 1.17144C2.34289 0.524813 1.81808 0 1.17144 0Z"/>
	</g>
</svg>
