<?xml version="1.0" encoding="utf-8" ?>
<svg xmlns="http://www.w3.org/2000/svg" xmlns:xlink="http://www.w3.org/1999/xlink" width="29" height="26">
	<defs>
		<clipPath id="clip_0">
			<rect x="-618" y="-1876" width="1440" height="3880" clip-rule="evenodd"/>
		</clipPath>
	</defs>
	<g clip-path="url(#clip_0)">
		<path fill="rgb(255,255,255)" stroke="none" d="M25.4606 1.45691L25.4606 6.19417C27.4543 6.45633 29 8.1901 29 10.2847C29 12.3792 27.4543 14.1129 25.4605 14.3751L25.4605 19.1124C25.4605 19.6342 25.196 20.103 24.7531 20.3669C24.5266 20.5018 24.2767 20.5693 24.0265 20.5694C23.7855 20.5694 23.5442 20.5067 23.323 20.3811C19.3141 18.105 14.9779 16.7111 10.4193 16.2303L13.2167 24.0646C13.3749 24.5058 13.3108 24.9996 13.0451 25.3849C12.7794 25.77 12.3443 26 11.8811 26L8.61368 26C8.01833 26 7.48172 25.6184 7.27821 25.0505L4.02222 15.9275C3.32888 15.6161 2.82387 14.9497 2.73166 14.1564L1.81675 14.1564C0.815059 14.1564 0 13.329 0 12.3119L0 8.25968C0 7.24265 0.815059 6.41527 1.81675 6.41527L2.73178 6.41527C2.85984 5.31302 3.78524 4.45487 4.90485 4.45487C4.90485 4.45487 9.36275 4.43509 9.40053 4.43227C14.3328 4.06096 19.017 2.63318 23.3231 0.188297C23.774 -0.0677718 24.3087 -0.0623088 24.7533 0.202501C25.1962 0.466276 25.4606 0.935228 25.4606 1.45691ZM24.0595 19.1124C24.0595 19.1227 24.0595 19.1309 24.0443 19.14C24.0263 19.1505 24.0156 19.1445 24.007 19.1396C19.7003 16.6945 15.0312 15.2267 10.1197 14.7715L10.1197 5.79847C15.0316 5.34263 19.7007 3.87471 24.0068 1.42983C24.0156 1.42494 24.0266 1.4189 24.0443 1.42948C24.0595 1.43851 24.0595 1.44662 24.0595 1.45691L24.0595 19.1124ZM4.58393 14.6242C4.30922 14.4992 4.11709 14.2194 4.11709 13.8946L4.11709 6.67698L4.11715 6.67698C4.11715 6.23609 4.47053 5.87737 4.90479 5.87737L8.71858 5.87737L8.71858 14.6943C8.71858 14.6943 4.87155 14.6928 4.85495 14.6917C4.71443 14.6752 4.68486 14.6679 4.58393 14.6242ZM25.4606 7.63409L25.4606 12.9352C26.6785 12.6872 27.5989 11.5931 27.5989 10.2846C27.5989 8.97619 26.6785 7.88216 25.4606 7.63409ZM1.81675 12.7339L2.71597 12.7339L2.71597 7.83777L1.81675 7.83777C1.58752 7.83777 1.40112 8.02713 1.40112 8.25968L1.40112 12.3119C1.40112 12.5446 1.58752 12.7339 1.81675 12.7339ZM11.8974 24.5686C11.9034 24.56 11.902 24.5558 11.8997 24.55L8.88839 16.1167L5.57995 16.1167L8.5951 24.565C8.59765 24.572 8.6053 24.5773 8.61362 24.5773L11.8811 24.5773C11.887 24.5773 11.8914 24.5773 11.8974 24.5686Z" fill-rule="evenodd"/>
	</g>
</svg>
