<?xml version="1.0" encoding="utf-8" ?>
<svg xmlns="http://www.w3.org/2000/svg" xmlns:xlink="http://www.w3.org/1999/xlink" width="30" height="30">
	<defs>
		<clipPath id="clip_0">
			<rect x="-617" y="-2082" width="1440" height="3880" clip-rule="evenodd"/>
		</clipPath>
	</defs>
	<g clip-path="url(#clip_0)">
		<path fill="rgb(255,255,255)" stroke="none" d="M18.8805 0.517402C22.749 1.55393 25.9822 4.03496 27.9847 7.50324C29.9871 10.9716 30.5192 15.0121 29.4826 18.8807C28.4461 22.7492 25.9651 25.9824 22.4968 27.9848C20.1865 29.3186 17.6224 30 15.0244 30C13.7219 30 12.4111 29.8288 11.1193 29.4826C7.25092 28.4461 4.0176 25.9651 2.01521 22.4968C0.0127728 19.0285 -0.5192 14.9879 0.517324 11.1195C1.55385 7.251 4.03476 4.01779 7.50316 2.01529C10.9716 0.0127338 15.0121 -0.519239 18.8805 0.517402ZM21.7159 26.6326C24.8231 24.8387 27.0457 21.9421 27.9743 18.4766C28.9029 15.0109 28.4263 11.3911 26.6324 8.28394C24.8385 5.17672 21.9419 2.95414 18.4763 2.02555C17.3195 1.71553 16.1447 1.56213 14.9781 1.56213C12.6505 1.56213 10.3537 2.1725 8.28387 3.36752C5.1767 5.16154 2.95412 8.05801 2.02547 11.5236C1.09682 14.9892 1.57336 18.6091 3.36726 21.7162C5.16123 24.8234 8.05775 27.046 11.5234 27.9746C14.989 28.9031 18.6088 28.4266 21.7159 26.6326Z" fill-rule="evenodd"/>
	</g>
	<defs>
		<clipPath id="clip_1">
			<rect x="-617" y="-2082" width="1440" height="3880" clip-rule="evenodd"/>
		</clipPath>
	</defs>
	<g clip-path="url(#clip_1)">
		<path fill="rgb(255,255,255)" stroke="none" transform="translate(10 8)" d="M2.45098 0.221492L12.0912 5.78731C12.6027 6.08262 12.9081 6.61161 12.9081 7.20223C12.9081 7.79292 12.6028 8.3219 12.0912 8.61733L2.45092 14.1831C2.19516 14.3307 1.91455 14.4046 1.63389 14.4046C1.35328 14.4046 1.07279 14.3309 0.817031 14.1832C0.305391 13.8878 0 13.3588 0 12.7681L0 1.63647C0 1.04579 0.305449 0.516746 0.817031 0.221433C1.32861 -0.0737622 1.93939 -0.0738794 2.45098 0.221492ZM1.6701 12.8309L11.3104 7.26516C11.3221 7.25837 11.3466 7.24419 11.3466 7.20235C11.3466 7.16051 11.3222 7.14639 11.3104 7.1396L1.67021 1.57378C1.66301 1.56962 1.65117 1.56276 1.63477 1.56276C1.62422 1.56276 1.61186 1.56557 1.59768 1.57378C1.56146 1.59469 1.56146 1.62294 1.56146 1.63653L1.56146 12.7682C1.56146 12.7818 1.56146 12.81 1.59768 12.8309C1.63377 12.8519 1.65832 12.8378 1.6701 12.8309Z" fill-rule="evenodd"/>
	</g>
	<defs>
		<clipPath id="clip_2">
			<rect x="-617" y="-2082" width="1440" height="3880" clip-rule="evenodd"/>
		</clipPath>
	</defs>
	<g clip-path="url(#clip_2)">
		<path fill="rgb(255,255,255)" stroke="none" transform="translate(16 3)" d="M8.54461 4.42883C6.68783 2.03012 3.8966 0.418561 0.886522 0.00729121C0.459784 -0.0511268 0.0656822 0.247877 0.00726419 0.675201C-0.0510366 1.10241 0.247967 1.49604 0.675174 1.55446C3.2833 1.91077 5.70152 3.30694 7.30986 5.38467C7.46373 5.58342 7.69453 5.68749 7.92779 5.68749C8.09472 5.68749 8.26295 5.63422 8.4051 5.52407C8.74605 5.26016 8.80851 4.76979 8.54461 4.42883Z"/>
	</g>
</svg>
