<?xml version="1.0" encoding="utf-8" ?>
<svg xmlns="http://www.w3.org/2000/svg" xmlns:xlink="http://www.w3.org/1999/xlink" width="154" height="109">
	<defs>
		<clipPath id="clip_0">
			<rect x="-640.81396" y="-1096.478" width="1438.5601" height="3876.1201" clip-rule="evenodd"/>
		</clipPath>
	</defs>
	<g clip-path="url(#clip_0)">
		<path fill="rgb(48,232,182)" stroke="none" transform="matrix(0.998945 -0.0104613 0.0104613 0.998945 0.543945 53.4755)" d="M9.99535 3.96302C9.77056 5.26705 9.10587 6.40749 8.17535 7.24918C9.16023 7.51666 9.86027 8.155 9.89705 8.18903C10.0341 8.31588 10.0341 8.52777 9.89711 8.65464C9.85049 8.69776 8.7396 9.71092 7.33331 9.71092C6.51696 9.71092 5.80021 9.36951 5.33333 9.07464L5.33333 10.6777C5.33333 10.8557 5.18409 11 5.00001 11C4.81593 11 4.66669 10.8557 4.66669 10.6777L4.66669 9.07464C4.19984 9.36951 3.48308 9.71092 2.66673 9.71092C1.26045 9.71092 0.149551 8.69776 0.102953 8.65464C-0.0340647 8.5278 -0.0341091 8.3159 0.102953 8.18903C0.139729 8.15498 0.839728 7.51664 1.82465 7.24918C0.892793 6.40626 0.229082 5.26499 0.00464512 3.96302C-0.0329092 3.7451 0.162884 3.5558 0.388232 3.59216C1.49128 3.7699 2.51225 4.23948 3.34524 4.94041C3.33762 4.81421 3.33338 4.68567 3.33338 4.55459C3.33338 2.17 4.66658 0.224055 4.72333 0.142393C4.85528 -0.0475073 5.14476 -0.0474213 5.27667 0.142393C5.33342 0.224055 6.66662 2.17 6.66662 4.55459C6.66662 4.68567 6.66238 4.81421 6.65476 4.94041C7.48775 4.23946 8.50872 3.7699 9.61177 3.59216C9.83714 3.55576 10.0329 3.74519 9.99535 3.96302ZM4.99997 7.86079C3.59792 5.71266 3.74927 3.24712 4.99997 0.964233C6.24052 3.22851 6.40959 5.70368 4.99997 7.86079ZM0.76682 4.32943C1.83289 4.60194 2.78804 5.18741 3.50033 6.01112C3.62563 6.55388 3.80687 7.02697 3.99247 7.41624C3.6207 7.26046 3.18572 7.14128 2.71642 7.13333C1.75065 6.42968 1.07141 5.44935 0.76682 4.32943ZM9.23314 4.32945C8.16704 4.60194 7.21187 5.18739 6.49963 6.01112C6.37432 6.55388 6.19308 7.02694 6.00749 7.41624C6.37925 7.26046 6.81426 7.14128 7.28353 7.13333C8.2493 6.42968 8.92854 5.44937 9.23314 4.32945ZM4.47087 8.42246C3.22631 7.55097 2.05449 7.58382 0.862483 8.42126C2.05751 9.25794 3.23031 9.29397 4.47087 8.42246ZM9.13745 8.42246C7.89289 7.55097 6.72106 7.58382 5.52906 8.42126C6.72409 9.25794 7.89689 9.29397 9.13745 8.42246Z" fill-rule="evenodd"/>
	</g>
	<defs>
		<clipPath id="clip_1">
			<rect x="-640.81396" y="-1096.478" width="1438.5601" height="3876.1201" clip-rule="evenodd"/>
		</clipPath>
	</defs>
	<g clip-path="url(#clip_1)">
		<path fill="rgb(48,232,182)" stroke="none" transform="matrix(0.998945 -0.0104613 0.0104613 0.998945 137.407 12.4852)" d="M6.99675 2.88219C6.83939 3.83058 6.37411 4.65999 5.72274 5.27213C6.41216 5.46666 6.90219 5.93091 6.92793 5.95566C7.02386 6.04791 7.02388 6.20202 6.92798 6.29428C6.89534 6.32564 6.11772 7.06249 5.13332 7.06249C4.56187 7.06249 4.06014 6.81419 3.73333 6.59974L3.73333 7.76563C3.73333 7.89506 3.62887 8 3.50001 8C3.37115 8 3.26668 7.89506 3.26668 7.76563L3.26668 6.59974C2.93989 6.81419 2.43816 7.06249 1.86671 7.06249C0.882313 7.06249 0.104686 6.32564 0.0720671 6.29428C-0.0238453 6.20203 -0.0238764 6.04792 0.0720671 5.95566C0.0978106 5.93089 0.58781 5.46664 1.27726 5.27213C0.624955 4.6591 0.160357 3.82908 0.00325158 2.88219C-0.0230364 2.72371 0.114019 2.58604 0.271763 2.61248C1.0439 2.74174 1.75857 3.08326 2.34167 3.59302C2.33634 3.50124 2.33336 3.40776 2.33336 3.31243C2.33336 1.57818 3.2666 0.162949 3.30633 0.103558C3.3987 -0.0345507 3.60133 -0.0344882 3.69367 0.103558C3.7334 0.162949 4.66664 1.57818 4.66664 3.31243C4.66664 3.40776 4.66366 3.50124 4.65833 3.59302C5.24142 3.08324 5.9561 2.74174 6.72824 2.61248C6.886 2.58601 7.02304 2.72377 6.99675 2.88219ZM3.49998 5.71694C2.51855 4.15466 2.62449 2.36154 3.49998 0.701261C4.36837 2.34801 4.48671 4.14813 3.49998 5.71694ZM0.536774 3.14868C1.28303 3.34687 1.95163 3.77266 2.45023 4.37172C2.53794 4.76646 2.66481 5.11052 2.79473 5.39363C2.53449 5.28033 2.23 5.19366 1.90149 5.18788C1.22546 4.67613 0.749987 3.96316 0.536774 3.14868ZM6.46319 3.14869C5.71693 3.34687 5.04831 3.77265 4.54974 4.37172C4.46202 4.76646 4.33516 5.1105 4.20524 5.39363C4.46548 5.28033 4.76998 5.19366 5.09847 5.18788C5.77451 4.67613 6.24998 3.96318 6.46319 3.14869ZM3.12961 6.12542C2.25842 5.49161 1.43814 5.5155 0.603738 6.12455C1.44026 6.73305 2.26122 6.75925 3.12961 6.12542ZM6.39621 6.12542C5.52502 5.49161 4.70474 5.5155 3.87034 6.12455C4.70686 6.73305 5.52782 6.75925 6.39621 6.12542Z" fill-rule="evenodd"/>
	</g>
	<defs>
		<clipPath id="clip_2">
			<rect x="-640.81396" y="-1096.478" width="1438.5601" height="3876.1201" clip-rule="evenodd"/>
		</clipPath>
	</defs>
	<g clip-path="url(#clip_2)">
		<path fill="rgb(48,232,182)" stroke="none" transform="matrix(0.998945 -0.0104613 0.0104613 0.998945 32.512 0.570465)" d="M13.9935 5.40412C13.6788 7.18235 12.7482 8.73748 11.4455 9.88524C12.8243 10.25 13.8044 11.1205 13.8559 11.1669C14.0477 11.3398 14.0478 11.6288 13.856 11.8018C13.7907 11.8606 12.2354 13.2422 10.2666 13.2422C9.12374 13.2422 8.12029 12.7766 7.46667 12.3745L7.46667 14.5605C7.46667 14.8032 7.25773 15 7.00002 15C6.7423 15 6.53336 14.8032 6.53336 14.5605L6.53336 12.3745C5.87977 12.7766 4.87632 13.2422 3.73343 13.2422C1.76463 13.2422 0.209372 11.8606 0.144134 11.8018C-0.0476906 11.6288 -0.0477528 11.3399 0.144134 11.1669C0.195621 11.1204 1.17562 10.25 2.55451 9.88524C1.24991 8.73581 0.320715 7.17953 0.00650317 5.40412C-0.0460728 5.10696 0.228038 4.84882 0.543525 4.89839C2.0878 5.14077 3.51715 5.78111 4.68334 6.73692C4.67267 6.56483 4.66673 6.38954 4.66673 6.2108C4.66673 2.95909 6.53321 0.305529 6.61266 0.194172C6.7974 -0.0647826 7.20267 -0.0646654 7.38734 0.194172C7.46679 0.305529 9.33327 2.95909 9.33327 6.2108C9.33327 6.38954 9.32733 6.56483 9.31666 6.73692C10.4828 5.78108 11.9122 5.14077 13.4565 4.89839C13.772 4.84876 14.0461 5.10707 13.9935 5.40412ZM6.99995 10.7193C5.03709 7.78999 5.24898 4.42789 6.99995 1.31486C8.73673 4.40252 8.97342 7.77774 6.99995 10.7193ZM1.07355 5.90377C2.56605 6.27537 3.90326 7.07374 4.90046 8.19698C5.07589 8.93711 5.32962 9.58222 5.58945 10.1131C5.06898 9.90062 4.46 9.73811 3.80299 9.72727C2.45091 8.76774 1.49997 7.43093 1.07355 5.90377ZM12.9264 5.9038C11.4339 6.27537 10.0966 7.07371 9.09948 8.19698C8.92405 8.93711 8.67031 9.5822 8.41048 10.1131C8.93095 9.90062 9.53997 9.73811 10.1969 9.72727C11.549 8.76774 12.5 7.43096 12.9264 5.9038ZM6.25922 11.4852C4.51684 10.2968 2.87628 10.3416 1.20748 11.4835C2.88051 12.6245 4.52244 12.6736 6.25922 11.4852ZM12.7924 11.4852C11.05 10.2968 9.40949 10.3416 7.74068 11.4835C9.41372 12.6245 11.0556 12.6736 12.7924 11.4852Z" fill-rule="evenodd"/>
	</g>
	<defs>
		<clipPath id="clip_3">
			<rect x="-640.81396" y="-1096.478" width="1438.5601" height="3876.1201" clip-rule="evenodd"/>
		</clipPath>
	</defs>
	<g clip-path="url(#clip_3)">
		<path fill="rgb(48,232,182)" stroke="none" transform="matrix(0.998945 -0.0104613 0.0104613 0.998945 139.405 77.4935)" d="M13.9935 5.40412C13.6788 7.18235 12.7482 8.73748 11.4455 9.88524C12.8243 10.25 13.8044 11.1205 13.8559 11.1669C14.0477 11.3398 14.0478 11.6288 13.856 11.8018C13.7907 11.8606 12.2354 13.2422 10.2666 13.2422C9.12374 13.2422 8.12029 12.7766 7.46667 12.3745L7.46667 14.5605C7.46667 14.8032 7.25773 15 7.00002 15C6.7423 15 6.53336 14.8032 6.53336 14.5605L6.53336 12.3745C5.87977 12.7766 4.87632 13.2422 3.73343 13.2422C1.76463 13.2422 0.209372 11.8606 0.144134 11.8018C-0.0476906 11.6288 -0.0477528 11.3399 0.144134 11.1669C0.195621 11.1204 1.17562 10.25 2.55451 9.88524C1.24991 8.73581 0.320715 7.17953 0.00650317 5.40412C-0.0460728 5.10696 0.228038 4.84882 0.543525 4.89839C2.0878 5.14077 3.51715 5.78111 4.68334 6.73692C4.67267 6.56483 4.66673 6.38954 4.66673 6.2108C4.66673 2.95909 6.53321 0.305529 6.61266 0.194172C6.7974 -0.0647826 7.20267 -0.0646654 7.38734 0.194172C7.46679 0.305529 9.33327 2.95909 9.33327 6.2108C9.33327 6.38954 9.32733 6.56483 9.31666 6.73692C10.4828 5.78108 11.9122 5.14077 13.4565 4.89839C13.772 4.84876 14.0461 5.10707 13.9935 5.40412ZM6.99995 10.7193C5.03709 7.78999 5.24898 4.42789 6.99995 1.31486C8.73673 4.40252 8.97342 7.77774 6.99995 10.7193ZM1.07355 5.90377C2.56605 6.27537 3.90326 7.07374 4.90046 8.19698C5.07589 8.93711 5.32962 9.58222 5.58945 10.1131C5.06898 9.90062 4.46 9.73811 3.80299 9.72727C2.45091 8.76774 1.49997 7.43093 1.07355 5.90377ZM12.9264 5.9038C11.4339 6.27537 10.0966 7.07371 9.09948 8.19698C8.92405 8.93711 8.67031 9.5822 8.41048 10.1131C8.93095 9.90062 9.53997 9.73811 10.1969 9.72727C11.549 8.76774 12.5 7.43096 12.9264 5.9038ZM6.25922 11.4852C4.51684 10.2968 2.87628 10.3416 1.20748 11.4835C2.88051 12.6245 4.52244 12.6736 6.25922 11.4852ZM12.7924 11.4852C11.05 10.2968 9.40949 10.3416 7.74068 11.4835C9.41372 12.6245 11.0556 12.6736 12.7924 11.4852Z" fill-rule="evenodd"/>
	</g>
	<defs>
		<clipPath id="clip_4">
			<rect x="-640.81396" y="-1096.478" width="1438.5601" height="3876.1201" clip-rule="evenodd"/>
		</clipPath>
	</defs>
	<g clip-path="url(#clip_4)">
		<path fill="rgb(48,232,182)" stroke="none" transform="matrix(0.999 0 0 0.999 121.751 63.0956)" d="M3.13389 0.537983C2.79237 0.196465 2.31865 0 1.83594 0C1.35304 0 0.879318 0.196281 0.537983 0.537983C0.196465 0.879502 0 1.35322 0 1.83594C0 2.32067 0.196465 2.79256 0.537983 3.13371C0.879502 3.47706 1.35322 3.67188 1.83594 3.67188C2.31884 3.67188 2.79256 3.47706 3.13389 3.13371C3.47541 2.79237 3.67188 2.32031 3.67188 1.83594C3.67188 1.35322 3.47541 0.879502 3.13389 0.537983Z"/>
	</g>
	<defs>
		<clipPath id="clip_5">
			<rect x="-640.81396" y="-1096.478" width="1438.5601" height="3876.1201" clip-rule="evenodd"/>
		</clipPath>
	</defs>
	<g clip-path="url(#clip_5)">
		<path fill="rgb(48,232,182)" stroke="none" transform="matrix(0.999 0 0 0.999 31.5129 45.4883)" d="M94 13.5098C94 14.5187 93.1782 15.337 92.1641 15.337C91.15 15.337 90.3282 14.5187 90.328 13.5096L90.328 3.66129L84.0223 3.65983C84.0623 3.81004 84.0858 3.96702 84.0858 4.12966L84.0858 36.2182L90.328 36.2182L90.328 27.5191C90.328 26.5102 91.15 25.6919 92.1639 25.6919C93.1778 25.6919 93.9998 26.5102 93.9998 27.5191L93.9998 38.046C93.9998 39.0549 93.178 39.8732 92.1639 39.8732L77.2647 39.8732C76.9716 40.9187 76.4138 41.8774 75.6216 42.6658C74.4094 43.8715 72.7978 44.536 71.084 44.536L71.0831 44.536C71.0609 44.536 71.0387 44.5345 71.0164 44.5343C71.0326 46.1913 70.408 47.8531 69.1405 49.1143C67.9283 50.32 66.3168 50.9845 64.603 50.9845L64.602 50.9845C64.5798 50.9845 64.5576 50.983 64.5354 50.9828C64.5515 52.6398 63.9269 54.3018 62.6594 55.563C61.4473 56.7689 59.8359 57.433 58.1221 57.433L58.1208 57.433C58.0984 57.433 58.0764 57.4315 58.0541 57.4313C58.0701 59.0881 57.4455 60.7502 56.178 62.0113C54.9267 63.2561 53.2836 63.8784 51.6405 63.8784C50.263 63.8784 48.8863 63.4394 47.7399 62.5646C46.623 63.4235 45.2609 63.8906 43.8264 63.8906L43.8251 63.8906C42.1107 63.8903 40.4992 63.2254 39.2872 62.0188C38.0752 60.8121 37.4079 59.208 37.4081 57.5017C37.4081 57.4805 37.4094 57.4595 37.4096 57.4383C37.3887 57.4385 37.3679 57.4397 37.347 57.4397L37.3459 57.4397C35.6315 57.4396 34.02 56.7749 32.808 55.5681C31.596 54.3612 30.9285 52.7571 30.9289 51.0508C30.9289 51.0296 30.9302 51.0088 30.9304 50.9876C30.9094 50.9878 30.8887 50.989 30.8678 50.989L30.8668 50.989C29.1525 50.9887 27.5407 50.3238 26.3287 49.1172C25.1167 47.9105 24.4495 46.3062 24.4497 44.6001C24.4497 44.5778 24.4511 44.5559 24.4513 44.5338C24.4306 44.534 24.4098 44.5352 24.3889 44.5352C22.7449 44.5352 21.101 43.9121 19.8497 42.6665C19.0427 41.8628 18.4976 40.8966 18.2113 39.8729L1.83592 39.8729C0.822021 39.8729 0 39.0547 0 38.0456L0 1.82726C0 1.34281 0.193341 0.877905 0.537793 0.535259C0.882062 0.192613 1.34898 0 1.83592 0L38.0989 0.00274117C40.5093 0.00292391 42.7754 0.93748 44.4797 2.63372L48.8786 7.01282L51.7479 4.12235C54.3482 1.50253 57.9618 0 61.6619 0L61.6657 0L92.1646 0.00730978C93.1783 0.00749253 94.0002 0.82564 94 1.83457L94 13.5098ZM73.0259 40.0806C72.5074 40.5965 71.8179 40.8809 71.0844 40.8809L71.084 40.8809C70.3503 40.8807 69.6609 40.5962 69.142 40.0797L57.5327 28.5237C56.8157 27.8099 55.6534 27.8101 54.9363 28.5235C54.5777 28.8802 54.3985 29.3479 54.3985 29.8155C54.3985 30.2832 54.5777 30.7508 54.9363 31.1075L66.5454 42.6634C67.616 43.7293 67.6156 45.4634 66.5448 46.5288C66.0261 47.0449 65.3367 47.3292 64.6031 47.3292L64.6028 47.3292C63.8691 47.329 63.1798 47.0445 62.6609 46.5281L51.0514 34.972C50.3344 34.2584 49.1722 34.2586 48.455 34.9718C47.738 35.6855 47.7378 36.8422 48.455 37.556L60.0643 49.1119C61.1349 50.1778 61.1347 51.9121 60.0638 52.9775C59.5451 53.4935 58.8558 53.7777 58.1223 53.7777L58.1219 53.7777C57.3882 53.7775 56.6987 53.493 56.18 52.9767L52.4895 49.3023C52.4019 49.215 52.3073 49.1387 52.208 49.0728C51.0015 47.8946 49.4094 47.2455 47.7165 47.2451L47.7156 47.2451C47.6936 47.2451 47.6719 47.2464 47.6501 47.2468C47.6668 45.59 47.0427 43.928 45.7756 42.6663L45.7756 42.6661C44.5636 41.4595 42.9519 40.7948 41.2377 40.7946L41.2366 40.7946C41.2147 40.7946 41.1931 40.7961 41.1712 40.7963C41.1879 39.1395 40.5638 37.4774 39.2967 36.2158C38.0847 35.0091 36.4732 34.3443 34.7588 34.3439L34.7575 34.3439C34.7357 34.3439 34.714 34.3454 34.6922 34.3456C34.7089 32.6888 34.0848 31.0267 32.8177 29.7651L32.8177 29.7649C30.3156 27.2741 26.2439 27.273 23.7411 29.7634L19.8523 33.6325C19.0997 34.3814 18.5751 35.2719 18.2749 36.2183L13.586 36.2183L13.586 15.733C13.586 14.7239 12.764 13.9058 11.7501 13.9058C10.7362 13.9058 9.9142 14.7241 9.9142 15.733L9.9142 36.218L3.67183 36.218L3.67183 3.65434L38.0987 3.6569C39.5283 3.65709 40.8725 4.21135 41.8833 5.21736L46.298 9.61218L42.6015 13.336C40.027 15.9295 40.0517 20.1251 42.6566 22.6887C43.9356 23.9472 45.6249 24.6002 47.3308 24.6002C48.5029 24.6002 49.6832 24.2917 50.7435 23.6598L56.7915 20.0551L73.0264 36.215C73.4715 36.658 73.7434 37.2267 73.8119 37.8404C73.8044 37.9076 73.7996 37.976 73.7996 38.0452C73.7996 38.1379 73.8088 38.2282 73.8222 38.3172C73.7812 38.9836 73.5044 39.6046 73.0259 40.0806ZM80.4142 36.218L80.4142 4.12966C80.4142 3.96665 80.4377 3.80949 80.4779 3.6591L61.6648 3.65453L61.6621 3.65453C58.9368 3.65453 56.2755 4.76105 54.3601 6.69083L45.2136 15.905C44.0614 17.0654 44.0726 18.9431 45.2382 20.09C46.2036 21.0403 47.6919 21.2194 48.8569 20.5248L60.9607 13.3108C61.2458 13.1408 61.5717 13.0511 61.9041 13.0511L74.2568 13.0511C75.2707 13.0511 76.0927 13.8692 76.0927 14.8783C76.0927 15.8873 75.2709 16.7056 74.2568 16.7056L62.4118 16.7056L60.0393 18.1195L75.6232 33.6312C76.3628 34.3677 76.8984 35.2525 77.2045 36.218L80.4142 36.218ZM24.3885 40.8833L24.3891 40.8833C25.1222 40.8833 25.8119 40.5991 26.3306 40.083L30.2193 36.2138C31.2901 35.1484 31.2904 33.4143 30.22 32.3484C29.6846 31.8155 28.9812 31.5488 28.2778 31.5488C27.5745 31.5488 26.8717 31.8151 26.3363 32.3478L22.4474 36.2169C21.9285 36.7331 21.6428 37.4193 21.6426 38.1494C21.6425 38.8795 21.928 39.5659 22.4467 40.0821C22.9656 40.5985 23.6548 40.8831 24.3885 40.8833ZM30.8679 47.334L30.8676 47.334C30.1339 47.3338 29.4446 47.0492 28.9259 46.5328C28.4072 46.0166 28.1217 45.3303 28.1219 44.6001C28.1221 43.87 28.4079 43.1838 28.9266 42.6676L32.8153 38.7983C33.334 38.2823 34.0235 37.9981 34.7568 37.9981L34.7574 37.9981C35.4911 37.9983 36.1803 38.2828 36.6992 38.7991L36.6992 38.7992C37.7698 39.8652 37.7695 41.5991 36.6987 42.6645L32.8098 46.5335C32.2909 47.0498 31.6013 47.334 30.8679 47.334ZM35.4055 49.1183C34.3343 50.1837 34.3341 51.9179 35.4048 52.9839C36.4756 54.0496 38.2178 54.05 39.2887 52.9844L43.1775 49.1154C44.2483 48.05 44.2485 46.3157 43.1781 45.2498C42.6594 44.7335 41.9699 44.449 41.2364 44.449L41.2358 44.449C40.5025 44.449 39.813 44.7331 39.2943 45.2492L35.4055 49.1183ZM46.4432 58.7632L46.4419 58.7643L46.4406 58.7656L45.7675 59.4353C45.2488 59.9514 44.5595 60.2355 43.8262 60.2355L43.8257 60.2355C43.092 60.2354 42.4027 59.9508 41.8838 59.4344C41.3651 58.9181 41.0796 58.2318 41.0798 57.5017C41.08 56.7716 41.3657 56.0854 41.8845 55.5692L45.7734 51.7001C46.2921 51.184 46.9815 50.8997 47.7151 50.8997L47.7152 50.8997C48.4491 50.8999 49.1384 51.1844 49.6571 51.7006L49.6571 51.7008C50.1758 52.2171 50.4613 52.9033 50.4611 53.6335C50.461 54.3636 50.1751 55.0498 49.6564 55.5661L46.4432 58.7632ZM50.4435 59.9505C51.4662 60.4426 52.734 60.2699 53.5821 59.4262C54.587 58.4264 54.6489 56.8376 53.7678 55.7649C53.4531 56.6523 52.9408 57.4657 52.2523 58.1508L50.4435 59.9505Z" fill-rule="evenodd"/>
	</g>
	<defs>
		<clipPath id="clip_6">
			<rect x="-640.81396" y="-1096.478" width="1438.5601" height="3876.1201" clip-rule="evenodd"/>
		</clipPath>
	</defs>
	<g clip-path="url(#clip_6)">
		<path fill="rgb(48,232,182)" stroke="none" transform="matrix(0.999 0 0 0.999 41.7839 52.091)" d="M3.13389 0.537983C2.79237 0.196465 2.31865 0 1.83594 0C1.35304 0 0.879318 0.196281 0.537983 0.537983C0.196465 0.879502 0 1.35322 0 1.83594C0 2.31865 0.196465 2.79256 0.537983 3.13371C0.879502 3.47523 1.35322 3.67188 1.83594 3.67188C2.31884 3.67188 2.79256 3.47541 3.13389 3.13371C3.47541 2.79237 3.67188 2.31865 3.67188 1.83594C3.67188 1.35322 3.47541 0.879502 3.13389 0.537983Z"/>
	</g>
	<defs>
		<clipPath id="clip_7">
			<rect x="-640.81396" y="-1096.478" width="1438.5601" height="3876.1201" clip-rule="evenodd"/>
		</clipPath>
	</defs>
	<g clip-path="url(#clip_7)">
		<path fill="rgb(48,232,182)" stroke="none" transform="matrix(0.999 0 0 0.999 60.125 15.409)" d="M5.5078 0L31.9457 0C34.9826 0 37.4535 2.48564 37.4531 5.54074L37.4531 19.2081C37.4531 22.2632 34.9824 24.7489 31.9453 24.7489L25.5455 24.7489L20.0247 30.3027C19.6665 30.6633 19.1962 30.8438 18.7266 30.8438C18.2569 30.8438 17.787 30.6633 17.4284 30.3027L11.9076 24.7489L5.5078 24.7489C2.47086 24.7489 0 22.2634 0 19.2081L0 5.54074C0 2.48564 2.47068 0 5.5078 0ZM31.9457 21.0551C32.9579 21.0551 33.7816 20.2265 33.7816 19.2081L33.7816 5.54074C33.7816 4.52243 32.9579 3.69382 31.9457 3.69382L5.5078 3.69382C4.49555 3.69382 3.67187 4.52225 3.67187 5.54074L3.67187 19.2081C3.67187 20.2265 4.49537 21.0551 5.5078 21.0551L12.6681 21.0551C13.1549 21.0551 13.622 21.2497 13.9662 21.5961L18.7267 26.385L23.4872 21.5961C23.8313 21.2497 24.2984 21.0551 24.7854 21.0551L31.9457 21.0551Z" fill-rule="evenodd"/>
	</g>
	<defs>
		<clipPath id="clip_8">
			<rect x="-640.81396" y="-1096.478" width="1438.5601" height="3876.1201" clip-rule="evenodd"/>
		</clipPath>
	</defs>
	<g clip-path="url(#clip_8)">
		<path fill="rgb(48,232,182)" stroke="none" transform="matrix(0.999 0 0 0.999 68.1951 25.68)" d="M3.13389 0.537983C2.79237 0.194629 2.31865 0 1.83594 0C1.3512 0 0.879318 0.194629 0.537983 0.537983C0.196465 0.879502 0 1.35157 0 1.83594C0 2.31884 0.196465 2.79256 0.537983 3.13389C0.879502 3.47541 1.35322 3.67188 1.83594 3.67188C2.31865 3.67188 2.79256 3.47541 3.13389 3.13389C3.47541 2.79237 3.67188 2.31865 3.67188 1.83594C3.67188 1.3512 3.47541 0.879502 3.13389 0.537983Z"/>
	</g>
	<defs>
		<clipPath id="clip_9">
			<rect x="-640.81396" y="-1096.478" width="1438.5601" height="3876.1201" clip-rule="evenodd"/>
		</clipPath>
	</defs>
	<g clip-path="url(#clip_9)">
		<path fill="rgb(48,232,182)" stroke="none" transform="matrix(0.999 0 0 0.999 76.9988 25.68)" d="M3.13389 0.537983C2.79237 0.194629 2.31865 0 1.83594 0C1.35322 0 0.879318 0.194629 0.537983 0.537983C0.196465 0.879502 0 1.35157 0 1.83594C0 2.31884 0.196465 2.79256 0.537983 3.13389C0.879502 3.47541 1.35322 3.67188 1.83594 3.67188C2.31865 3.67188 2.79256 3.47541 3.13389 3.13389C3.47541 2.79237 3.67188 2.31865 3.67188 1.83594C3.67188 1.3512 3.47541 0.879502 3.13389 0.537983Z"/>
	</g>
	<defs>
		<clipPath id="clip_10">
			<rect x="-640.81396" y="-1096.478" width="1438.5601" height="3876.1201" clip-rule="evenodd"/>
		</clipPath>
	</defs>
	<g clip-path="url(#clip_10)">
		<path fill="rgb(48,232,182)" stroke="none" transform="matrix(0.999 0 0 0.999 85.0688 25.68)" d="M3.13389 0.537983C2.79237 0.194629 2.31865 0 1.83594 0C1.35304 0 0.879318 0.194629 0.537983 0.537983C0.196465 0.879502 0 1.35157 0 1.83594C0 2.31884 0.196465 2.79256 0.537983 3.13389C0.879502 3.47523 1.35322 3.67188 1.83594 3.67188C2.31884 3.67188 2.79256 3.47541 3.13389 3.13389C3.47541 2.79237 3.67188 2.31865 3.67188 1.83594C3.67188 1.3512 3.47541 0.879502 3.13389 0.537983Z"/>
	</g>
</svg>
