<?xml version="1.0" encoding="utf-8" ?>
<svg xmlns="http://www.w3.org/2000/svg" xmlns:xlink="http://www.w3.org/1999/xlink" width="145" height="114">
	<defs>
		<clipPath id="clip_0">
			<rect x="-263.13281" y="-1092.6302" width="1438.7041" height="3876.5083" clip-rule="evenodd"/>
		</clipPath>
	</defs>
	<g clip-path="url(#clip_0)">
		<path fill="rgb(48,232,182)" stroke="none" transform="matrix(0.999045 -0.0104623 0.0104623 0.999045 0.629639 57.4384)" d="M9.99535 3.96302C9.77056 5.26705 9.10587 6.40749 8.17535 7.24918C9.16023 7.51666 9.86027 8.155 9.89705 8.18903C10.0341 8.31588 10.0341 8.52777 9.89711 8.65464C9.85049 8.69776 8.7396 9.71092 7.33331 9.71092C6.51696 9.71092 5.80021 9.36951 5.33333 9.07464L5.33333 10.6777C5.33333 10.8557 5.18409 11 5.00001 11C4.81593 11 4.66669 10.8557 4.66669 10.6777L4.66669 9.07464C4.19984 9.36951 3.48308 9.71092 2.66673 9.71092C1.26045 9.71092 0.149551 8.69776 0.102953 8.65464C-0.0340647 8.5278 -0.0341091 8.3159 0.102953 8.18903C0.139729 8.15498 0.839728 7.51664 1.82465 7.24918C0.892793 6.40626 0.229082 5.26499 0.00464512 3.96302C-0.0329092 3.7451 0.162884 3.5558 0.388232 3.59216C1.49128 3.7699 2.51225 4.23948 3.34524 4.94041C3.33762 4.81421 3.33338 4.68567 3.33338 4.55459C3.33338 2.17 4.66658 0.224055 4.72333 0.142393C4.85528 -0.0475073 5.14476 -0.0474213 5.27667 0.142393C5.33342 0.224055 6.66662 2.17 6.66662 4.55459C6.66662 4.68567 6.66238 4.81421 6.65476 4.94041C7.48775 4.23946 8.50872 3.7699 9.61177 3.59216C9.83714 3.55576 10.0329 3.74519 9.99535 3.96302ZM4.99997 7.86079C3.59792 5.71266 3.74927 3.24712 4.99997 0.964233C6.24052 3.22851 6.40959 5.70368 4.99997 7.86079ZM0.76682 4.32943C1.83289 4.60194 2.78804 5.18741 3.50033 6.01112C3.62563 6.55388 3.80687 7.02697 3.99247 7.41624C3.6207 7.26046 3.18572 7.14128 2.71642 7.13333C1.75065 6.42968 1.07141 5.44935 0.76682 4.32943ZM9.23314 4.32945C8.16704 4.60194 7.21187 5.18739 6.49963 6.01112C6.37432 6.55388 6.19308 7.02694 6.00749 7.41624C6.37925 7.26046 6.81426 7.14128 7.28353 7.13333C8.2493 6.42968 8.92854 5.44937 9.23314 4.32945ZM4.47087 8.42246C3.22631 7.55097 2.05449 7.58382 0.862483 8.42126C2.05751 9.25794 3.23031 9.29397 4.47087 8.42246ZM9.13745 8.42246C7.89289 7.55097 6.72106 7.58382 5.52906 8.42126C6.72409 9.25794 7.89689 9.29397 9.13745 8.42246Z" fill-rule="evenodd"/>
	</g>
	<defs>
		<clipPath id="clip_1">
			<rect x="-263.13281" y="-1092.6302" width="1438.7041" height="3876.5083" clip-rule="evenodd"/>
		</clipPath>
	</defs>
	<g clip-path="url(#clip_1)">
		<path fill="rgb(48,232,182)" stroke="none" transform="matrix(0.999045 -0.0104623 0.0104623 0.999045 19.6125 1.4888)" d="M9.99535 3.96302C9.77056 5.26705 9.10587 6.40749 8.17535 7.24918C9.16023 7.51666 9.86027 8.155 9.89705 8.18903C10.0341 8.31588 10.0341 8.52777 9.89711 8.65464C9.85049 8.69776 8.7396 9.71092 7.33331 9.71092C6.51696 9.71092 5.80021 9.36951 5.33333 9.07464L5.33333 10.6777C5.33333 10.8557 5.18409 11 5.00001 11C4.81593 11 4.66669 10.8557 4.66669 10.6777L4.66669 9.07464C4.19984 9.36951 3.48308 9.71092 2.66673 9.71092C1.26045 9.71092 0.149551 8.69776 0.102953 8.65464C-0.0340647 8.5278 -0.0341091 8.3159 0.102953 8.18903C0.139729 8.15498 0.839728 7.51664 1.82465 7.24918C0.892793 6.40626 0.229082 5.26499 0.00464512 3.96302C-0.0329092 3.7451 0.162884 3.5558 0.388232 3.59216C1.49128 3.7699 2.51225 4.23948 3.34524 4.94041C3.33762 4.81421 3.33338 4.68567 3.33338 4.55459C3.33338 2.17 4.66658 0.224055 4.72333 0.142393C4.85528 -0.0475073 5.14476 -0.0474213 5.27667 0.142393C5.33342 0.224055 6.66662 2.17 6.66662 4.55459C6.66662 4.68567 6.66238 4.81421 6.65476 4.94041C7.48775 4.23946 8.50872 3.7699 9.61177 3.59216C9.83714 3.55576 10.0329 3.74519 9.99535 3.96302ZM4.99997 7.86079C3.59792 5.71266 3.74927 3.24712 4.99997 0.964233C6.24052 3.22851 6.40959 5.70368 4.99997 7.86079ZM0.76682 4.32943C1.83289 4.60194 2.78804 5.18741 3.50033 6.01112C3.62563 6.55388 3.80687 7.02697 3.99247 7.41624C3.6207 7.26046 3.18572 7.14128 2.71642 7.13333C1.75065 6.42968 1.07141 5.44935 0.76682 4.32943ZM9.23314 4.32945C8.16704 4.60194 7.21187 5.18739 6.49963 6.01112C6.37432 6.55388 6.19308 7.02694 6.00749 7.41624C6.37925 7.26046 6.81426 7.14128 7.28353 7.13333C8.2493 6.42968 8.92854 5.44937 9.23314 4.32945ZM4.47087 8.42246C3.22631 7.55097 2.05449 7.58382 0.862483 8.42126C2.05751 9.25794 3.23031 9.29397 4.47087 8.42246ZM9.13745 8.42246C7.89289 7.55097 6.72106 7.58382 5.52906 8.42126C6.72409 9.25794 7.89689 9.29397 9.13745 8.42246Z" fill-rule="evenodd"/>
	</g>
	<defs>
		<clipPath id="clip_2">
			<rect x="-263.13281" y="-1092.6302" width="1438.7041" height="3876.5083" clip-rule="evenodd"/>
		</clipPath>
	</defs>
	<g clip-path="url(#clip_2)">
		<path fill="rgb(48,232,182)" stroke="none" transform="matrix(0.999045 -0.0104623 0.0104623 0.999045 99.5405 0.458374)" d="M6.99675 2.88219C6.83939 3.83058 6.37411 4.65999 5.72274 5.27213C6.41216 5.46666 6.90219 5.93091 6.92793 5.95566C7.02386 6.04791 7.02388 6.20202 6.92798 6.29428C6.89534 6.32564 6.11772 7.06249 5.13332 7.06249C4.56187 7.06249 4.06014 6.81419 3.73333 6.59974L3.73333 7.76563C3.73333 7.89506 3.62887 8 3.50001 8C3.37115 8 3.26668 7.89506 3.26668 7.76563L3.26668 6.59974C2.93989 6.81419 2.43816 7.06249 1.86671 7.06249C0.882313 7.06249 0.104686 6.32564 0.0720671 6.29428C-0.0238453 6.20203 -0.0238764 6.04792 0.0720671 5.95566C0.0978106 5.93089 0.58781 5.46664 1.27726 5.27213C0.624955 4.6591 0.160357 3.82908 0.00325158 2.88219C-0.0230364 2.72371 0.114019 2.58604 0.271763 2.61248C1.0439 2.74174 1.75857 3.08326 2.34167 3.59302C2.33634 3.50124 2.33336 3.40776 2.33336 3.31243C2.33336 1.57818 3.2666 0.162949 3.30633 0.103558C3.3987 -0.0345507 3.60133 -0.0344882 3.69367 0.103558C3.7334 0.162949 4.66664 1.57818 4.66664 3.31243C4.66664 3.40776 4.66366 3.50124 4.65833 3.59302C5.24142 3.08324 5.9561 2.74174 6.72824 2.61248C6.886 2.58601 7.02304 2.72377 6.99675 2.88219ZM3.49998 5.71694C2.51855 4.15466 2.62449 2.36154 3.49998 0.701261C4.36837 2.34801 4.48671 4.14813 3.49998 5.71694ZM0.536774 3.14868C1.28303 3.34687 1.95163 3.77266 2.45023 4.37172C2.53794 4.76646 2.66481 5.11052 2.79473 5.39363C2.53449 5.28033 2.23 5.19366 1.90149 5.18788C1.22546 4.67613 0.749987 3.96316 0.536774 3.14868ZM6.46319 3.14869C5.71693 3.34687 5.04831 3.77265 4.54974 4.37172C4.46202 4.76646 4.33516 5.1105 4.20524 5.39363C4.46548 5.28033 4.76998 5.19366 5.09847 5.18788C5.77451 4.67613 6.24998 3.96318 6.46319 3.14869ZM3.12961 6.12542C2.25842 5.49161 1.43814 5.5155 0.603738 6.12455C1.44026 6.73305 2.26122 6.75925 3.12961 6.12542ZM6.39621 6.12542C5.52502 5.49161 4.70474 5.5155 3.87034 6.12455C4.70686 6.73305 5.52782 6.75925 6.39621 6.12542Z" fill-rule="evenodd"/>
	</g>
	<defs>
		<clipPath id="clip_3">
			<rect x="-263.13281" y="-1092.6302" width="1438.7041" height="3876.5083" clip-rule="evenodd"/>
		</clipPath>
	</defs>
	<g clip-path="url(#clip_3)">
		<path fill="rgb(48,232,182)" stroke="none" transform="matrix(0.999045 -0.0104623 0.0104623 0.999045 137.506 16.444)" d="M6.99675 2.88219C6.83939 3.83058 6.37411 4.65999 5.72274 5.27213C6.41216 5.46666 6.90219 5.93091 6.92793 5.95566C7.02386 6.04791 7.02388 6.20202 6.92798 6.29428C6.89534 6.32564 6.11772 7.06249 5.13332 7.06249C4.56187 7.06249 4.06014 6.81419 3.73333 6.59974L3.73333 7.76563C3.73333 7.89506 3.62887 8 3.50001 8C3.37115 8 3.26668 7.89506 3.26668 7.76563L3.26668 6.59974C2.93989 6.81419 2.43816 7.06249 1.86671 7.06249C0.882313 7.06249 0.104686 6.32564 0.0720671 6.29428C-0.0238453 6.20203 -0.0238764 6.04792 0.0720671 5.95566C0.0978106 5.93089 0.58781 5.46664 1.27726 5.27213C0.624955 4.6591 0.160357 3.82908 0.00325158 2.88219C-0.0230364 2.72371 0.114019 2.58604 0.271763 2.61248C1.0439 2.74174 1.75857 3.08326 2.34167 3.59302C2.33634 3.50124 2.33336 3.40776 2.33336 3.31243C2.33336 1.57818 3.2666 0.162949 3.30633 0.103558C3.3987 -0.0345507 3.60133 -0.0344882 3.69367 0.103558C3.7334 0.162949 4.66664 1.57818 4.66664 3.31243C4.66664 3.40776 4.66366 3.50124 4.65833 3.59302C5.24142 3.08324 5.9561 2.74174 6.72824 2.61248C6.886 2.58601 7.02304 2.72377 6.99675 2.88219ZM3.49998 5.71694C2.51855 4.15466 2.62449 2.36154 3.49998 0.701261C4.36837 2.34801 4.48671 4.14813 3.49998 5.71694ZM0.536774 3.14868C1.28303 3.34687 1.95163 3.77266 2.45023 4.37172C2.53794 4.76646 2.66481 5.11052 2.79473 5.39363C2.53449 5.28033 2.23 5.19366 1.90149 5.18788C1.22546 4.67613 0.749987 3.96316 0.536774 3.14868ZM6.46319 3.14869C5.71693 3.34687 5.04831 3.77265 4.54974 4.37172C4.46202 4.76646 4.33516 5.1105 4.20524 5.39363C4.46548 5.28033 4.76998 5.19366 5.09847 5.18788C5.77451 4.67613 6.24998 3.96318 6.46319 3.14869ZM3.12961 6.12542C2.25842 5.49161 1.43814 5.5155 0.603738 6.12455C1.44026 6.73305 2.26122 6.75925 3.12961 6.12542ZM6.39621 6.12542C5.52502 5.49161 4.70474 5.5155 3.87034 6.12455C4.70686 6.73305 5.52782 6.75925 6.39621 6.12542Z" fill-rule="evenodd"/>
	</g>
	<defs>
		<clipPath id="clip_4">
			<rect x="-263.13281" y="-1092.6302" width="1438.7041" height="3876.5083" clip-rule="evenodd"/>
		</clipPath>
	</defs>
	<g clip-path="url(#clip_4)">
		<path fill="rgb(48,232,182)" stroke="none" transform="matrix(0.999045 -0.0104623 0.0104623 0.999045 133.51 2.4985)" d="M10.9949 4.32329C10.7476 5.74588 10.0165 6.98998 8.99288 7.90819C10.0763 8.19999 10.8463 8.89636 10.8868 8.93349C11.0375 9.07186 11.0375 9.30303 10.8868 9.44143C10.8355 9.48846 9.61356 10.5937 8.06664 10.5937C7.16866 10.5937 6.38023 10.2213 5.86667 9.8996L5.86667 11.6484C5.86667 11.8426 5.7025 12 5.50001 12C5.29752 12 5.13336 11.8426 5.13336 11.6484L5.13336 9.8996C4.61982 10.2213 3.83139 10.5937 2.93341 10.5937C1.38649 10.5937 0.164507 9.48846 0.113248 9.44143C-0.0374712 9.30305 -0.03752 9.07189 0.113248 8.93349C0.153702 8.89634 0.923701 8.19997 2.00712 7.90819C0.982072 6.98865 0.25199 5.74363 0.00510963 4.32329C-0.0362001 4.08557 0.179173 3.87906 0.427055 3.91872C1.64041 4.11261 2.76347 4.62489 3.67977 5.38953C3.67138 5.25186 3.66672 5.11164 3.66672 4.96864C3.66672 2.36727 5.13324 0.244423 5.19566 0.155338C5.34081 -0.0518261 5.65924 -0.0517323 5.80433 0.155338C5.86676 0.244423 7.33328 2.36727 7.33328 4.96864C7.33328 5.11164 7.32861 5.25186 7.32023 5.38953C8.23652 4.62486 9.35959 4.11261 10.5729 3.91872C10.8209 3.87901 11.0362 4.08566 10.9949 4.32329ZM5.49996 8.57541C3.95772 6.23199 4.1242 3.54231 5.49996 1.05189C6.86458 3.52201 7.05054 6.2222 5.49996 8.57541ZM0.843502 4.72302C2.01618 5.0203 3.06684 5.65899 3.85036 6.55759C3.9882 7.14969 4.18756 7.66578 4.39171 8.09044C3.98277 7.9205 3.50429 7.79049 2.98806 7.78182C1.92572 7.0142 1.17855 5.94474 0.843502 4.72302ZM10.1564 4.72304C8.98374 5.0203 7.93306 5.65897 7.14959 6.55759C7.01175 7.14969 6.81239 7.66576 6.60824 8.09044C7.01718 7.9205 7.49569 7.79049 8.01189 7.78182C9.07423 7.01419 9.8214 5.94477 10.1564 4.72304ZM4.91796 9.18814C3.54895 8.23742 2.25994 8.27326 0.948731 9.18682C2.26326 10.0996 3.55335 10.1389 4.91796 9.18814ZM10.0512 9.18814C8.68218 8.23742 7.39317 8.27326 6.08197 9.18682C7.39649 10.0996 8.68658 10.1389 10.0512 9.18814Z" fill-rule="evenodd"/>
	</g>
	<defs>
		<clipPath id="clip_5">
			<rect x="-263.13281" y="-1092.6302" width="1438.7041" height="3876.5083" clip-rule="evenodd"/>
		</clipPath>
	</defs>
	<g clip-path="url(#clip_5)">
		<path fill="rgb(48,232,182)" stroke="none" transform="matrix(0.999045 -0.0104623 0.0104623 0.999045 89.5496 4.45477)" d="M6.99675 2.88219C6.83939 3.83058 6.37411 4.65999 5.72274 5.27213C6.41216 5.46666 6.90219 5.93091 6.92793 5.95566C7.02386 6.04791 7.02388 6.20202 6.92798 6.29428C6.89534 6.32564 6.11772 7.06249 5.13332 7.06249C4.56187 7.06249 4.06014 6.81419 3.73333 6.59974L3.73333 7.76563C3.73333 7.89506 3.62887 8 3.50001 8C3.37115 8 3.26668 7.89506 3.26668 7.76563L3.26668 6.59974C2.93989 6.81419 2.43816 7.06249 1.86671 7.06249C0.882313 7.06249 0.104686 6.32564 0.0720671 6.29428C-0.0238453 6.20203 -0.0238764 6.04792 0.0720671 5.95566C0.0978106 5.93089 0.58781 5.46664 1.27726 5.27213C0.624955 4.6591 0.160357 3.82908 0.00325158 2.88219C-0.0230364 2.72371 0.114019 2.58604 0.271763 2.61248C1.0439 2.74174 1.75857 3.08326 2.34167 3.59302C2.33634 3.50124 2.33336 3.40776 2.33336 3.31243C2.33336 1.57818 3.2666 0.162949 3.30633 0.103558C3.3987 -0.0345507 3.60133 -0.0344882 3.69367 0.103558C3.7334 0.162949 4.66664 1.57818 4.66664 3.31243C4.66664 3.40776 4.66366 3.50124 4.65833 3.59302C5.24142 3.08324 5.9561 2.74174 6.72824 2.61248C6.886 2.58601 7.02304 2.72377 6.99675 2.88219ZM3.49998 5.71694C2.51855 4.15466 2.62449 2.36154 3.49998 0.701261C4.36837 2.34801 4.48671 4.14813 3.49998 5.71694ZM0.536774 3.14868C1.28303 3.34687 1.95163 3.77266 2.45023 4.37172C2.53794 4.76646 2.66481 5.11052 2.79473 5.39363C2.53449 5.28033 2.23 5.19366 1.90149 5.18788C1.22546 4.67613 0.749987 3.96316 0.536774 3.14868ZM6.46319 3.14869C5.71693 3.34687 5.04831 3.77265 4.54974 4.37172C4.46202 4.76646 4.33516 5.1105 4.20524 5.39363C4.46548 5.28033 4.76998 5.19366 5.09847 5.18788C5.77451 4.67613 6.24998 3.96318 6.46319 3.14869ZM3.12961 6.12542C2.25842 5.49161 1.43814 5.5155 0.603738 6.12455C1.44026 6.73305 2.26122 6.75925 3.12961 6.12542ZM6.39621 6.12542C5.52502 5.49161 4.70474 5.5155 3.87034 6.12455C4.70686 6.73305 5.52782 6.75925 6.39621 6.12542Z" fill-rule="evenodd"/>
	</g>
	<defs>
		<clipPath id="clip_6">
			<rect x="-263.13281" y="-1092.6302" width="1438.7041" height="3876.5083" clip-rule="evenodd"/>
		</clipPath>
	</defs>
	<g clip-path="url(#clip_6)">
		<path fill="rgb(48,232,182)" stroke="none" transform="matrix(0.999045 -0.0104623 0.0104623 0.999045 32.6008 4.52808)" d="M13.9935 5.40412C13.6788 7.18235 12.7482 8.73748 11.4455 9.88524C12.8243 10.25 13.8044 11.1205 13.8559 11.1669C14.0477 11.3398 14.0478 11.6288 13.856 11.8018C13.7907 11.8606 12.2354 13.2422 10.2666 13.2422C9.12374 13.2422 8.12029 12.7766 7.46667 12.3745L7.46667 14.5605C7.46667 14.8032 7.25773 15 7.00002 15C6.7423 15 6.53336 14.8032 6.53336 14.5605L6.53336 12.3745C5.87977 12.7766 4.87632 13.2422 3.73343 13.2422C1.76463 13.2422 0.209372 11.8606 0.144134 11.8018C-0.0476906 11.6288 -0.0477528 11.3399 0.144134 11.1669C0.195621 11.1204 1.17562 10.25 2.55451 9.88524C1.24991 8.73581 0.320715 7.17953 0.00650317 5.40412C-0.0460728 5.10696 0.228038 4.84882 0.543525 4.89839C2.0878 5.14077 3.51715 5.78111 4.68334 6.73692C4.67267 6.56483 4.66673 6.38954 4.66673 6.2108C4.66673 2.95909 6.53321 0.305529 6.61266 0.194172C6.7974 -0.0647826 7.20267 -0.0646654 7.38734 0.194172C7.46679 0.305529 9.33327 2.95909 9.33327 6.2108C9.33327 6.38954 9.32733 6.56483 9.31666 6.73692C10.4828 5.78108 11.9122 5.14077 13.4565 4.89839C13.772 4.84876 14.0461 5.10707 13.9935 5.40412ZM6.99995 10.7193C5.03709 7.78999 5.24898 4.42789 6.99995 1.31486C8.73673 4.40252 8.97342 7.77774 6.99995 10.7193ZM1.07355 5.90377C2.56605 6.27537 3.90326 7.07374 4.90046 8.19698C5.07589 8.93711 5.32962 9.58222 5.58945 10.1131C5.06898 9.90062 4.46 9.73811 3.80299 9.72727C2.45091 8.76774 1.49997 7.43093 1.07355 5.90377ZM12.9264 5.9038C11.4339 6.27537 10.0966 7.07371 9.09948 8.19698C8.92405 8.93711 8.67031 9.5822 8.41048 10.1131C8.93095 9.90062 9.53997 9.73811 10.1969 9.72727C11.549 8.76774 12.5 7.43096 12.9264 5.9038ZM6.25922 11.4852C4.51684 10.2968 2.87628 10.3416 1.20748 11.4835C2.88051 12.6245 4.52244 12.6736 6.25922 11.4852ZM12.7924 11.4852C11.05 10.2968 9.40949 10.3416 7.74068 11.4835C9.41372 12.6245 11.0556 12.6736 12.7924 11.4852Z" fill-rule="evenodd"/>
	</g>
	<defs>
		<clipPath id="clip_7">
			<rect x="-263.13281" y="-1092.6302" width="1438.7041" height="3876.5083" clip-rule="evenodd"/>
		</clipPath>
	</defs>
	<g clip-path="url(#clip_7)">
		<path fill="rgb(48,232,182)" stroke="none" transform="matrix(0.999045 -0.0104623 0.0104623 0.999045 129.514 81.4588)" d="M13.9935 5.40412C13.6788 7.18235 12.7482 8.73748 11.4455 9.88524C12.8243 10.25 13.8044 11.1205 13.8559 11.1669C14.0477 11.3398 14.0478 11.6288 13.856 11.8018C13.7907 11.8606 12.2354 13.2422 10.2666 13.2422C9.12374 13.2422 8.12029 12.7766 7.46667 12.3745L7.46667 14.5605C7.46667 14.8032 7.25773 15 7.00002 15C6.7423 15 6.53336 14.8032 6.53336 14.5605L6.53336 12.3745C5.87977 12.7766 4.87632 13.2422 3.73343 13.2422C1.76463 13.2422 0.209372 11.8606 0.144134 11.8018C-0.0476906 11.6288 -0.0477528 11.3399 0.144134 11.1669C0.195621 11.1204 1.17562 10.25 2.55451 9.88524C1.24991 8.73581 0.320715 7.17953 0.00650317 5.40412C-0.0460728 5.10696 0.228038 4.84882 0.543525 4.89839C2.0878 5.14077 3.51715 5.78111 4.68334 6.73692C4.67267 6.56483 4.66673 6.38954 4.66673 6.2108C4.66673 2.95909 6.53321 0.305529 6.61266 0.194172C6.7974 -0.0647826 7.20267 -0.0646654 7.38734 0.194172C7.46679 0.305529 9.33327 2.95909 9.33327 6.2108C9.33327 6.38954 9.32733 6.56483 9.31666 6.73692C10.4828 5.78108 11.9122 5.14077 13.4565 4.89839C13.772 4.84876 14.0461 5.10707 13.9935 5.40412ZM6.99995 10.7193C5.03709 7.78999 5.24898 4.42789 6.99995 1.31486C8.73673 4.40252 8.97342 7.77774 6.99995 10.7193ZM1.07355 5.90377C2.56605 6.27537 3.90326 7.07374 4.90046 8.19698C5.07589 8.93711 5.32962 9.58222 5.58945 10.1131C5.06898 9.90062 4.46 9.73811 3.80299 9.72727C2.45091 8.76774 1.49997 7.43093 1.07355 5.90377ZM12.9264 5.9038C11.4339 6.27537 10.0966 7.07371 9.09948 8.19698C8.92405 8.93711 8.67031 9.5822 8.41048 10.1131C8.93095 9.90062 9.53997 9.73811 10.1969 9.72727C11.549 8.76774 12.5 7.43096 12.9264 5.9038ZM6.25922 11.4852C4.51684 10.2968 2.87628 10.3416 1.20748 11.4835C2.88051 12.6245 4.52244 12.6736 6.25922 11.4852ZM12.7924 11.4852C11.05 10.2968 9.40949 10.3416 7.74068 11.4835C9.41372 12.6245 11.0556 12.6736 12.7924 11.4852Z" fill-rule="evenodd"/>
	</g>
	<defs>
		<clipPath id="clip_8">
			<rect x="-263.13281" y="-1092.6302" width="1438.7041" height="3876.5083" clip-rule="evenodd"/>
		</clipPath>
	</defs>
	<g clip-path="url(#clip_8)">
		<path fill="rgb(48,232,182)" stroke="none" transform="matrix(0.9991 0 0 0.9991 32.6008 50.6732)" d="M63.3106 26.8836C62.3002 26.8836 61.4808 27.7137 61.4808 28.7377L61.4808 41.5306C61.4808 46.6422 57.3766 50.8008 52.3319 50.8008L32.576 50.8008C31.5658 50.8008 30.747 51.6301 30.7462 52.6535L30.7437 56.3397L26.3764 51.9147C26.0937 51.2571 25.4466 50.8008 24.6983 50.8008L12.8085 50.8008C7.76378 50.8008 3.65957 46.6422 3.65957 41.5306L3.65957 12.9783C3.65957 7.86671 7.76378 3.70809 12.8085 3.70809L31.2893 3.70809C32.2997 3.70809 33.1191 2.87803 33.1191 1.85404C33.1191 0.830055 32.2997 0 31.2893 0L12.8085 0C5.74589 0 0 5.82207 0 12.9783L0 41.5306C0 48.6868 5.74589 54.5089 12.8085 54.5089L23.7612 54.5089L31.2763 62.1236C31.6264 62.4783 32.0942 62.6667 32.5705 62.6667C32.806 62.6667 33.0437 62.6205 33.2697 62.5258C33.9535 62.2391 34.3994 61.5635 34.4 60.8139L34.4044 54.5089L52.3319 54.5089C59.3945 54.5089 65.1404 48.6868 65.1404 41.5306L65.1404 28.7377C65.1404 27.7137 64.321 26.8836 63.3106 26.8836Z"/>
	</g>
	<defs>
		<clipPath id="clip_9">
			<rect x="-263.13281" y="-1092.6302" width="1438.7041" height="3876.5083" clip-rule="evenodd"/>
		</clipPath>
	</defs>
	<g clip-path="url(#clip_9)">
		<path fill="rgb(48,232,182)" stroke="none" transform="matrix(0.9991 0 0 0.9991 68.8491 19.3681)" d="M26.5483 0L31.1712 0C45.8098 0 57.7193 12.0296 57.7193 26.8159C57.7193 31.0991 56.7488 35.1929 54.8344 38.9836C53.1489 42.3212 50.7471 45.3087 47.8559 47.6738L47.8559 58.348C47.8559 59.0941 47.4109 59.7668 46.7285 60.0524C46.5026 60.147 46.2651 60.193 46.0297 60.193C45.5544 60.193 45.0875 60.0055 44.7381 59.653L37.9092 52.7591C35.7173 53.3384 33.4558 53.6315 31.171 53.6315L26.5481 53.6315C11.9095 53.6315 0 41.6022 0 26.8159C0 12.0296 11.9095 0 26.5483 0ZM44.2027 46.7742C44.2027 46.1947 44.4723 45.6489 44.9302 45.3004C50.7363 40.8836 54.0661 34.1461 54.0661 26.8159C54.0661 14.0642 43.7956 3.68994 31.1711 3.68994L26.5483 3.68994C13.9238 3.68994 3.65308 14.0642 3.65308 26.8159C3.65308 39.5675 13.9236 49.9418 26.5483 49.9418L31.1711 49.9418C33.4655 49.9418 35.7311 49.5997 37.9053 48.9249C38.0817 48.8701 38.2626 48.8433 38.4416 48.8433C38.9187 48.8433 39.3852 49.0324 39.7329 49.3833L44.2027 53.8957L44.2027 46.7742Z" fill-rule="evenodd"/>
	</g>
	<defs>
		<clipPath id="clip_10">
			<rect x="-263.13281" y="-1092.6302" width="1438.7041" height="3876.5083" clip-rule="evenodd"/>
		</clipPath>
	</defs>
	<g clip-path="url(#clip_10)">
		<path fill="rgb(48,232,182)" stroke="none" transform="matrix(0.9991 0 0 0.9991 90.2683 32.5492)" d="M15.6474 7.5077C15.3804 3.51425 12.258 0.295068 8.3844 0.0198084C6.18857 -0.135657 4.09303 0.627935 2.48908 2.17171C0.907156 3.69413 0 5.84622 0 8.07634C0 9.12988 0.828523 9.98389 1.85021 9.98389C2.87189 9.98389 3.70041 9.12988 3.70041 8.07634C3.70041 6.8824 4.16704 5.77584 5.01406 4.96074C5.86035 4.14641 6.9664 3.74334 8.13018 3.82613C10.1706 3.9711 11.8152 5.66672 11.9559 7.77018C12.0979 9.89461 10.746 11.772 8.74149 12.2344C7.11738 12.6091 5.9832 14.0641 5.9832 15.7727L5.9832 20.3556C5.9832 21.4091 6.81172 22.2632 7.83341 22.2632C8.85528 22.2632 9.68361 21.4091 9.68343 20.3556L9.68343 15.9251C13.4116 14.9965 15.9129 11.4794 15.6474 7.5077Z"/>
	</g>
	<defs>
		<clipPath id="clip_11">
			<rect x="-263.13281" y="-1092.6302" width="1438.7041" height="3876.5083" clip-rule="evenodd"/>
		</clipPath>
	</defs>
	<g clip-path="url(#clip_11)">
		<path fill="rgb(48,232,182)" stroke="none" transform="matrix(0.9991 0 0 0.9991 96.0349 57.2638)" d="M2.81505 0.483193C2.50832 0.176456 2.08284 0 1.64912 0C1.2154 0 0.78993 0.176456 0.483193 0.483193C0.176456 0.78993 0 1.2154 0 1.64912C0 2.08449 0.176621 2.50996 0.483193 2.8167C0.78993 3.12344 1.2154 3.29825 1.64912 3.29825C2.08284 3.29825 2.50832 3.12344 2.81505 2.8167C3.12179 2.50832 3.29825 2.08449 3.29825 1.64912C3.29825 1.2154 3.12162 0.78993 2.81505 0.483193Z"/>
	</g>
	<defs>
		<clipPath id="clip_12">
			<rect x="-263.13281" y="-1092.6302" width="1438.7041" height="3876.5083" clip-rule="evenodd"/>
		</clipPath>
	</defs>
	<g clip-path="url(#clip_12)">
		<path fill="rgb(48,232,182)" stroke="none" transform="matrix(0.9991 0 0 0.9991 41.6628 76.2116)" d="M40.2322 0L1.82046 0C0.815202 0 0 0.738312 0 1.64912C0 2.55993 0.815202 3.29825 1.82046 3.29825L40.2322 3.29825C41.2376 3.29825 42.0526 2.55993 42.0526 1.64912C42.0526 0.738312 41.2374 0 40.2322 0Z"/>
	</g>
	<defs>
		<clipPath id="clip_13">
			<rect x="-263.13281" y="-1092.6302" width="1438.7041" height="3876.5083" clip-rule="evenodd"/>
		</clipPath>
	</defs>
	<g clip-path="url(#clip_13)">
		<path fill="rgb(48,232,182)" stroke="none" transform="matrix(0.9991 0 0 0.9991 81.2063 86.9213)" d="M2.81489 0.483193C2.50832 0.176456 2.08284 0 1.64912 0C1.2154 0 0.78993 0.176456 0.483193 0.483193C0.176291 0.78993 0 1.2154 0 1.64912C0 2.08284 0.176456 2.50832 0.483193 2.81505C0.78993 3.12179 1.2154 3.29825 1.64912 3.29825C2.08284 3.29825 2.50832 3.12179 2.81489 2.81505C3.12179 2.50832 3.29825 2.08449 3.29825 1.64912C3.29825 1.2154 3.12162 0.78993 2.81489 0.483193Z"/>
	</g>
	<defs>
		<clipPath id="clip_14">
			<rect x="-263.13281" y="-1092.6302" width="1438.7041" height="3876.5083" clip-rule="evenodd"/>
		</clipPath>
	</defs>
	<g clip-path="url(#clip_14)">
		<path fill="rgb(48,232,182)" stroke="none" transform="matrix(0.9991 0 0 0.9991 41.6628 86.9213)" d="M32.8247 0L1.80686 0C0.809113 0 0 0.738312 0 1.64912C0 2.55993 0.809113 3.29825 1.80686 3.29825L32.8247 3.29825C33.8226 3.29825 34.6316 2.55993 34.6316 1.64912C34.6316 0.738312 33.8225 0 32.8247 0Z"/>
	</g>
	<defs>
		<clipPath id="clip_15">
			<rect x="-263.13281" y="-1092.6302" width="1438.7041" height="3876.5083" clip-rule="evenodd"/>
		</clipPath>
	</defs>
	<g clip-path="url(#clip_15)">
		<path fill="rgb(48,232,182)" stroke="none" transform="matrix(0.9991 0 0 0.9991 41.6628 66.3258)" d="M28.6709 0L1.83788 0C0.823002 0 0 0.738312 0 1.64912C0 2.55993 0.823002 3.29825 1.83788 3.29825L28.6709 3.29825C29.686 3.29825 30.5088 2.55993 30.5088 1.64912C30.5088 0.738312 29.6858 0 28.6709 0Z"/>
	</g>
</svg>
