<?xml version="1.0" encoding="utf-8" ?>
<svg xmlns="http://www.w3.org/2000/svg" xmlns:xlink="http://www.w3.org/1999/xlink" width="152" height="118">
	<defs>
		<clipPath id="clip_0">
			<rect x="-1011.9189" y="-1079.063" width="1427.76" height="3847.02" clip-rule="evenodd"/>
		</clipPath>
	</defs>
	<g clip-path="url(#clip_0)">
		<path fill="rgb(48,232,182)" stroke="none" transform="matrix(0.991446 -0.0103827 0.0103827 0.991446 1.39404 62.2572)" d="M9.99535 3.96302C9.77056 5.26705 9.10587 6.40749 8.17535 7.24918C9.16023 7.51666 9.86027 8.155 9.89705 8.18903C10.0341 8.31588 10.0341 8.52777 9.89711 8.65464C9.85049 8.69776 8.7396 9.71092 7.33331 9.71092C6.51696 9.71092 5.80021 9.36951 5.33333 9.07464L5.33333 10.6777C5.33333 10.8557 5.18409 11 5.00001 11C4.81593 11 4.66669 10.8557 4.66669 10.6777L4.66669 9.07464C4.19984 9.36951 3.48308 9.71092 2.66673 9.71092C1.26045 9.71092 0.149551 8.69776 0.102953 8.65464C-0.0340647 8.5278 -0.0341091 8.3159 0.102953 8.18903C0.139729 8.15498 0.839728 7.51664 1.82465 7.24918C0.892793 6.40626 0.229082 5.26499 0.00464512 3.96302C-0.0329092 3.7451 0.162884 3.5558 0.388232 3.59216C1.49128 3.7699 2.51225 4.23948 3.34524 4.94041C3.33762 4.81421 3.33338 4.68567 3.33338 4.55459C3.33338 2.17 4.66658 0.224055 4.72333 0.142393C4.85528 -0.0475073 5.14476 -0.0474213 5.27667 0.142393C5.33342 0.224055 6.66662 2.17 6.66662 4.55459C6.66662 4.68567 6.66238 4.81421 6.65476 4.94041C7.48775 4.23946 8.50872 3.7699 9.61177 3.59216C9.83714 3.55576 10.0329 3.74519 9.99535 3.96302ZM4.99997 7.86079C3.59792 5.71266 3.74927 3.24712 4.99997 0.964233C6.24052 3.22851 6.40959 5.70368 4.99997 7.86079ZM0.76682 4.32943C1.83289 4.60194 2.78804 5.18741 3.50033 6.01112C3.62563 6.55388 3.80687 7.02697 3.99247 7.41624C3.6207 7.26046 3.18572 7.14128 2.71642 7.13333C1.75065 6.42968 1.07141 5.44935 0.76682 4.32943ZM9.23314 4.32945C8.16704 4.60194 7.21187 5.18739 6.49963 6.01112C6.37432 6.55388 6.19308 7.02694 6.00749 7.41624C6.37925 7.26046 6.81426 7.14128 7.28353 7.13333C8.2493 6.42968 8.92854 5.44937 9.23314 4.32945ZM4.47087 8.42246C3.22631 7.55097 2.05449 7.58382 0.862483 8.42126C2.05751 9.25794 3.23031 9.29397 4.47087 8.42246ZM9.13745 8.42246C7.89289 7.55097 6.72106 7.58382 5.52906 8.42126C6.72409 9.25794 7.89689 9.29397 9.13745 8.42246Z" fill-rule="evenodd"/>
	</g>
	<defs>
		<clipPath id="clip_1">
			<rect x="-1011.9189" y="-1079.063" width="1427.76" height="3847.02" clip-rule="evenodd"/>
		</clipPath>
	</defs>
	<g clip-path="url(#clip_1)">
		<path fill="rgb(48,232,182)" stroke="none" transform="matrix(0.991446 -0.0103827 0.0103827 0.991446 20.2324 6.73322)" d="M9.99535 3.96302C9.77056 5.26705 9.10587 6.40749 8.17535 7.24918C9.16023 7.51666 9.86027 8.155 9.89705 8.18903C10.0341 8.31588 10.0341 8.52777 9.89711 8.65464C9.85049 8.69776 8.7396 9.71092 7.33331 9.71092C6.51696 9.71092 5.80021 9.36951 5.33333 9.07464L5.33333 10.6777C5.33333 10.8557 5.18409 11 5.00001 11C4.81593 11 4.66669 10.8557 4.66669 10.6777L4.66669 9.07464C4.19984 9.36951 3.48308 9.71092 2.66673 9.71092C1.26045 9.71092 0.149551 8.69776 0.102953 8.65464C-0.0340647 8.5278 -0.0341091 8.3159 0.102953 8.18903C0.139729 8.15498 0.839728 7.51664 1.82465 7.24918C0.892793 6.40626 0.229082 5.26499 0.00464512 3.96302C-0.0329092 3.7451 0.162884 3.5558 0.388232 3.59216C1.49128 3.7699 2.51225 4.23948 3.34524 4.94041C3.33762 4.81421 3.33338 4.68567 3.33338 4.55459C3.33338 2.17 4.66658 0.224055 4.72333 0.142393C4.85528 -0.0475073 5.14476 -0.0474213 5.27667 0.142393C5.33342 0.224055 6.66662 2.17 6.66662 4.55459C6.66662 4.68567 6.66238 4.81421 6.65476 4.94041C7.48775 4.23946 8.50872 3.7699 9.61177 3.59216C9.83714 3.55576 10.0329 3.74519 9.99535 3.96302ZM4.99997 7.86079C3.59792 5.71266 3.74927 3.24712 4.99997 0.964233C6.24052 3.22851 6.40959 5.70368 4.99997 7.86079ZM0.76682 4.32943C1.83289 4.60194 2.78804 5.18741 3.50033 6.01112C3.62563 6.55388 3.80687 7.02697 3.99247 7.41624C3.6207 7.26046 3.18572 7.14128 2.71642 7.13333C1.75065 6.42968 1.07141 5.44935 0.76682 4.32943ZM9.23314 4.32945C8.16704 4.60194 7.21187 5.18739 6.49963 6.01112C6.37432 6.55388 6.19308 7.02694 6.00749 7.41624C6.37925 7.26046 6.81426 7.14128 7.28353 7.13333C8.2493 6.42968 8.92854 5.44937 9.23314 4.32945ZM4.47087 8.42246C3.22631 7.55097 2.05449 7.58382 0.862483 8.42126C2.05751 9.25794 3.23031 9.29397 4.47087 8.42246ZM9.13745 8.42246C7.89289 7.55097 6.72106 7.58382 5.52906 8.42126C6.72409 9.25794 7.89689 9.29397 9.13745 8.42246Z" fill-rule="evenodd"/>
	</g>
	<defs>
		<clipPath id="clip_2">
			<rect x="-1011.9189" y="-1079.063" width="1427.76" height="3847.02" clip-rule="evenodd"/>
		</clipPath>
	</defs>
	<g clip-path="url(#clip_2)">
		<path fill="rgb(48,232,182)" stroke="none" transform="matrix(0.991446 -0.0103827 0.0103827 0.991446 99.5525 11.6596)" d="M6.99675 2.88219C6.83939 3.83058 6.37411 4.65999 5.72274 5.27213C6.41216 5.46666 6.90219 5.93091 6.92793 5.95566C7.02386 6.04791 7.02388 6.20202 6.92798 6.29428C6.89534 6.32564 6.11772 7.06249 5.13332 7.06249C4.56187 7.06249 4.06014 6.81419 3.73333 6.59974L3.73333 7.76563C3.73333 7.89506 3.62887 8 3.50001 8C3.37115 8 3.26668 7.89506 3.26668 7.76563L3.26668 6.59974C2.93989 6.81419 2.43816 7.06249 1.86671 7.06249C0.882313 7.06249 0.104686 6.32564 0.0720671 6.29428C-0.0238453 6.20203 -0.0238764 6.04792 0.0720671 5.95566C0.0978106 5.93089 0.58781 5.46664 1.27726 5.27213C0.624955 4.6591 0.160357 3.82908 0.00325158 2.88219C-0.0230364 2.72371 0.114019 2.58604 0.271763 2.61248C1.0439 2.74174 1.75857 3.08326 2.34167 3.59302C2.33634 3.50124 2.33336 3.40776 2.33336 3.31243C2.33336 1.57818 3.2666 0.162949 3.30633 0.103558C3.3987 -0.0345507 3.60133 -0.0344882 3.69367 0.103558C3.7334 0.162949 4.66664 1.57818 4.66664 3.31243C4.66664 3.40776 4.66366 3.50124 4.65833 3.59302C5.24142 3.08324 5.9561 2.74174 6.72824 2.61248C6.886 2.58601 7.02304 2.72377 6.99675 2.88219ZM3.49998 5.71694C2.51855 4.15466 2.62449 2.36154 3.49998 0.701261C4.36837 2.34801 4.48671 4.14813 3.49998 5.71694ZM0.536774 3.14868C1.28303 3.34687 1.95163 3.77266 2.45023 4.37172C2.53794 4.76646 2.66481 5.11052 2.79473 5.39363C2.53449 5.28033 2.23 5.19366 1.90149 5.18788C1.22546 4.67613 0.749987 3.96316 0.536774 3.14868ZM6.46319 3.14869C5.71693 3.34687 5.04831 3.77265 4.54974 4.37172C4.46202 4.76646 4.33516 5.1105 4.20524 5.39363C4.46548 5.28033 4.76998 5.19366 5.09847 5.18788C5.77451 4.67613 6.24998 3.96318 6.46319 3.14869ZM3.12961 6.12542C2.25842 5.49161 1.43814 5.5155 0.603738 6.12455C1.44026 6.73305 2.26122 6.75925 3.12961 6.12542ZM6.39621 6.12542C5.52502 5.49161 4.70474 5.5155 3.87034 6.12455C4.70686 6.73305 5.52782 6.75925 6.39621 6.12542Z" fill-rule="evenodd"/>
	</g>
	<defs>
		<clipPath id="clip_3">
			<rect x="-1011.9189" y="-1079.063" width="1427.76" height="3847.02" clip-rule="evenodd"/>
		</clipPath>
	</defs>
	<g clip-path="url(#clip_3)">
		<path fill="rgb(48,232,182)" stroke="none" transform="matrix(0.991446 -0.0103827 0.0103827 0.991446 144.17 21.5746)" d="M6.99675 2.88219C6.83939 3.83058 6.37411 4.65999 5.72274 5.27213C6.41216 5.46666 6.90219 5.93091 6.92793 5.95566C7.02386 6.04791 7.02388 6.20202 6.92798 6.29428C6.89534 6.32564 6.11772 7.06249 5.13332 7.06249C4.56187 7.06249 4.06014 6.81419 3.73333 6.59974L3.73333 7.76563C3.73333 7.89506 3.62887 8 3.50001 8C3.37115 8 3.26668 7.89506 3.26668 7.76563L3.26668 6.59974C2.93989 6.81419 2.43816 7.06249 1.86671 7.06249C0.882313 7.06249 0.104686 6.32564 0.0720671 6.29428C-0.0238453 6.20203 -0.0238764 6.04792 0.0720671 5.95566C0.0978106 5.93089 0.58781 5.46664 1.27726 5.27213C0.624955 4.6591 0.160357 3.82908 0.00325158 2.88219C-0.0230364 2.72371 0.114019 2.58604 0.271763 2.61248C1.0439 2.74174 1.75857 3.08326 2.34167 3.59302C2.33634 3.50124 2.33336 3.40776 2.33336 3.31243C2.33336 1.57818 3.2666 0.162949 3.30633 0.103558C3.3987 -0.0345507 3.60133 -0.0344882 3.69367 0.103558C3.7334 0.162949 4.66664 1.57818 4.66664 3.31243C4.66664 3.40776 4.66366 3.50124 4.65833 3.59302C5.24142 3.08324 5.9561 2.74174 6.72824 2.61248C6.886 2.58601 7.02304 2.72377 6.99675 2.88219ZM3.49998 5.71694C2.51855 4.15466 2.62449 2.36154 3.49998 0.701261C4.36837 2.34801 4.48671 4.14813 3.49998 5.71694ZM0.536774 3.14868C1.28303 3.34687 1.95163 3.77266 2.45023 4.37172C2.53794 4.76646 2.66481 5.11052 2.79473 5.39363C2.53449 5.28033 2.23 5.19366 1.90149 5.18788C1.22546 4.67613 0.749987 3.96316 0.536774 3.14868ZM6.46319 3.14869C5.71693 3.34687 5.04831 3.77265 4.54974 4.37172C4.46202 4.76646 4.33516 5.1105 4.20524 5.39363C4.46548 5.28033 4.76998 5.19366 5.09847 5.18788C5.77451 4.67613 6.24998 3.96318 6.46319 3.14869ZM3.12961 6.12542C2.25842 5.49161 1.43814 5.5155 0.603738 6.12455C1.44026 6.73305 2.26122 6.75925 3.12961 6.12542ZM6.39621 6.12542C5.52502 5.49161 4.70474 5.5155 3.87034 6.12455C4.70686 6.73305 5.52782 6.75925 6.39621 6.12542Z" fill-rule="evenodd"/>
	</g>
	<defs>
		<clipPath id="clip_4">
			<rect x="-1011.9189" y="-1079.063" width="1427.76" height="3847.02" clip-rule="evenodd"/>
		</clipPath>
	</defs>
	<g clip-path="url(#clip_4)">
		<path fill="rgb(48,232,182)" stroke="none" transform="matrix(0.991446 -0.0103827 0.0103827 0.991446 102.527 0.794739)" d="M10.9949 4.32329C10.7476 5.74588 10.0165 6.98998 8.99288 7.90819C10.0763 8.19999 10.8463 8.89636 10.8868 8.93349C11.0375 9.07186 11.0375 9.30303 10.8868 9.44143C10.8355 9.48846 9.61356 10.5937 8.06664 10.5937C7.16866 10.5937 6.38023 10.2213 5.86667 9.8996L5.86667 11.6484C5.86667 11.8426 5.7025 12 5.50001 12C5.29752 12 5.13336 11.8426 5.13336 11.6484L5.13336 9.8996C4.61982 10.2213 3.83139 10.5937 2.93341 10.5937C1.38649 10.5937 0.164507 9.48846 0.113248 9.44143C-0.0374712 9.30305 -0.03752 9.07189 0.113248 8.93349C0.153702 8.89634 0.923701 8.19997 2.00712 7.90819C0.982072 6.98865 0.25199 5.74363 0.00510963 4.32329C-0.0362001 4.08557 0.179173 3.87906 0.427055 3.91872C1.64041 4.11261 2.76347 4.62489 3.67977 5.38953C3.67138 5.25186 3.66672 5.11164 3.66672 4.96864C3.66672 2.36727 5.13324 0.244423 5.19566 0.155338C5.34081 -0.0518261 5.65924 -0.0517323 5.80433 0.155338C5.86676 0.244423 7.33328 2.36727 7.33328 4.96864C7.33328 5.11164 7.32861 5.25186 7.32023 5.38953C8.23652 4.62486 9.35959 4.11261 10.5729 3.91872C10.8209 3.87901 11.0362 4.08566 10.9949 4.32329ZM5.49996 8.57541C3.95772 6.23199 4.1242 3.54231 5.49996 1.05189C6.86458 3.52201 7.05054 6.2222 5.49996 8.57541ZM0.843502 4.72302C2.01618 5.0203 3.06684 5.65899 3.85036 6.55759C3.9882 7.14969 4.18756 7.66578 4.39171 8.09044C3.98277 7.9205 3.50429 7.79049 2.98806 7.78182C1.92572 7.0142 1.17855 5.94474 0.843502 4.72302ZM10.1564 4.72304C8.98374 5.0203 7.93306 5.65897 7.14959 6.55759C7.01175 7.14969 6.81239 7.66576 6.60824 8.09044C7.01718 7.9205 7.49569 7.79049 8.01189 7.78182C9.07423 7.01419 9.8214 5.94477 10.1564 4.72304ZM4.91796 9.18814C3.54895 8.23742 2.25994 8.27326 0.948731 9.18682C2.26326 10.0996 3.55335 10.1389 4.91796 9.18814ZM10.0512 9.18814C8.68218 8.23742 7.39317 8.27326 6.08197 9.18682C7.39649 10.0996 8.68658 10.1389 10.0512 9.18814Z" fill-rule="evenodd"/>
	</g>
	<defs>
		<clipPath id="clip_5">
			<rect x="-1011.9189" y="-1079.063" width="1427.76" height="3847.02" clip-rule="evenodd"/>
		</clipPath>
	</defs>
	<g clip-path="url(#clip_5)">
		<path fill="rgb(48,232,182)" stroke="none" transform="matrix(0.991446 -0.0103827 0.0103827 0.991446 134.255 7.73526)" d="M10.9949 4.32329C10.7476 5.74588 10.0165 6.98998 8.99288 7.90819C10.0763 8.19999 10.8463 8.89636 10.8868 8.93349C11.0375 9.07186 11.0375 9.30303 10.8868 9.44143C10.8355 9.48846 9.61356 10.5937 8.06664 10.5937C7.16866 10.5937 6.38023 10.2213 5.86667 9.8996L5.86667 11.6484C5.86667 11.8426 5.7025 12 5.50001 12C5.29752 12 5.13336 11.8426 5.13336 11.6484L5.13336 9.8996C4.61982 10.2213 3.83139 10.5937 2.93341 10.5937C1.38649 10.5937 0.164507 9.48846 0.113248 9.44143C-0.0374712 9.30305 -0.03752 9.07189 0.113248 8.93349C0.153702 8.89634 0.923701 8.19997 2.00712 7.90819C0.982072 6.98865 0.25199 5.74363 0.00510963 4.32329C-0.0362001 4.08557 0.179173 3.87906 0.427055 3.91872C1.64041 4.11261 2.76347 4.62489 3.67977 5.38953C3.67138 5.25186 3.66672 5.11164 3.66672 4.96864C3.66672 2.36727 5.13324 0.244423 5.19566 0.155338C5.34081 -0.0518261 5.65924 -0.0517323 5.80433 0.155338C5.86676 0.244423 7.33328 2.36727 7.33328 4.96864C7.33328 5.11164 7.32861 5.25186 7.32023 5.38953C8.23652 4.62486 9.35959 4.11261 10.5729 3.91872C10.8209 3.87901 11.0362 4.08566 10.9949 4.32329ZM5.49996 8.57541C3.95772 6.23199 4.1242 3.54231 5.49996 1.05189C6.86458 3.52201 7.05054 6.2222 5.49996 8.57541ZM0.843502 4.72302C2.01618 5.0203 3.06684 5.65899 3.85036 6.55759C3.9882 7.14969 4.18756 7.66578 4.39171 8.09044C3.98277 7.9205 3.50429 7.79049 2.98806 7.78182C1.92572 7.0142 1.17855 5.94474 0.843502 4.72302ZM10.1564 4.72304C8.98374 5.0203 7.93306 5.65897 7.14959 6.55759C7.01175 7.14969 6.81239 7.66576 6.60824 8.09044C7.01718 7.9205 7.49569 7.79049 8.01189 7.78182C9.07423 7.01419 9.8214 5.94477 10.1564 4.72304ZM4.91796 9.18814C3.54895 8.23742 2.25994 8.27326 0.948731 9.18682C2.26326 10.0996 3.55335 10.1389 4.91796 9.18814ZM10.0512 9.18814C8.68218 8.23742 7.39317 8.27326 6.08197 9.18682C7.39649 10.0996 8.68658 10.1389 10.0512 9.18814Z" fill-rule="evenodd"/>
	</g>
	<defs>
		<clipPath id="clip_6">
			<rect x="-1011.9189" y="-1079.063" width="1427.76" height="3847.02" clip-rule="evenodd"/>
		</clipPath>
	</defs>
	<g clip-path="url(#clip_6)">
		<path fill="rgb(48,232,182)" stroke="none" transform="matrix(0.991446 -0.0103827 0.0103827 0.991446 90.6289 1.7446)" d="M6.99675 2.88219C6.83939 3.83058 6.37411 4.65999 5.72274 5.27213C6.41216 5.46666 6.90219 5.93091 6.92793 5.95566C7.02386 6.04791 7.02388 6.20202 6.92798 6.29428C6.89534 6.32564 6.11772 7.06249 5.13332 7.06249C4.56187 7.06249 4.06014 6.81419 3.73333 6.59974L3.73333 7.76563C3.73333 7.89506 3.62887 8 3.50001 8C3.37115 8 3.26668 7.89506 3.26668 7.76563L3.26668 6.59974C2.93989 6.81419 2.43816 7.06249 1.86671 7.06249C0.882313 7.06249 0.104686 6.32564 0.0720671 6.29428C-0.0238453 6.20203 -0.0238764 6.04792 0.0720671 5.95566C0.0978106 5.93089 0.58781 5.46664 1.27726 5.27213C0.624955 4.6591 0.160357 3.82908 0.00325158 2.88219C-0.0230364 2.72371 0.114019 2.58604 0.271763 2.61248C1.0439 2.74174 1.75857 3.08326 2.34167 3.59302C2.33634 3.50124 2.33336 3.40776 2.33336 3.31243C2.33336 1.57818 3.2666 0.162949 3.30633 0.103558C3.3987 -0.0345507 3.60133 -0.0344882 3.69367 0.103558C3.7334 0.162949 4.66664 1.57818 4.66664 3.31243C4.66664 3.40776 4.66366 3.50124 4.65833 3.59302C5.24142 3.08324 5.9561 2.74174 6.72824 2.61248C6.886 2.58601 7.02304 2.72377 6.99675 2.88219ZM3.49998 5.71694C2.51855 4.15466 2.62449 2.36154 3.49998 0.701261C4.36837 2.34801 4.48671 4.14813 3.49998 5.71694ZM0.536774 3.14868C1.28303 3.34687 1.95163 3.77266 2.45023 4.37172C2.53794 4.76646 2.66481 5.11052 2.79473 5.39363C2.53449 5.28033 2.23 5.19366 1.90149 5.18788C1.22546 4.67613 0.749987 3.96316 0.536774 3.14868ZM6.46319 3.14869C5.71693 3.34687 5.04831 3.77265 4.54974 4.37172C4.46202 4.76646 4.33516 5.1105 4.20524 5.39363C4.46548 5.28033 4.76998 5.19366 5.09847 5.18788C5.77451 4.67613 6.24998 3.96318 6.46319 3.14869ZM3.12961 6.12542C2.25842 5.49161 1.43814 5.5155 0.603738 6.12455C1.44026 6.73305 2.26122 6.75925 3.12961 6.12542ZM6.39621 6.12542C5.52502 5.49161 4.70474 5.5155 3.87034 6.12455C4.70686 6.73305 5.52782 6.75925 6.39621 6.12542Z" fill-rule="evenodd"/>
	</g>
	<defs>
		<clipPath id="clip_7">
			<rect x="-1011.9189" y="-1079.063" width="1427.76" height="3847.02" clip-rule="evenodd"/>
		</clipPath>
	</defs>
	<g clip-path="url(#clip_7)">
		<path fill="rgb(48,232,182)" stroke="none" transform="matrix(0.991446 -0.0103827 0.0103827 0.991446 33.1221 17.6814)" d="M13.9935 5.40412C13.6788 7.18235 12.7482 8.73748 11.4455 9.88524C12.8243 10.25 13.8044 11.1205 13.8559 11.1669C14.0477 11.3398 14.0478 11.6288 13.856 11.8018C13.7907 11.8606 12.2354 13.2422 10.2666 13.2422C9.12374 13.2422 8.12029 12.7766 7.46667 12.3745L7.46667 14.5605C7.46667 14.8032 7.25773 15 7.00002 15C6.7423 15 6.53336 14.8032 6.53336 14.5605L6.53336 12.3745C5.87977 12.7766 4.87632 13.2422 3.73343 13.2422C1.76463 13.2422 0.209372 11.8606 0.144134 11.8018C-0.0476906 11.6288 -0.0477528 11.3399 0.144134 11.1669C0.195621 11.1204 1.17562 10.25 2.55451 9.88524C1.24991 8.73581 0.320715 7.17953 0.00650317 5.40412C-0.0460728 5.10696 0.228038 4.84882 0.543525 4.89839C2.0878 5.14077 3.51715 5.78111 4.68334 6.73692C4.67267 6.56483 4.66673 6.38954 4.66673 6.2108C4.66673 2.95909 6.53321 0.305529 6.61266 0.194172C6.7974 -0.0647826 7.20267 -0.0646654 7.38734 0.194172C7.46679 0.305529 9.33327 2.95909 9.33327 6.2108C9.33327 6.38954 9.32733 6.56483 9.31666 6.73692C10.4828 5.78108 11.9122 5.14077 13.4565 4.89839C13.772 4.84876 14.0461 5.10707 13.9935 5.40412ZM6.99995 10.7193C5.03709 7.78999 5.24898 4.42789 6.99995 1.31486C8.73673 4.40252 8.97342 7.77774 6.99995 10.7193ZM1.07355 5.90377C2.56605 6.27537 3.90326 7.07374 4.90046 8.19698C5.07589 8.93711 5.32962 9.58222 5.58945 10.1131C5.06898 9.90062 4.46 9.73811 3.80299 9.72727C2.45091 8.76774 1.49997 7.43093 1.07355 5.90377ZM12.9264 5.9038C11.4339 6.27537 10.0966 7.07371 9.09948 8.19698C8.92405 8.93711 8.67031 9.5822 8.41048 10.1131C8.93095 9.90062 9.53997 9.73811 10.1969 9.72727C11.549 8.76774 12.5 7.43096 12.9264 5.9038ZM6.25922 11.4852C4.51684 10.2968 2.87628 10.3416 1.20748 11.4835C2.88051 12.6245 4.52244 12.6736 6.25922 11.4852ZM12.7924 11.4852C11.05 10.2968 9.40949 10.3416 7.74068 11.4835C9.41372 12.6245 11.0556 12.6736 12.7924 11.4852Z" fill-rule="evenodd"/>
	</g>
	<defs>
		<clipPath id="clip_8">
			<rect x="-1011.9189" y="-1079.063" width="1427.76" height="3847.02" clip-rule="evenodd"/>
		</clipPath>
	</defs>
	<g clip-path="url(#clip_8)">
		<path fill="rgb(48,232,182)" stroke="none" transform="matrix(0.991446 -0.0103827 0.0103827 0.991446 109.467 86.0948)" d="M13.9935 5.40412C13.6788 7.18235 12.7482 8.73748 11.4455 9.88524C12.8243 10.25 13.8044 11.1205 13.8559 11.1669C14.0477 11.3398 14.0478 11.6288 13.856 11.8018C13.7907 11.8606 12.2354 13.2422 10.2666 13.2422C9.12374 13.2422 8.12029 12.7766 7.46667 12.3745L7.46667 14.5605C7.46667 14.8032 7.25773 15 7.00002 15C6.7423 15 6.53336 14.8032 6.53336 14.5605L6.53336 12.3745C5.87977 12.7766 4.87632 13.2422 3.73343 13.2422C1.76463 13.2422 0.209372 11.8606 0.144134 11.8018C-0.0476906 11.6288 -0.0477528 11.3399 0.144134 11.1669C0.195621 11.1204 1.17562 10.25 2.55451 9.88524C1.24991 8.73581 0.320715 7.17953 0.00650317 5.40412C-0.0460728 5.10696 0.228038 4.84882 0.543525 4.89839C2.0878 5.14077 3.51715 5.78111 4.68334 6.73692C4.67267 6.56483 4.66673 6.38954 4.66673 6.2108C4.66673 2.95909 6.53321 0.305529 6.61266 0.194172C6.7974 -0.0647826 7.20267 -0.0646654 7.38734 0.194172C7.46679 0.305529 9.33327 2.95909 9.33327 6.2108C9.33327 6.38954 9.32733 6.56483 9.31666 6.73692C10.4828 5.78108 11.9122 5.14077 13.4565 4.89839C13.772 4.84876 14.0461 5.10707 13.9935 5.40412ZM6.99995 10.7193C5.03709 7.78999 5.24898 4.42789 6.99995 1.31486C8.73673 4.40252 8.97342 7.77774 6.99995 10.7193ZM1.07355 5.90377C2.56605 6.27537 3.90326 7.07374 4.90046 8.19698C5.07589 8.93711 5.32962 9.58222 5.58945 10.1131C5.06898 9.90062 4.46 9.73811 3.80299 9.72727C2.45091 8.76774 1.49997 7.43093 1.07355 5.90377ZM12.9264 5.9038C11.4339 6.27537 10.0966 7.07371 9.09948 8.19698C8.92405 8.93711 8.67031 9.5822 8.41048 10.1131C8.93095 9.90062 9.53997 9.73811 10.1969 9.72727C11.549 8.76774 12.5 7.43096 12.9264 5.9038ZM6.25922 11.4852C4.51684 10.2968 2.87628 10.3416 1.20748 11.4835C2.88051 12.6245 4.52244 12.6736 6.25922 11.4852ZM12.7924 11.4852C11.05 10.2968 9.40949 10.3416 7.74068 11.4835C9.41372 12.6245 11.0556 12.6736 12.7924 11.4852Z" fill-rule="evenodd"/>
	</g>
	<defs>
		<clipPath id="clip_9">
			<rect x="-1011.9189" y="-1079.063" width="1427.76" height="3847.02" clip-rule="evenodd"/>
		</clipPath>
	</defs>
	<g clip-path="url(#clip_9)">
		<path fill="rgb(48,232,182)" stroke="none" transform="matrix(0.9915 0 0 0.9915 29.156 113.213)" d="M1.97006 3.94012C3.05809 3.94012 3.94012 3.05809 3.94012 1.97006C3.94012 0.882026 3.05809 0 1.97006 0C0.882026 0 0 0.882026 0 1.97006C0 3.05809 0.882026 3.94012 1.97006 3.94012Z"/>
	</g>
	<defs>
		<clipPath id="clip_10">
			<rect x="-1011.9189" y="-1079.063" width="1427.76" height="3847.02" clip-rule="evenodd"/>
		</clipPath>
	</defs>
	<g clip-path="url(#clip_10)">
		<path fill="rgb(48,232,182)" stroke="none" transform="matrix(0.9915 0 0 0.9915 76.0356 66.8913)" d="M1.97006 3.94012C3.05809 3.94012 3.94012 3.05809 3.94012 1.97006C3.94012 0.882026 3.05809 0 1.97006 0C0.882026 0 0 0.882026 0 1.97006C0 3.05809 0.882026 3.94012 1.97006 3.94012Z"/>
	</g>
	<defs>
		<clipPath id="clip_11">
			<rect x="-1011.9189" y="-1079.063" width="1427.76" height="3847.02" clip-rule="evenodd"/>
		</clipPath>
	</defs>
	<g clip-path="url(#clip_11)">
		<path fill="rgb(48,232,182)" stroke="none" transform="matrix(0.9915 0 0 0.9915 88.3135 43.4515)" d="M7.88024 0C9.9861 0 11.966 0.819713 13.455 2.30862C16.529 5.38181 16.529 10.3824 13.455 13.4557C11.9182 14.992 9.89883 15.7605 7.88024 15.7605C5.86109 15.7605 3.84268 14.9924 2.30544 13.4557C-0.768481 10.3825 -0.768481 5.382 2.30544 2.30862C3.79434 0.820082 5.77438 0 7.88024 0ZM4.92495 10.8367C6.55425 12.4658 9.20604 12.4658 10.8357 10.8367C12.4652 9.20757 12.4652 6.5566 10.8355 4.92732C10.0461 4.13804 8.99664 3.70347 7.88024 3.70347C6.76384 3.70347 5.71442 4.13804 4.92495 4.92732C3.29528 6.5566 3.29528 9.20757 4.92495 10.8367Z" fill-rule="evenodd"/>
	</g>
	<defs>
		<clipPath id="clip_12">
			<rect x="-1011.9189" y="-1079.063" width="1427.76" height="3847.02" clip-rule="evenodd"/>
		</clipPath>
	</defs>
	<g clip-path="url(#clip_12)">
		<path fill="rgb(48,232,182)" stroke="none" transform="matrix(0.9915 0 0 0.9915 35.2949 93.6796)" d="M16.9954 5.63123C16.0889 5.17976 14.9883 5.54886 14.5369 6.45526L12.353 10.8411C11.4033 12.748 9.49333 14.0231 7.36787 14.1685L4.82784 14.3424C4.39847 14.371 4.11612 14.1572 3.98554 14.0266C3.85496 13.896 3.64055 13.6131 3.66977 13.1841L3.84364 10.6443C3.9892 8.51899 5.26432 6.60885 7.17099 5.65917L11.5567 3.47527C12.4633 3.0238 12.8322 1.92309 12.3807 1.01669C11.9294 0.110288 10.8287 -0.258809 9.92214 0.192655L5.53644 2.37656C2.46971 3.90372 0.419127 6.97558 0.184995 10.3937L0.01113 12.9336C-0.0827423 14.3046 0.420588 15.648 1.39218 16.6196C2.28671 17.5141 3.49664 18.012 4.75314 18.012C4.86108 18.012 4.96974 18.0083 5.07822 18.0008L7.61825 17.827C11.0364 17.593 14.1082 15.5426 15.6354 12.4755L17.8193 8.08981C18.2707 7.18323 17.9018 6.08269 16.9954 5.63123Z"/>
	</g>
	<defs>
		<clipPath id="clip_13">
			<rect x="-1011.9189" y="-1079.063" width="1427.76" height="3847.02" clip-rule="evenodd"/>
		</clipPath>
	</defs>
	<g clip-path="url(#clip_13)">
		<path fill="rgb(48,232,182)" stroke="none" transform="matrix(0.9915 0 0 0.9915 29.156 24.4765)" d="M92.7282 1.22765C91.8632 0.375698 90.6716 -0.0698295 89.4613 0.00892259L87.745 0.118331C72.3558 1.10062 57.9536 8.52773 48.2313 20.4955L44.1914 25.4682L33.619 25.1578C33.6011 25.1573 33.5829 25.1571 33.5651 25.1571C25.1804 25.1571 17.2975 28.4217 11.3684 34.3496L0.53999 45.1764C0.0249892 45.6914 -0.138599 46.4614 0.122849 47.141C0.384297 47.8208 1.02139 48.283 1.74882 48.3201L24.6703 49.4975L23.7358 50.648C23.2649 51.2279 23.1903 52.0345 23.5474 52.6906C23.9065 53.3507 24.2829 54.0003 24.6755 54.6395L19.2398 61.0915C18.7751 61.6431 18.675 62.4152 18.9833 63.0673C20.1706 65.5758 21.7465 67.8297 23.6677 69.7664C25.6355 71.7504 27.9366 73.3728 30.5066 74.589C30.7578 74.7079 31.0272 74.7661 31.2948 74.7661C31.71 74.7661 32.1216 74.6258 32.4565 74.3543C33.6275 73.4045 34.9775 72.278 36.2833 71.1887C37.214 70.4122 38.1661 69.6178 39.056 68.8854C39.5872 69.205 40.125 69.5149 40.6708 69.8117C40.9469 69.9619 41.2497 70.0358 41.5514 70.0358C41.9527 70.0358 42.3515 69.9051 42.6816 69.6489L43.938 68.6741L45.1207 91.6884C45.1582 92.4157 45.6203 93.0527 46.3 93.3141C46.5152 93.3967 46.7388 93.4371 46.961 93.4371C47.4411 93.4371 47.9126 93.2493 48.2647 92.8971L59.0933 82.0702C65.0224 76.1421 68.2874 68.2607 68.2874 59.8772L68.2874 49.7817L72.5592 46.4673C85.3615 36.5343 93.1585 21.556 93.951 5.37269L93.9948 4.47576C94.0547 3.26346 93.5927 2.07979 92.7282 1.22765ZM70.2996 43.5553C82.251 34.2826 89.5296 20.3 90.2694 5.19261L90.3134 4.29586C90.3245 4.06989 90.2101 3.92174 90.1409 3.85364C90.0715 3.78535 89.9209 3.67374 89.696 3.68769L87.9797 3.7971C73.6134 4.71385 60.1687 11.6473 51.0929 22.8193L27.3889 51.9978C28.7389 54.304 30.3245 56.4602 32.1148 58.4418L41.8523 48.706C42.5722 47.9862 43.7393 47.9862 44.4592 48.706C45.1789 49.4257 45.1789 50.5929 44.4592 51.3125L34.7126 61.0575C36.7577 62.9313 38.9923 64.5851 41.3898 65.9857L70.2996 43.5553ZM6.07814 44.8519L13.9752 36.9561C19.2014 31.7308 26.1485 28.8502 33.5384 28.843L41.2653 29.0699L27.5485 45.9548L6.07814 44.8519ZM64.6014 59.8772C64.6014 67.276 61.7198 74.2319 56.4869 79.4639L48.5899 87.3596L47.4879 65.92L64.6012 52.6423L64.6012 59.8772L64.6014 59.8772ZM31.0573 70.7371C31.9727 69.9843 32.9592 69.1611 33.9214 68.3585C34.5622 67.824 35.2134 67.2806 35.8491 66.753C34.0489 65.4355 32.3518 63.9787 30.7741 62.3912L30.7725 62.3897L30.7714 62.3884C30.7703 62.3873 30.7692 62.3864 30.7681 62.3853C29.3452 60.9529 28.028 59.424 26.8247 57.8098L22.845 62.5336C23.7755 64.2478 24.9294 65.804 26.2851 67.1707C27.6849 68.5819 29.2866 69.7783 31.0573 70.7371Z" fill-rule="evenodd"/>
	</g>
</svg>
