<?xml version="1.0" encoding="utf-8" ?>
<svg xmlns="http://www.w3.org/2000/svg" xmlns:xlink="http://www.w3.org/1999/xlink" width="26" height="24">
	<defs>
		<clipPath id="clip_0">
			<rect x="-619" y="-1806" width="1440" height="3880" clip-rule="evenodd"/>
		</clipPath>
	</defs>
	<g clip-path="url(#clip_0)">
		<path fill="rgb(255,255,255)" stroke="none" d="M25.9037 9.03012C26.1333 9.71105 25.9454 10.4445 25.4132 10.9443L20.7589 15.3141C20.6675 15.3999 20.6258 15.5235 20.6474 15.6447L21.7461 21.815C21.8718 22.5206 21.5763 23.2204 20.9749 23.6413C20.6352 23.8792 20.2376 24 19.8374 24C19.5292 24.0001 19.2196 23.9284 18.9335 23.7836L13.1805 20.8703C13.0675 20.8131 12.9326 20.8131 12.8196 20.8703L7.06672 23.7836C6.40887 24.1166 5.62644 24.0623 5.02509 23.6413C4.42374 23.2205 4.12829 22.5207 4.25391 21.815L5.35263 15.6447C5.37422 15.5236 5.33248 15.4 5.24114 15.3141L0.58691 10.9443C0.0545717 10.4445 -0.1334 9.71105 0.0963687 9.03012C0.326138 8.34919 0.925707 7.86226 1.66129 7.75935L8.09321 6.85915C8.21952 6.84145 8.32861 6.76508 8.38516 6.65487L11.2616 1.04088C11.5906 0.398834 12.2567 0 13 0C13.7433 0 14.4094 0.398834 14.7384 1.04088L17.6148 6.65481C17.6713 6.76508 17.7805 6.84145 17.9067 6.85909L24.3388 7.75935C25.0744 7.86226 25.674 8.34919 25.9037 9.03012ZM20.2177 22.0677L19.119 15.8973C19.0111 15.2915 19.2194 14.6736 19.6764 14.2446L24.3307 9.87474C24.4865 9.72852 24.4512 9.5583 24.4288 9.49189C24.4064 9.42547 24.3311 9.2678 24.1158 9.23772L17.6839 8.33747C17.0524 8.2491 16.5067 7.8673 16.2243 7.316L13.3478 1.70201L13.3478 1.70196C13.2515 1.51404 13.0726 1.4938 13.0002 1.4938C12.9277 1.4938 12.7488 1.5141 12.6525 1.70196L9.776 7.31594C9.49353 7.86724 8.94781 8.24904 8.31632 8.33741L1.88446 9.23767C1.66921 9.26775 1.59383 9.42541 1.57149 9.49183C1.54905 9.55819 1.51379 9.72836 1.66956 9.87468L6.32378 14.2445C6.78085 14.6736 6.98921 15.2915 6.88133 15.8973L5.7826 22.0676C5.7458 22.2741 5.8782 22.3918 5.93682 22.4328C5.99544 22.4738 6.15258 22.5587 6.34514 22.4612L12.098 19.548C12.3804 19.4051 12.6903 19.3336 13.0001 19.3336C13.31 19.3336 13.6198 19.4051 13.9022 19.5481L19.6551 22.4613C19.8476 22.5588 20.0048 22.4738 20.0635 22.4329C20.1221 22.3919 20.2544 22.2742 20.2177 22.0677Z" fill-rule="evenodd"/>
	</g>
</svg>
