<?xml version="1.0" encoding="utf-8" ?>
<svg xmlns="http://www.w3.org/2000/svg" xmlns:xlink="http://www.w3.org/1999/xlink" width="29" height="28">
	<defs>
		<clipPath id="clip_0">
			<rect x="-617" y="-1806" width="1440" height="3880" clip-rule="evenodd"/>
		</clipPath>
	</defs>
	<g clip-path="url(#clip_0)">
		<path fill="rgb(255,255,255)" stroke="none" transform="translate(2 0)" d="M25.9037 9.03012C26.1333 9.71105 25.9454 10.4445 25.4132 10.9443L20.7589 15.3141C20.6675 15.3999 20.6258 15.5235 20.6474 15.6447L21.7461 21.815C21.8718 22.5206 21.5763 23.2204 20.9749 23.6413C20.6352 23.8792 20.2376 24 19.8374 24C19.5292 24.0001 19.2196 23.9284 18.9335 23.7836L13.1805 20.8703C13.0675 20.8131 12.9326 20.8131 12.8196 20.8703L7.06672 23.7836C6.40887 24.1166 5.62644 24.0623 5.02509 23.6413C4.42374 23.2205 4.12829 22.5207 4.25391 21.815L5.35263 15.6447C5.37422 15.5236 5.33248 15.4 5.24114 15.3141L0.58691 10.9443C0.0545717 10.4445 -0.1334 9.71105 0.0963687 9.03012C0.326138 8.34919 0.925707 7.86226 1.66129 7.75935L8.09321 6.85915C8.21952 6.84145 8.32861 6.76508 8.38516 6.65487L11.2616 1.04088C11.5906 0.398834 12.2567 0 13 0C13.7433 0 14.4094 0.398834 14.7384 1.04088L17.6148 6.65481C17.6713 6.76508 17.7805 6.84145 17.9067 6.85909L24.3388 7.75935C25.0744 7.86226 25.674 8.34919 25.9037 9.03012ZM20.2177 22.0677L19.119 15.8973C19.0111 15.2915 19.2195 14.6736 19.6765 14.2446L24.3307 9.87474C24.4866 9.72852 24.4512 9.5583 24.4289 9.49189C24.4065 9.42547 24.3311 9.26781 24.1159 9.23772L17.6839 8.33747C17.0524 8.2491 16.5068 7.8673 16.2243 7.316L13.3479 1.70201L13.3479 1.70196C13.2515 1.51405 13.0726 1.4938 13.0002 1.4938C12.9277 1.4938 12.7488 1.5141 12.6525 1.70196L9.77606 7.31594C9.49359 7.86724 8.94787 8.24904 8.31638 8.33741L1.88451 9.23767C1.66927 9.26775 1.59389 9.42542 1.57155 9.49183C1.5491 9.55819 1.51385 9.72836 1.66962 9.87468L6.32384 14.2445C6.78091 14.6736 6.98927 15.2915 6.88139 15.8973L5.78266 22.0676C5.74586 22.2741 5.87826 22.3918 5.93688 22.4328C5.9955 22.4738 6.15264 22.5587 6.3452 22.4612L12.0981 19.548C12.3805 19.4051 12.6903 19.3336 13.0002 19.3336C13.31 19.3336 13.6198 19.4051 13.9023 19.5481L19.6552 22.4613C19.8477 22.5588 20.0049 22.4738 20.0635 22.4329C20.1222 22.3919 20.2545 22.2742 20.2177 22.0677Z" fill-rule="evenodd"/>
	</g>
	<defs>
		<clipPath id="clip_1">
			<rect x="-617" y="-1806" width="1440" height="3880" clip-rule="evenodd"/>
		</clipPath>
	</defs>
	<g clip-path="url(#clip_1)">
		<path fill="rgb(255,255,255)" stroke="none" transform="translate(21 1)" d="M2.59602 0.165581C2.1581 -0.115775 1.54542 -0.0299052 1.22736 0.357345L0.187202 1.6237C-0.130858 2.01095 -0.0338584 2.55306 0.403983 2.83442C0.578031 2.94615 0.779503 3 0.979161 3C1.2822 3 1.58097 2.87607 1.77264 2.64272L2.8128 1.37636C3.13086 0.989048 3.03386 0.446937 2.59602 0.165581Z"/>
	</g>
	<defs>
		<clipPath id="clip_2">
			<rect x="-617" y="-1806" width="1440" height="3880" clip-rule="evenodd"/>
		</clipPath>
	</defs>
	<g clip-path="url(#clip_2)">
		<path fill="rgb(255,255,255)" stroke="none" transform="translate(6 1)" d="M2.81276 1.62363L1.77261 0.357256C1.45463 -0.0298694 0.841871 -0.11574 0.40396 0.16549C-0.0338064 0.446849 -0.130878 0.988965 0.187181 1.37622L1.22733 2.64259C1.41908 2.87614 1.71784 3 2.02095 3C2.22068 3 2.42223 2.94615 2.59606 2.83436C3.03382 2.55306 3.13089 2.01094 2.81276 1.62363Z"/>
	</g>
	<defs>
		<clipPath id="clip_3">
			<rect x="-617" y="-1806" width="1440" height="3880" clip-rule="evenodd"/>
		</clipPath>
	</defs>
	<g clip-path="url(#clip_3)">
		<path fill="rgb(255,255,255)" stroke="none" transform="translate(0 16)" d="M2.96029 0.540277C2.82259 0.129786 2.36742 -0.0949336 1.94355 0.038463L0.557733 0.474707C0.133868 0.608104 -0.0979878 1.04915 0.0397159 1.45964C0.150476 1.79004 0.466807 2 0.806914 2C0.889536 2 0.973592 1.98756 1.05645 1.96146L2.44227 1.52521C2.86608 1.39182 3.09799 0.950884 2.96029 0.540277Z"/>
	</g>
	<defs>
		<clipPath id="clip_4">
			<rect x="-617" y="-1806" width="1440" height="3880" clip-rule="evenodd"/>
		</clipPath>
	</defs>
	<g clip-path="url(#clip_4)">
		<path fill="rgb(255,255,255)" stroke="none" transform="translate(14 25)" d="M1 0C0.447727 0 0 0.35291 0 0.788227L0 2.21177C0 2.64709 0.447727 3 1 3C1.55227 3 2 2.64709 2 2.21177L2 0.788227C2 0.352852 1.55235 0 1 0Z"/>
	</g>
	<defs>
		<clipPath id="clip_5">
			<rect x="-617" y="-1806" width="1440" height="3880" clip-rule="evenodd"/>
		</clipPath>
	</defs>
	<g clip-path="url(#clip_5)">
		<path fill="rgb(255,255,255)" stroke="none" transform="translate(26 16)" d="M2.44227 0.474691L1.05645 0.0384258C0.632768 -0.0948614 0.17742 0.129695 0.0397159 0.540322C-0.0979878 0.950949 0.133868 1.3919 0.557733 1.52531L1.94355 1.96157C2.02641 1.98761 2.11041 2 2.19303 2C2.5332 2 2.84953 1.78997 2.96029 1.45962C3.09799 1.04905 2.86608 0.608094 2.44227 0.474691Z"/>
	</g>
</svg>
