<?xml version="1.0" encoding="utf-8" ?>
<svg xmlns="http://www.w3.org/2000/svg" xmlns:xlink="http://www.w3.org/1999/xlink" width="30" height="25">
	<defs>
		<clipPath id="clip_0">
			<rect x="-617" y="-1741" width="1440" height="3880" clip-rule="evenodd"/>
		</clipPath>
	</defs>
	<g clip-path="url(#clip_0)">
		<path fill="rgb(255,255,255)" stroke="none" d="M23.7871 8.32081C23.7244 3.722 19.9842 0 15.3957 0C13.3546 0 11.3881 0.746545 9.85873 2.10213C8.49373 3.31191 7.55999 4.9286 7.1902 6.70359C7.16319 6.70329 7.13641 6.70306 7.10969 6.70306C3.18949 6.70312 0 9.90993 0 13.8516C0 17.7932 3.18949 21 7.10975 21L9.71916 21C10.0724 21 10.3589 20.712 10.3589 20.3567C10.3589 20.0014 10.0724 19.7135 9.71916 19.7135L7.10975 19.7135C3.89495 19.7135 1.27957 17.0838 1.27957 13.8516C1.27957 10.6193 3.89495 7.98966 7.10975 7.98966C7.28102 7.98966 7.46208 7.99891 7.66334 8.01794C8.00448 8.04975 8.31075 7.80609 8.35721 7.46439C8.5876 5.76652 9.42133 4.20491 10.7049 3.06725C12.0004 1.91891 13.6663 1.28654 15.3957 1.28654C19.3176 1.28654 22.5083 4.49465 22.5083 8.43793C22.5083 8.57991 22.482 8.94705 22.482 8.94705C22.4687 9.13628 22.5391 9.3218 22.6746 9.45394C22.8099 9.58608 22.9961 9.65124 23.1842 9.63245C23.3543 9.61519 23.526 9.60653 23.6944 9.60653C26.4657 9.60653 28.7204 11.8735 28.7204 14.66C28.7204 17.4464 26.4657 19.7133 23.6944 19.7133L20.829 19.7133C20.4758 19.7133 20.1893 20.0013 20.1893 20.3566C20.1893 20.7119 20.4758 20.9999 20.829 20.9999L23.6944 20.9999C27.1713 20.9999 30 18.1559 30 14.66C29.9999 11.1954 27.2214 8.37088 23.7871 8.32081Z"/>
	</g>
	<defs>
		<clipPath id="clip_1">
			<rect x="-617" y="-1741" width="1440" height="3880" clip-rule="evenodd"/>
		</clipPath>
	</defs>
	<g clip-path="url(#clip_1)">
		<path fill="rgb(255,255,255)" stroke="none" transform="translate(10 3)" d="M5.35718 0C2.66969 0 0.369152 2.23088 0.00585938 5.18912C-0.0421126 5.57977 0.204281 5.93852 0.555801 5.99298C0.93063 6.05104 1.23553 5.74002 1.2795 5.38213C1.55627 3.12784 3.30928 1.42786 5.35718 1.42786C5.71217 1.42786 5.99989 0.713964 5.99989 0.713964C5.99989 0.713964 5.71212 0 5.35718 0Z"/>
	</g>
	<defs>
		<clipPath id="clip_2">
			<rect x="-617" y="-1741" width="1440" height="3880" clip-rule="evenodd"/>
		</clipPath>
	</defs>
	<g clip-path="url(#clip_2)">
		<path fill="rgb(255,255,255)" stroke="none" transform="translate(12 15)" d="M5.84964 6.88512C5.63203 6.63274 5.25806 6.61079 5.01439 6.8364L3.59151 8.15347L3.59151 0.612928C3.59151 0.274383 3.3266 0 2.99998 0C2.67326 0 2.40846 0.274383 2.40846 0.612928L2.40846 8.15341L0.985633 6.83634C0.742067 6.61079 0.367996 6.63274 0.150433 6.88507C-0.0672379 7.13756 -0.0462184 7.52494 0.197456 7.75054L2.34908 9.74234C2.53463 9.91417 2.76725 10 2.99993 10C3.23255 10 3.46523 9.91411 3.65072 9.7424L5.80246 7.7506C6.04619 7.52511 6.06726 7.13761 5.84964 6.88512Z"/>
	</g>
</svg>
