<?xml version="1.0" encoding="utf-8" ?>
<svg xmlns="http://www.w3.org/2000/svg" xmlns:xlink="http://www.w3.org/1999/xlink" width="42" height="47">
	<defs>
		<clipPath id="clip_0">
			<rect x="-584.04004" y="-737.46002" width="1411.2001" height="2055.0601" clip-rule="evenodd"/>
		</clipPath>
	</defs>
	<g clip-path="url(#clip_0)">
		<path fill="rgb(255,255,255)" stroke="none" transform="matrix(0.98 0 0 0.98 1.02002 0.480003)" d="M8.48664 0.766919L39.1713 18.483C40.9424 19.5055 42 21.3372 42 23.3825C42 25.4278 40.9424 27.2597 39.1713 28.282L8.4862 45.9981C7.60079 46.5095 6.62906 46.7652 5.65732 46.7652C4.6858 46.7652 3.71429 46.5097 2.82888 45.9981C1.05763 44.9751 0 43.1438 0 41.0983L0 5.66646C0 3.62097 1.05763 1.78922 2.82888 0.766698C4.60035 -0.255603 6.71495 -0.255603 8.48664 0.766919ZM5.88364 6.05815L5.88364 40.7064L35.89 23.3821L5.88364 6.05815Z" fill-rule="evenodd"/>
	</g>
</svg>
