<?xml version="1.0" encoding="utf-8" ?>
<svg xmlns="http://www.w3.org/2000/svg" xmlns:xlink="http://www.w3.org/1999/xlink" width="262" height="379">
	<defs>
		<clipPath id="clip_0">
			<rect x="-908.48486" y="-678.37518" width="1436.5441" height="2091.9673" clip-rule="evenodd"/>
		</clipPath>
	</defs>
	<g clip-path="url(#clip_0)">
		<path fill="rgb(12,193,144)" stroke="none" transform="matrix(-0.654485 0.752898 -0.752898 -0.654485 208.342 244.768)" d="M46.4623 79.7127C46.6218 79.734 46.7747 79.7628 46.9156 79.8058C47.2857 79.9186 47.4474 79.9826 47.5854 80.0634C47.2138 79.95 46.84 79.8329 46.4623 79.7127M105.106 46.5041L111.758 39.2758C108.546 40.2801 105.4 41.4634 102.336 43.0209C102.219 42.7144 102.082 42.3555 101.853 41.751C100.183 42.6441 98.6043 43.4882 97.0122 44.3394C96.8983 43.8906 96.7542 43.3228 96.5652 42.577C94.3798 43.3574 92.7006 44.5979 91.3611 46.6418C91.1178 45.6926 90.9093 44.8795 90.6693 43.9464C88.6269 44.779 87.5618 46.4606 86.4385 48.2603C85.9775 47.543 85.6249 46.9117 85.1626 46.1918C83.1642 47.4796 82.0949 49.4901 81.4428 51.6282C81.0545 51.1102 80.801 50.7715 80.4551 50.3102C78.521 51.7394 77.5477 53.7827 76.6174 55.8843C76.3481 55.5248 76.1564 55.2692 75.9464 54.9884C74.6229 55.5616 73.9489 56.8828 73.2721 58.1055C73.1298 58.3632 72.8623 58.745 72.6818 58.7245C71.7963 58.6245 72.2327 57.9416 71.0587 59.7939C70.4018 60.8294 69.8817 61.9391 69.2947 63.0161C68.7259 63.1146 68.0423 63.268 67.808 63.6802C67.0751 64.9691 66.5106 66.3534 65.8868 67.7043C65.7836 67.9291 65.7149 68.1688 65.6045 68.4705C64.9254 68.0359 64.3325 68.051 64.0379 68.7308C63.5523 69.8507 63.1726 71.0158 62.7412 72.1597C62.6544 72.3894 62.5791 72.6416 62.428 72.8258C62.106 73.2188 61.6333 73.5199 61.4066 73.9545C61.3978 73.9714 61.3893 73.9885 61.3805 74.0052C61.5569 73.5316 61.6688 73.1056 61.6735 72.7649C61.6885 71.6816 61.5501 71.8673 61.8302 70.8882C62.1064 69.9222 63.0639 68.8689 63.1839 67.8595C63.2341 67.4385 62.3215 67.709 62.4672 67.3287C63.1282 65.6031 63.8466 63.8986 64.5925 62.0687C63.9572 61.9523 63.6263 61.8911 63.1299 61.8001C64.3758 59.658 65.2892 57.5059 65.5929 55.1125C65.0416 54.9778 64.6299 54.8766 64.1459 54.7586C64.2312 54.4413 64.2869 54.179 64.3721 53.9272C64.8542 52.5028 65.4215 51.1007 65.7896 49.6479C65.9297 49.0951 66.095 48.4279 65.9887 47.8127C65.8682 47.8214 65.2699 47.8305 65.1494 47.8393C65.8056 46.2678 67.0978 44.8864 66.6601 42.952C66.0184 42.8899 65.4229 42.8235 64.7851 42.7616C65.7147 40.2398 67.2573 38.1055 66.6764 35.3174L64.7507 35.3174C65.513 32.9009 66.627 30.8563 66.2242 28.0681L63.2274 28.0681C64.3498 25.8375 64.2405 23.2003 63.5551 20.7309C62.8005 20.9322 62.2231 21.1313 61.5326 21.3153C61.9971 19.5836 62.3577 18.0789 61.8004 16.4094C60.9699 16.7261 60.2515 17.0109 59.4777 17.3061C59.2816 14.0132 59.2022 12.6634 59.0372 11.3462C58.6937 11.4907 57.6399 11.3959 57.3661 11.5109L55.2227 0C53.8859 3.78245 52.7669 7.62995 52.063 11.6671C51.6868 11.5594 51.2466 11.4334 50.5063 11.2208C50.165 13.4524 49.8425 15.5614 49.517 17.6888C49.0071 17.4767 48.3625 17.2087 47.5157 16.8564C46.6987 19.4991 46.6824 21.9876 47.6751 24.7262C46.5952 24.2801 45.6706 23.8984 44.6093 23.4601C43.9442 26.0041 44.7875 28.222 45.702 30.5797C44.6882 30.5066 43.8334 30.4758 42.8165 30.4023C42.617 33.2292 43.7713 35.5032 45.3455 37.9197L43.3817 37.9197C43.3639 40.7078 44.618 42.9384 45.958 45.3548L44.6237 45.3548C44.225 47.2136 45.0039 48.6365 45.687 50.1557C45.8307 50.476 46.0043 51.015 45.8559 51.1724C45.1275 51.9459 44.7877 51.0472 45.7158 53.4909C46.2348 54.8571 46.9218 56.1499 47.5302 57.4793C47.2179 58.0925 46.8755 58.8554 47.1013 59.3734C47.8071 60.9943 48.7246 62.522 49.5683 64.0825C49.7083 64.342 49.8878 64.5793 50.097 64.9005C49.1973 65.2377 48.7882 65.8143 49.2261 66.5811C49.9477 67.8445 50.7877 69.0397 51.5708 70.2685C51.7284 70.5157 51.915 70.7676 51.9831 71.0434C52.1277 71.632 52.0773 72.2981 52.3303 72.8249C53.0238 74.2714 53.7493 75.7166 54.5027 77.1401L54.4525 77.1401C53.858 76.0821 53.2459 75.0337 52.6124 73.9993C52.3565 73.5813 51.8645 73.3132 51.5159 72.9435C51.3527 72.7701 51.2602 72.5236 51.1576 72.3002C50.649 71.1886 50.1903 70.0523 49.6287 68.9685C49.2884 68.3103 48.696 68.3363 48.048 68.8161C47.9175 68.5228 47.8324 68.2882 47.7138 68.0713C46.9989 66.7664 46.3409 65.424 45.5212 64.1886C45.2591 63.7933 44.5665 63.6873 43.9923 63.6278C43.333 62.5938 42.7382 61.5224 42.0116 60.5342C40.713 58.7673 41.1952 59.4182 40.3188 59.5788C40.1404 59.6119 39.8472 59.2491 39.6874 59.0019C38.9286 57.8284 38.165 56.5568 36.8057 56.0756C36.6152 56.3702 36.4415 56.6382 36.1975 57.0154C35.1253 54.9828 34.0138 53.011 31.9866 51.7176C31.6732 52.2015 31.4433 52.5571 31.0916 53.1004C30.2943 51.0122 29.0897 49.0796 27.0076 47.9324C26.5957 48.6822 26.2872 49.3358 25.8764 50.083C24.6323 48.3647 23.4544 46.7602 21.3599 46.0697C21.1842 47.0169 21.0318 47.8426 20.8543 48.8064C19.3781 46.8593 17.6176 45.7368 15.3837 45.1081C15.2463 45.8649 15.1415 46.4416 15.0586 46.897C13.4119 46.1571 11.7795 45.4234 10.0523 44.647C9.8644 45.2656 9.75288 45.6331 9.65715 45.947C6.49293 44.6037 3.27351 43.639 0 42.8572L7.13217 49.612C6.92659 49.7523 6.51412 50.5386 6.2565 50.7148C7.10875 51.4312 8.02643 52.1039 10.2562 53.7422C9.69581 54.1528 9.17331 54.5326 8.57218 54.9731C9.49413 56.1269 10.7297 56.5655 12.1609 57.0274C11.7167 57.4297 11.336 57.7605 10.8509 58.2003C12.2775 59.8084 14.0188 61.0439 16.2131 61.3421C15.7196 62.1049 15.3099 62.7389 14.848 63.4523C16.5155 64.9334 18.5377 65.1288 20.5675 65.6801C20.2922 66.1056 20.0346 66.5043 19.6901 67.0368C21.2764 68.643 23.5791 68.5915 25.779 69.0858C25.5318 69.5629 25.2907 70.0018 25.0422 70.4823C26.2054 71.6717 27.7671 71.3914 29.1728 71.645C29.1114 71.7253 28.833 72.1431 28.772 72.2238C29.1564 72.5794 29.7016 72.7667 30.1548 72.9203C31.3464 73.3225 32.5924 73.5614 33.8149 73.8712C34.0314 73.9261 34.2415 74.0062 34.5036 74.0908C34.3666 74.4854 34.2499 74.8213 34.0937 75.2715C35.9177 76.1475 37.8496 76.4845 39.9264 76.5832C39.7639 76.9747 39.656 77.2351 39.4489 77.7356C41.0776 78.044 42.6047 78.3137 44.1217 78.6346C44.4555 78.705 43.8481 79.2244 44.1674 79.3809C44.4572 79.5229 44.8055 79.5829 45.1704 79.6164C45.1528 79.7937 45.1385 79.9361 45.1202 80.1181C43.9001 79.5359 42.6901 79.134 41.3759 79.0749C41.3266 79.3803 41.2898 79.6089 41.2469 79.8772C41.0712 79.845 40.9259 79.8264 40.7855 79.7911C39.9898 79.592 39.2024 79.3457 38.3961 79.2091C38.0894 79.158 37.7193 79.0976 37.3895 79.1829C37.3999 79.2476 37.4308 79.5723 37.4408 79.6377C36.5579 79.3502 35.7501 78.7091 34.7175 79.032C34.7119 79.3844 34.7151 79.7095 34.7099 80.0588C33.2974 79.6647 31.995 78.9269 30.5919 79.3591C30.6256 79.7695 30.6501 80.077 30.6767 80.406C29.3443 80.0969 28.1263 79.5863 26.7151 79.9216C26.76 80.4725 26.7996 80.9616 26.8478 81.5501C25.4992 81.0462 24.1219 81.2175 22.8096 81.6995C22.9523 82.1012 23.0687 82.4075 23.199 82.7748C22.2372 82.5988 21.3945 82.4696 20.5115 82.8469C20.7199 83.2843 20.9026 83.6618 21.0971 84.0702C19.3158 84.3221 18.5834 84.4252 17.8749 84.5732C17.9682 84.7533 17.962 85.3307 18.0368 85.4742L11.8732 87.1486C13.9885 87.7081 16.1293 88.1463 18.3552 88.3503C18.3132 88.5599 18.2637 88.8047 18.1814 89.2166C19.4093 89.3034 20.5703 89.3858 21.7411 89.4683C21.6486 89.7546 21.5311 90.1176 21.3772 90.5929C22.8497 90.9204 24.2035 90.8195 25.6485 90.1587C25.4535 90.7654 25.2866 91.2849 25.0957 91.8814C26.508 92.1309 27.6762 91.5743 28.9177 90.9728C28.9229 91.5269 28.8984 91.9966 28.9032 92.5528C30.4492 92.5362 31.7338 91.8004 32.8335 90.8494C32.8673 91.2689 32.89 91.5435 32.9203 91.9169C34.4796 91.8 35.7228 91.0128 36.9624 90.1788C36.9864 90.4693 37.0029 90.6769 37.0217 90.904C37.9483 91.0468 38.7771 90.5533 39.5729 90.1146C39.7402 90.0224 40.0197 89.9046 40.1119 89.9787C40.5645 90.3401 40.0877 90.5648 41.3751 89.9522C42.0954 89.61 42.7664 89.1796 43.462 88.7902C43.8092 88.9328 44.2384 89.0852 44.5104 88.9393C45.3596 88.4841 46.1498 87.9177 46.9608 87.3904C47.0959 87.3025 47.2166 87.1943 47.3818 87.0666C47.6051 87.5408 47.9367 87.738 48.3339 87.466C48.9887 87.0177 49.6014 86.5082 50.2349 86.0281C50.3622 85.9312 50.4912 85.8188 50.638 85.7693C50.9516 85.6651 51.3156 85.6632 51.5912 85.5026C51.7199 85.4273 51.8476 85.3504 51.9756 85.2743L51.9756 85.5046L52.4701 85.5046C52.1849 85.5762 51.9009 85.6504 51.6249 85.7481C51.4875 85.797 51.4044 85.9952 51.3438 86.1617C50.9869 86.2807 50.6234 86.3785 50.2748 86.5205C49.6514 86.7755 49.8815 86.6807 49.8637 86.9538C49.8601 87.009 49.7304 87.0697 49.6449 87.0984C49.2388 87.237 48.8032 87.3699 48.5582 87.7387C48.6319 87.8174 48.699 87.8889 48.7928 87.9898C48.1077 88.1575 47.4376 88.3417 46.9011 88.8486C47.0218 88.9783 47.1101 89.0733 47.2459 89.2185C46.5641 89.2999 45.8991 89.5146 45.4018 90.0492C45.5942 90.2278 45.7662 90.3689 45.958 90.5464C45.3537 90.789 44.7877 91.0202 44.426 91.5924C44.6951 91.7156 44.9293 91.8225 45.2033 91.9472C44.5128 92.2416 44.0473 92.6822 43.6936 93.3006C43.909 93.3978 44.0726 93.4723 44.202 93.5311C43.859 93.9662 43.5185 94.3976 43.1585 94.854C43.3285 94.9562 43.4297 95.0166 43.5161 95.0688C42.8802 95.9111 42.3521 96.7975 41.8755 97.7145L44.4197 96.0943C44.4457 96.1661 44.6492 96.3471 44.6827 96.4377C44.9594 96.2369 45.228 96.0139 45.8823 95.4718C45.9632 95.6696 46.037 95.8533 46.1236 96.0653C46.5363 95.8767 46.7588 95.5417 47.003 95.1493C47.0898 95.312 47.1599 95.4495 47.2547 95.6276C47.8402 95.3228 48.338 94.8958 48.5904 94.2646C48.7807 94.4688 48.9393 94.638 49.1172 94.8289C49.6828 94.4428 49.8916 93.8552 50.2074 93.2918C50.3139 93.4054 50.4133 93.5116 50.546 93.6541C51.1427 93.3017 51.2992 92.6119 51.6106 91.9937C51.7345 92.1026 51.8472 92.2071 51.9714 92.3171C52.4128 92.0591 52.4455 91.5734 52.626 91.1736C52.6452 91.1977 52.7491 91.3122 52.7682 91.336C52.903 91.2485 52.9995 91.1 53.0792 90.9764C53.2879 90.6513 53.4523 90.2979 53.6355 89.9568C53.6682 89.8968 53.7073 89.8401 53.7521 89.7687C53.8593 89.8386 53.951 89.8986 54.0735 89.9782C54.4703 89.5005 54.7147 88.9505 54.8989 88.3391C55.0034 88.4164 55.0731 88.4685 55.2064 88.5674C55.42 88.1053 55.6144 87.6709 55.823 87.243C55.8689 87.1484 55.9783 87.3681 56.0484 87.2846C56.2178 87.0844 56.2471 86.7197 56.3804 86.4982C56.5157 86.2729 56.5036 86.3329 56.7049 86.1394C56.7321 86.1134 56.7587 86.079 56.7849 86.0411C57.0306 90.2667 57.1682 96.1191 56.3878 99.6318C56.3878 99.6318 57.4908 98.1621 58.1873 96.5079C58.5888 95.5542 58.6108 90.6899 58.5576 86.7402C58.5821 86.7261 58.6039 86.7225 58.6186 86.753C58.8275 87.1807 59.0216 87.6153 59.2351 88.0774C59.3684 87.9785 59.4381 87.9265 59.5426 87.8493C59.727 88.4605 59.9714 89.0105 60.3684 89.4882C60.4907 89.4087 60.5824 89.3486 60.6894 89.2785C60.7346 89.3503 60.7738 89.407 60.8062 89.4668C60.9895 89.8079 61.1541 90.1615 61.3623 90.4864C61.4421 90.6098 61.5389 90.7585 61.6733 90.8462C61.6926 90.8221 61.7963 90.7081 61.8159 90.6836C61.996 91.0836 62.0291 91.5695 62.4702 91.8271C62.5947 91.7171 62.7073 91.613 62.8311 91.5039C63.1423 92.1219 63.2992 92.8117 63.8959 93.164C64.0284 93.022 64.1278 92.9154 64.2343 92.8019C64.55 93.3651 64.7591 93.9532 65.3247 94.3389C65.5024 94.148 65.6611 93.9789 65.8513 93.7749C66.1037 94.406 66.6015 94.8328 67.1874 95.1376C67.2816 94.9601 67.3517 94.822 67.4385 94.6595C67.683 95.0519 67.9056 95.3865 68.3179 95.5756C68.4047 95.3635 68.4787 95.1798 68.559 94.9819C69.2138 95.5241 69.4821 95.7473 69.759 95.9477C69.7925 95.8575 69.9962 95.6759 70.0222 95.6044L72.566 97.2245C72.0894 96.3077 71.5617 95.4211 70.9254 94.5792C71.0122 94.5268 71.1132 94.4662 71.2834 94.364C70.9232 93.9077 70.5825 93.4764 70.2393 93.0409C70.3693 92.9827 70.5328 92.9082 70.7481 92.8108C70.3942 92.1922 69.9291 91.7517 69.2388 91.4572C69.5122 91.3323 69.7466 91.2256 70.0155 91.1028C69.6542 90.5301 69.088 90.299 68.4835 90.0566C68.6755 89.8789 68.8471 89.738 69.0397 89.5596C68.5425 89.0248 67.8774 88.8101 67.1958 88.7283C67.3316 88.5835 67.4201 88.4884 67.5408 88.359C67.0043 87.8515 66.3342 87.6673 65.6487 87.5C65.7429 87.3989 65.8097 87.3272 65.8835 87.2487C65.6388 86.8798 65.203 86.7471 64.7968 86.6088C64.7113 86.5798 64.5816 86.5192 64.5778 86.4638C64.5602 86.1907 64.7905 86.2857 64.1669 86.0309C63.8185 85.8885 63.4548 85.7907 63.0981 85.6717C63.0371 85.5052 62.954 85.3069 62.8168 85.258C62.7356 85.2294 62.6531 85.2041 62.5707 85.1788L62.5707 84.7081C62.8343 84.8808 63.0778 85.0093 63.2771 85.0517C63.8172 85.1658 63.7349 85.0777 64.1968 85.3141C64.652 85.5474 65.0825 86.1294 65.5755 86.2889C65.7805 86.3556 65.7349 85.8721 65.91 85.9829C66.7076 86.4829 67.4878 87.0097 68.3285 87.5634C68.4497 87.2573 68.5123 87.0978 68.6068 86.8588C69.5547 87.6922 70.5397 88.361 71.7054 88.7484C71.8277 88.4861 71.9184 88.2902 72.0255 88.0603C72.1755 88.1339 72.3007 88.188 72.4182 88.2553C73.0824 88.6363 73.7272 89.0579 74.4172 89.3858C74.6794 89.5098 74.9965 89.6581 75.3142 89.6652C75.322 89.6044 75.3767 89.3044 75.3841 89.2436C76.104 89.7261 76.6672 90.5079 77.6769 90.4801C77.7713 90.1654 77.8513 89.8722 77.9449 89.5598C79.1136 90.2728 80.0967 91.2673 81.4666 91.2358C81.541 90.8583 81.5973 90.5758 81.6568 90.2737C82.7752 90.8903 83.7399 91.6587 85.0931 91.7162C85.1926 91.21 85.2814 90.7602 85.3879 90.2193C86.4714 91.0154 87.7527 91.2113 89.054 91.1121C89.0278 90.715 89.0016 90.4102 88.9774 90.047C89.797 90.45 90.5211 90.7799 91.4106 90.6658C91.3344 90.2198 91.2667 89.8336 91.1957 89.4178C92.8602 89.6442 93.5443 89.7382 94.2186 89.7856C94.1805 89.5997 94.3328 89.0823 94.3025 88.9345L100.266 88.9977C98.5076 87.9571 96.6957 87.0188 94.7477 86.2695C94.8385 86.092 94.9452 85.8846 95.1241 85.5351C94.0428 85.145 93.0208 84.7758 91.99 84.4037C92.1461 84.17 92.3435 83.8741 92.6028 83.4856C91.3632 82.8168 90.1209 82.5635 88.6549 82.7899C88.9843 82.2947 89.2663 81.8702 89.5895 81.3826C88.3845 80.7995 87.1928 81.0025 85.9245 81.227C86.061 80.7277 86.2022 80.3117 86.3394 79.811C84.9463 79.4327 83.6048 79.7669 82.3754 80.3417C82.4514 79.9562 82.5007 79.7041 82.5687 79.3606C81.138 79.0693 79.8207 79.4604 78.4946 79.8948C78.5472 79.6273 78.5849 79.4366 78.6262 79.2283C77.8295 78.8639 76.9596 79.0965 76.133 79.2881C75.9594 79.3286 75.6783 79.3628 75.6142 79.273C75.2995 78.8335 75.7849 78.7526 74.4722 78.9755C73.7383 79.1002 73.0262 79.3164 72.302 79.4892C72.0264 79.2727 71.6797 79.0266 71.3983 79.0889C70.5187 79.2814 69.6654 79.5892 68.8023 79.8569C68.659 79.9015 68.5226 79.9682 68.3419 80.0411C68.262 79.5582 68.0142 79.2967 67.588 79.44C67.2824 79.5426 66.9814 79.6588 66.6816 79.7783C66.8772 79.6184 66.984 79.5487 67.4883 79.3563C68.2759 79.0563 69.4626 79.171 70.2007 78.7439C70.5087 78.566 69.8672 78.0896 70.1955 77.9966C71.6871 77.5721 73.1917 77.1981 74.7956 76.7789C74.5545 76.2938 74.4291 76.041 74.24 75.6618C76.3051 75.4207 78.2091 74.9521 79.9688 73.9528C79.7822 73.5143 79.643 73.1876 79.4792 72.803C79.7346 72.7008 79.9387 72.6065 80.1508 72.5368C81.3493 72.1439 82.5763 71.8204 83.7375 71.337C84.1788 71.1529 84.7098 70.9284 85.0691 70.5475C85.0026 70.4709 84.6963 70.0737 84.6295 69.9973C86.0145 69.6481 87.5917 69.8202 88.6705 68.554C88.3897 68.0915 88.119 67.6703 87.8398 67.2112C90.0005 66.5671 92.3011 66.461 93.7737 64.7494C93.3937 64.2418 93.1089 63.862 92.8054 63.4559C94.7924 62.7668 96.7964 62.4332 98.3585 60.8411C97.8487 60.1612 97.3962 59.5567 96.8516 58.8295C99.0204 58.3816 100.673 57.0293 101.986 55.3272C101.471 54.9218 101.069 54.6179 100.598 54.2471C101.994 53.6879 103.197 53.1656 104.038 51.9516C103.408 51.5531 102.861 51.2102 102.273 50.839C104.385 49.0514 105.254 48.3175 106.056 47.5443C105.786 47.3859 105.321 46.6298 105.106 46.5041"/>
	</g>
	<defs>
		<clipPath id="clip_1">
			<rect x="-908.48486" y="-678.37518" width="1436.5441" height="2091.9673" clip-rule="evenodd"/>
		</clipPath>
	</defs>
	<g clip-path="url(#clip_1)">
		<path fill="rgb(12,193,144)" stroke="none" transform="matrix(-0.654485 0.752898 -0.752898 -0.654485 191.574 59.5055)" d="M93.8353 35.0224C96.6455 33.7545 99.5298 32.7912 102.475 31.9736L96.3759 37.8579C96.5727 37.9602 96.9995 38.5758 97.2463 38.7047C96.5115 39.3342 95.7146 39.9316 93.778 41.3869C94.3166 41.6891 94.8184 41.9682 95.3958 42.2927C94.6251 43.2809 93.5224 43.7062 92.2424 44.1613C92.6739 44.4632 93.0429 44.7106 93.5145 45.0406C92.3104 46.4263 90.7955 47.5271 88.8068 47.8918C89.3062 48.4838 89.7211 48.9759 90.1886 49.5294C88.7562 50.8255 86.9187 51.0971 85.0967 51.658C85.375 51.9886 85.6361 52.2978 85.9845 52.711C84.6343 54.1044 82.5248 54.1908 80.5436 54.7151C80.7996 55.0889 81.0478 55.4318 81.3053 55.8083C80.3161 56.8391 78.8699 56.6989 77.5999 56.9833C77.6611 57.0454 77.942 57.3688 78.003 57.4312C77.6736 57.7412 77.1866 57.924 76.782 58.0738C75.7173 58.4674 74.5922 58.7307 73.4932 59.0506C73.2987 59.1073 73.1116 59.1841 72.8774 59.2673C73.0276 59.5804 73.1552 59.8464 73.3264 60.2033C71.7128 61.0168 69.967 61.3983 68.0734 61.5946C68.2467 61.9033 68.3618 62.1091 68.5829 62.504C67.1121 62.8452 65.7326 63.1497 64.3648 63.4953C64.2167 63.5325 64.2839 63.6454 64.3567 63.7676C64.4319 63.8938 64.513 64.0301 64.3696 64.1036C63.6928 64.4513 62.6047 64.358 61.8826 64.6022C61.4201 64.7588 61.3222 64.8156 61.1428 64.9457C61.4178 64.8484 61.6937 64.7538 61.9739 64.6703C62.3647 64.5536 62.5919 64.7665 62.6652 65.1597C62.8309 65.1004 62.956 65.046 63.0874 65.0097C63.8787 64.7918 64.6612 64.5412 65.4677 64.3845C65.7258 64.3338 66.0437 64.5341 66.2964 64.7104C66.9604 64.5697 67.6134 64.3937 68.2863 64.2922C68.9664 64.1896 69.1201 64.1661 69.1773 64.2295C69.2212 64.2783 69.208 64.3788 69.3335 64.5344C69.3923 64.6075 69.65 64.5797 69.8092 64.5467C69.8474 64.5388 69.8857 64.5309 69.9241 64.5229C70.6473 64.3728 71.4016 64.2163 72.0953 64.4979C72.0574 64.6676 72.0228 64.8228 71.9746 65.0406C73.1905 64.687 74.3984 64.3686 75.7103 64.6057C75.6479 64.8853 75.6027 65.0905 75.533 65.4044C76.6603 64.9365 77.8904 64.6644 79.1678 64.9723C79.042 65.38 78.9125 65.7187 78.7874 66.1251C79.9503 65.9423 81.043 65.7771 82.1479 66.2517C81.8515 66.6487 81.593 66.9943 81.291 67.3974C82.6352 67.2131 83.7743 67.4193 84.9109 67.9638C84.6732 68.28 84.4922 68.5209 84.349 68.7112C85.2943 69.0141 86.2313 69.3146 87.2228 69.6322C87.0588 69.9167 86.961 70.0856 86.8776 70.2301C88.6638 70.8401 90.3253 71.6039 91.9375 72.451L86.4694 72.3996C86.4825 72.4563 86.4584 72.5798 86.433 72.7105C86.4044 72.857 86.3741 73.0125 86.3926 73.0925C85.7742 73.0539 85.147 72.9773 83.6207 72.793C83.6858 73.1315 83.7479 73.4459 83.8177 73.809C83.0022 73.9019 82.3382 73.6333 81.5867 73.3052C81.6088 73.6009 81.6329 73.8491 81.6569 74.1723C80.4637 74.2531 79.2888 74.0936 78.2953 73.4455C78.1977 73.8858 78.1162 74.252 78.025 74.6641C76.7842 74.6173 75.8996 73.9918 74.8741 73.4898C74.8196 73.7357 74.7679 73.9657 74.6997 74.2731C73.7459 74.2925 72.9966 73.8304 72.222 73.3527C71.9765 73.2013 71.7285 73.0483 71.4706 72.9086C71.3847 73.163 71.3114 73.4016 71.2248 73.6578C70.546 73.6744 70.0872 73.3367 69.6305 73.0004C69.4644 72.8781 69.2985 72.756 69.1225 72.6512C69.1157 72.7007 69.0655 72.9449 69.0584 72.9944C68.7671 72.9887 68.4763 72.8679 68.2358 72.767C67.6032 72.5 67.0119 72.1569 66.4029 71.8466C66.2952 71.7919 66.1804 71.7478 66.0428 71.6879C65.9446 71.8751 65.8615 72.0346 65.7493 72.2481C64.6805 71.9327 63.7773 71.3883 62.9081 70.7098C62.8215 70.9044 62.7641 71.0342 62.6529 71.2834C61.882 70.8327 61.1667 70.4038 60.4354 69.9968C60.3563 69.9524 60.3263 70.0252 60.2938 70.1041C60.2602 70.1855 60.224 70.2734 60.1286 70.2458C59.6766 70.116 59.2818 69.6422 58.8644 69.4523C58.4409 69.2598 58.5164 69.3316 58.0211 69.2386C57.8384 69.2041 57.6151 69.0996 57.3734 68.959C57.3734 68.959 57.5246 69.3833 57.5991 69.4066C57.7249 69.4464 57.801 69.6079 57.8569 69.7435C58.184 69.8403 58.5176 69.9199 58.837 70.0358C59.4088 70.2433 59.1976 70.1659 59.4146 70.5063C59.787 70.6188 60.1867 70.7269 60.411 71.0273C60.3433 71.0911 60.2821 71.1495 60.1957 71.2318C60.8243 71.368 61.4387 71.518 61.9306 71.9311C61.82 72.0364 61.7389 72.1139 61.6143 72.2318C62.2393 72.2983 62.8491 72.4731 63.305 72.9085C63.1285 73.0537 62.9711 73.1684 62.7951 73.3131C63.3494 73.5104 63.8685 73.6985 64.1998 74.1647C63.9532 74.2647 63.7383 74.3516 63.4876 74.4533C64.1206 74.693 64.547 75.0516 64.8715 75.5552C64.6742 75.6345 64.5242 75.6952 64.4051 75.7425C64.7197 76.0971 65.0321 76.4481 65.3624 76.8196C65.2063 76.9028 65.1137 76.9522 65.0341 76.9949C65.6176 77.6802 66.1014 78.402 66.5384 79.1483L64.206 77.8294C64.1821 77.8876 63.9953 78.0355 63.9646 78.1089C63.7107 77.9457 63.4647 77.764 62.8643 77.3226C62.7907 77.4838 62.7228 77.6333 62.6432 77.8059C62.2652 77.652 62.061 77.3797 61.8369 77.0602C61.7573 77.1925 61.693 77.3049 61.6066 77.4494C61.0694 77.2012 60.613 76.8538 60.3815 76.3401C60.2071 76.5061 60.0616 76.6438 59.8986 76.7992C59.38 76.4852 59.1882 76.0064 58.8988 75.5479C58.8012 75.6404 58.71 75.7271 58.5885 75.8427C58.0414 75.556 57.8975 74.9944 57.6122 74.4913C57.4987 74.5801 57.3954 74.6648 57.2812 74.7544C56.8768 74.5447 56.8464 74.1491 56.5505 73.9559C56.4273 73.8845 56.3385 73.7634 56.2654 73.6629C56.0745 73.3984 55.9235 73.1106 55.6484 72.6797C55.5502 72.7367 55.4662 72.7856 55.354 72.8503C54.99 72.4615 54.7659 72.0137 54.5968 71.5162C54.501 71.579 54.4371 71.6213 54.3149 71.7018C54.119 71.3257 53.9411 70.9719 53.6936 70.6132C53.7424 73.8286 53.7223 77.7885 53.3541 78.5649C52.7155 79.9115 51.7041 81.108 51.7041 81.108C52.4196 78.2484 52.2935 73.4841 51.9949 70.1242C51.8103 70.2817 51.8214 70.2328 51.6973 70.4162C51.5751 70.5966 51.5481 70.8935 51.1861 71.0226C50.9949 71.3709 50.8166 71.7245 50.6208 72.1007C50.4986 72.0202 50.4347 71.9778 50.3389 71.9149C50.17 72.4126 49.9458 72.8603 49.582 73.2492L49.5813 73.2488C49.4693 73.1843 49.3852 73.1358 49.1804 73.2318C49.0123 73.5095 48.8617 73.7972 48.6703 74.0618C48.5972 74.1624 48.5087 74.2833 48.2547 74.2224C48.0892 74.5479 48.0593 74.9433 47.6545 75.1533C47.5406 75.0637 47.4373 74.9787 47.3236 74.89C47.0382 75.3933 46.8946 75.9548 46.3475 76.2417C46.2258 76.1257 46.1347 76.0393 46.037 75.9468C45.7474 76.4055 45.556 76.8838 45.0374 77.1981C44.8743 77.0427 44.7289 76.905 44.5543 76.7387C44.3229 77.2525 43.8664 77.6001 43.3296 77.8483C43.2426 77.7033 43.1784 77.5913 43.0988 77.4589C42.8748 77.7784 42.6708 78.0511 42.2924 78.2047C42.213 78.032 42.1454 77.8825 42.0712 77.7215C41.4713 78.1627 41.225 78.3443 40.9712 78.5077C40.9405 78.4341 40.7539 78.2867 40.73 78.2283L38.3972 79.5472C38.8342 78.8007 39.3184 78.0791 39.9015 77.3934C39.8223 77.3509 39.7295 77.3017 39.5736 77.2185C39.9037 76.847 40.216 76.4958 40.5304 76.1416C40.4118 76.0937 40.2618 76.0331 40.0643 75.9539C40.3886 75.4505 40.8154 75.0919 41.4486 74.8522C41.1974 74.7506 40.9826 74.6636 40.7358 74.5633C41.0675 74.0975 41.5865 73.9093 42.1406 73.7118C41.9647 73.5673 41.807 73.4525 41.6306 73.307C42.0866 72.8718 42.6964 72.6971 43.3216 72.6308C43.197 72.5126 43.116 72.4353 43.0054 72.3297C43.4973 71.917 44.1117 71.7671 44.7399 71.6306C44.6539 71.5484 44.5923 71.4901 44.5249 71.4261C44.7495 71.1259 45.1488 71.0177 45.7218 70.7871C45.7291 70.6886 45.6917 70.6489 45.6975 70.6172C45.7049 70.5773 45.7805 70.55 46.0989 70.4344C46.4184 70.3188 46.7518 70.2392 47.0791 70.1423C47.1346 70.0067 47.2108 69.8454 47.3368 69.8056C47.5899 69.7261 47.8503 69.6657 48.1117 69.6074L47.6584 69.4199C47.5409 69.4818 47.4239 69.5445 47.3059 69.6058C47.0532 69.7365 46.7194 69.738 46.4319 69.8229C46.2973 69.8631 46.179 69.9547 46.0622 70.0335C45.4814 70.4244 44.9196 70.8392 44.3191 71.2041C43.9549 71.4255 43.6508 71.265 43.4461 70.879C43.2946 70.9829 43.184 71.071 43.0601 71.1426C42.3165 71.5719 41.5919 72.0329 40.8132 72.4035C40.5638 72.5223 40.1703 72.3982 39.8519 72.2822C39.2141 72.5992 38.5989 72.9495 37.9384 73.228C37.2729 73.5092 37.1215 73.5737 37.0418 73.5238C36.98 73.4852 36.9612 73.378 36.7801 73.2497C36.6956 73.1893 36.4392 73.2852 36.2858 73.3603C36.2492 73.3782 36.2124 73.3963 36.1756 73.4144C35.4796 73.7565 34.7535 74.1133 33.9465 74.003C33.9293 73.818 33.9142 73.649 33.8922 73.4125C32.7555 74.0915 31.6156 74.7323 30.1858 74.8275C30.158 74.5235 30.1372 74.3 30.1062 73.9585C29.0979 74.7326 27.92 75.3317 26.5024 75.3452C26.5002 75.12 26.5047 74.9122 26.5091 74.7048C26.5136 74.4951 26.5181 74.2857 26.5157 74.0589C25.3774 74.5486 24.3062 75.0017 23.0112 74.7986C23.1862 74.313 23.3393 73.8901 23.5181 73.3962C22.1931 73.9341 20.9517 74.0163 19.6015 73.7496C19.7427 73.3627 19.8504 73.0672 19.9353 72.8342C18.8617 72.767 17.7971 72.6999 16.6712 72.6293C16.7467 72.2939 16.792 72.0947 16.8305 71.924C14.7895 71.758 12.8266 71.4012 10.887 70.9457L16.5386 69.5826C16.4701 69.4658 16.4757 68.9958 16.3901 68.8492C17.0398 68.7287 17.7114 68.6447 19.3447 68.4397C19.1664 68.1072 18.9989 67.7999 18.8078 67.4438C19.6174 67.1367 20.3902 67.2418 21.272 67.3851C21.1525 67.0861 21.0458 66.8367 20.9149 66.5098C22.1182 66.1174 23.3812 65.9779 24.6177 66.3881C24.5736 65.909 24.5373 65.5109 24.496 65.0624C25.5242 64.8455 26.4405 65.0633 27.3865 65.2882C27.631 65.3464 27.8776 65.405 28.1286 65.4567C28.1042 65.1889 28.0817 64.9386 28.0509 64.6045C29.0279 64.3373 29.9517 64.6194 30.9069 64.9111C31.2095 65.0035 31.5152 65.0969 31.8268 65.174C31.8316 64.8897 31.8287 64.6251 31.8338 64.3382C32.5281 64.1454 33.1115 64.3746 33.6926 64.6029C33.9039 64.686 34.115 64.7689 34.3309 64.8313C34.3217 64.778 34.2934 64.5137 34.2838 64.461C34.5862 64.3916 34.9255 64.4408 35.2068 64.4824C35.9461 64.5936 36.6681 64.7941 37.3978 64.9561C37.5265 64.9849 37.6597 65 37.8208 65.0262C37.8602 64.8079 37.8939 64.6217 37.9391 64.3731C39.1441 64.4212 40.2536 64.7484 41.3724 65.2223C41.3891 65.0742 41.4022 64.9583 41.4184 64.8139C41.0839 64.7867 40.7645 64.7378 40.4987 64.6222C40.35 64.5575 40.4205 64.4166 40.4858 64.2861C40.5491 64.1596 40.6075 64.0429 40.4568 64.0146C39.0659 63.7535 37.6655 63.5339 36.1721 63.2829C36.362 62.8753 36.461 62.6633 36.61 62.3447C34.7057 62.2643 32.9343 61.99 31.2618 61.2768C31.405 60.9103 31.512 60.6369 31.6376 60.3156C31.3973 60.2468 31.2047 60.1816 31.0061 60.1369C29.8851 59.8847 28.7427 59.6902 27.65 59.3628C27.2345 59.2378 26.7346 59.0852 26.3821 58.7958C26.438 58.7301 26.6933 58.3899 26.7496 58.3246C26.4058 58.2695 26.0518 58.2454 25.6972 58.2212C24.7227 58.1548 23.7442 58.088 22.9621 57.3781C23.19 56.9869 23.411 56.6296 23.6377 56.2412C21.6206 55.8388 19.5092 55.8807 18.0546 54.5732C18.3704 54.1397 18.6067 53.8151 18.8591 53.4687C16.9979 53.0199 15.1437 52.8609 13.6147 51.6551C14.0382 51.0744 14.4139 50.5582 14.8664 49.9372C12.8544 49.6945 11.2577 48.6887 9.94956 47.3796C10.3944 47.0216 10.7435 46.7522 11.1508 46.4248C9.83843 46.0487 8.70552 45.6916 7.86014 44.7524C8.41134 44.3938 8.89045 44.0846 9.40432 43.7503C7.35973 42.4166 6.51828 41.869 5.73681 41.2858C5.97304 41.1423 6.35125 40.5023 6.53975 40.388L0 34.8891C3.0016 35.5255 5.95361 36.3109 8.855 37.4044C8.94277 37.1489 9.04504 36.8497 9.21735 36.3461C10.8011 36.9782 12.2979 37.5754 13.8078 38.1778C13.8838 37.8071 13.9799 37.3376 14.1059 36.7215C16.1542 37.2333 17.7685 38.1471 19.1221 39.7322C19.2849 38.9476 19.4246 38.2754 19.5857 37.5043C21.5062 38.0665 22.5863 39.3727 23.727 40.7715C24.1037 40.1632 24.3866 39.6311 24.7643 39.0207C26.6734 39.9546 27.778 41.5279 28.509 43.2278C28.8315 42.7855 29.0423 42.4961 29.3297 42.1022C31.1885 43.155 32.2077 44.7603 33.1908 46.4149C33.4146 46.1079 33.5738 45.8897 33.7485 45.6499C34.9949 46.0416 35.6951 47.0768 36.3908 48.0321C36.5374 48.2333 36.8062 48.5287 36.9698 48.5018C37.3284 48.4434 37.4389 48.3056 37.5572 48.2987C37.704 48.29 37.8626 48.483 38.522 49.2796C39.1882 50.084 39.7336 50.9562 40.3382 51.798C40.8647 51.8464 41.4997 51.9327 41.74 52.2545C42.4917 53.2602 43.095 54.353 43.7505 55.4153C43.8593 55.5919 43.9374 55.7828 44.057 56.0216C44.6511 55.6311 45.1943 55.6099 45.5064 56.1457C46.0213 57.028 46.442 57.9531 46.9083 58.858C47.0024 59.0398 47.0872 59.2405 47.2369 59.3817C47.5565 59.6827 48.0076 59.9009 48.2423 60.2412C48.8232 61.0833 49.3844 61.9367 49.9755 62.798C49.2847 61.6392 48.6195 60.4627 47.9836 59.2851C47.7516 58.8563 47.7978 58.314 47.6652 57.8349C47.6028 57.6103 47.4317 57.4053 47.2872 57.204C46.5691 56.2037 45.7989 55.2307 45.1372 54.2022C44.7357 53.578 45.1108 53.1086 45.9357 52.8341C45.744 52.5726 45.5794 52.3794 45.451 52.1681C44.6774 50.8978 43.8361 49.6541 43.189 48.3346C42.9819 47.9128 43.2958 47.2918 43.5822 46.7926C43.0243 45.7104 42.3944 44.658 41.9185 43.5458C41.4585 42.4704 41.3382 42.1901 41.4302 42.0601C41.5084 41.9496 41.7401 41.9476 42.047 41.6583C42.183 41.5302 42.0238 41.0913 41.8921 40.8306C41.8343 40.7166 41.7759 40.6033 41.7176 40.4903C41.1432 39.3773 40.5853 38.2961 40.9172 36.9223L42.1406 36.9223L42.1009 36.8588C40.8873 34.916 39.7621 33.1149 39.7783 30.8695L41.579 30.8695C40.1355 28.9024 39.0771 27.0511 39.26 24.7499C40.1925 24.8096 40.9763 24.8348 41.9059 24.8942C41.0673 22.9749 40.294 21.1693 40.9039 19.0984C41.8771 19.4552 42.7248 19.7658 43.7151 20.129C42.8048 17.8996 42.8198 15.8738 43.5689 13.7224C44.3454 14.0092 44.9365 14.2274 45.404 14.4C45.7024 12.6682 45.9981 10.9513 46.3111 9.13457C46.9899 9.30768 47.3935 9.41028 47.7385 9.49789C48.3839 6.21138 49.41 3.07921 50.6358 0L52.6011 9.37078C52.8522 9.27711 53.8184 9.35429 54.1334 9.23671C54.2847 10.309 54.3575 11.4078 54.5373 14.0885C55.2468 13.8482 55.9056 13.6164 56.6671 13.3585C57.1781 14.7177 56.8474 15.9426 56.4215 17.3523C57.0547 17.2025 57.5841 17.0404 58.2761 16.8765C58.9045 18.8868 59.0047 21.0338 57.9756 22.8496L60.7234 22.8496C61.0138 24.6341 60.4445 26.0445 59.8481 27.522C59.6859 27.9238 59.5218 28.3305 59.3723 28.7511L61.1381 28.7511C61.54 30.4637 60.8333 31.8732 60.0961 33.3439C59.8562 33.8224 59.6131 34.3073 59.4039 34.8113C59.9886 34.8617 60.5347 34.9157 61.1231 34.9662C61.4173 36.1207 60.8591 37.0332 60.3031 37.9421C60.1007 38.273 59.8985 38.6034 59.7379 38.9449C59.8484 38.9378 60.397 38.9304 60.5075 38.9232C60.6049 39.4241 60.4534 39.9672 60.3249 40.4172C59.9874 41.5999 59.4673 42.7413 59.0251 43.9009C58.9471 44.1059 58.8959 44.3195 58.8177 44.5778C59.2615 44.6738 59.6391 44.7562 60.1446 44.8659C59.8661 46.8143 59.0285 48.5662 57.8861 50.3101C58.3413 50.3842 58.6447 50.434 59.2273 50.5287C58.5433 52.0185 57.8846 53.4061 57.2785 54.8108C57.2127 54.9632 57.3822 54.9872 57.5657 55.0132C57.7549 55.04 57.9591 55.0689 57.9357 55.2429C57.8256 56.0646 56.9477 56.9221 56.6944 57.7085C56.5174 58.2578 56.5227 58.3567 56.5385 58.6538C56.5457 58.7878 56.555 58.9621 56.5507 59.2363C56.5464 59.5136 56.4438 59.8605 56.306 60.2047C56.5139 59.8509 56.9473 59.6058 57.2425 59.2859C57.3811 59.1359 57.4501 58.9306 57.5297 58.7436C57.9253 57.8123 58.2735 56.8639 58.7187 55.9522C58.9888 55.3988 59.5325 55.3865 60.1552 55.7403C60.2564 55.4947 60.3195 55.2995 60.4141 55.1166C60.986 54.0168 61.5037 52.8899 62.1757 51.8407C62.3905 51.505 63.0173 51.3802 63.5389 51.3C64.0771 50.4232 64.554 49.5199 65.1563 48.6769C65.7505 47.8446 65.8948 47.641 66.0414 47.6394C66.1603 47.6381 66.2808 47.7698 66.6446 47.8063C66.8101 47.823 67.0554 47.5122 67.1859 47.3024C67.8065 46.307 68.4245 45.2315 69.6381 44.7648C69.8306 44.9934 70.0064 45.2015 70.2533 45.4942C71.1064 43.7833 71.9988 42.1199 73.7722 40.9564C74.0894 41.3319 74.3219 41.6077 74.6779 42.0294C75.2758 40.2887 76.2564 38.6521 78.0888 37.6037C78.5126 38.1898 78.836 38.7037 79.2587 39.2876C80.2886 37.8225 81.2652 36.4535 83.138 35.7758C83.3581 36.5354 83.5493 37.1973 83.7724 37.9701C85.0006 36.3062 86.5403 35.2963 88.5442 34.661C88.7175 35.2681 88.8496 35.7304 88.9541 36.0957C90.4139 35.4028 91.8613 34.7156 93.3925 33.9885C93.603 34.4806 93.7283 34.7728 93.8353 35.0224ZM43.8694 89.4063C43.743 89.3405 43.5947 89.2885 43.2553 89.1966C43.1261 89.1617 42.9859 89.1382 42.8396 89.1208C43.186 89.2187 43.5287 89.314 43.8694 89.4063Z" fill-rule="evenodd"/>
	</g>
	<defs>
		<clipPath id="clip_2">
			<rect x="-908.48486" y="-678.37518" width="1436.5441" height="2091.9673" clip-rule="evenodd"/>
		</clipPath>
	</defs>
	<g clip-path="url(#clip_2)">
		<path fill="rgb(12,193,144)" stroke="none" transform="matrix(0.0522104 0.996233 -0.996233 0.0522104 199.746 33.9112)" d="M119.588 72.0412C117.324 72.0412 114.854 72.247 112.59 72.0412L110.532 72.0412C109.708 72.247 108.679 72.247 107.856 72.6587L107.856 71.8353C107.238 71.6295 106.621 72.247 106.003 72.0412C104.563 71.8353 103.328 72.4528 101.887 72.4528L101.887 72.0412C101.681 71.8353 101.269 71.8353 101.063 71.8353C100.858 72.0412 100.446 72.247 100.24 72.247C99.4168 72.247 98.5935 73.0703 97.7701 73.0703C97.7701 73.0703 97.5643 72.4528 97.5643 72.247C96.1235 72.6587 95.0943 73.6878 93.6535 73.6878C92.2127 73.6878 90.9777 74.3053 89.7427 74.9228C89.331 75.1286 88.7135 74.9228 88.3019 74.9228C87.2727 75.1286 86.6552 75.952 85.8319 76.5695C84.1852 77.3928 82.7444 78.0103 81.3036 79.0394C80.8919 79.2453 80.4803 79.2453 80.0686 79.4511C78.0103 81.0978 75.952 82.3328 73.6878 83.9794C73.0703 84.3911 72.6587 84.3911 72.0412 84.8027C69.3653 86.6552 66.8954 87.8902 63.8079 88.9194L63.1904 89.5369C64.6312 87.0669 66.4837 85.2144 68.7479 83.3619C70.8062 81.9211 72.8645 80.6861 75.1286 79.8628L74.5112 79.2453C76.1578 78.422 77.8045 77.8045 79.2453 76.7753C79.0395 76.5695 78.8336 76.3636 78.6278 76.3636C80.2744 75.7461 81.7153 74.9228 83.3619 74.5111C83.1561 74.0995 82.9503 73.6878 82.5386 73.482C82.9503 73.0703 83.3619 73.0703 83.9794 72.8645C85.0086 72.4528 85.8319 71.8353 86.8611 71.2178C86.4494 71.012 86.2436 70.8062 85.8319 70.6003C87.0669 69.5712 88.7135 69.1595 89.9485 68.1304C88.9194 67.9245 89.1252 67.307 89.5369 66.8954C90.3602 66.4837 91.1835 66.072 92.0069 65.4545C92.2127 65.2487 92.4185 65.0429 92.2127 64.837C91.801 64.4254 91.5952 64.4254 90.9777 64.2196C92.2127 63.1904 94.4768 62.7787 95.0943 61.1321C94.8885 61.1321 94.8885 61.1321 94.4768 60.7204C94.271 60.7204 94.0652 60.5146 93.6535 60.5146C94.0652 60.5146 94.4768 60.3087 94.6827 60.1029C94.6827 60.1029 94.4768 59.8971 94.4768 59.6913C95.0943 59.4854 95.3002 58.8679 96.1235 58.6621C96.5352 58.4563 97.1527 57.8388 96.9468 57.4271C96.741 57.0154 95.9177 56.8096 95.3002 57.0154C95.9177 56.8096 96.5352 56.6038 96.9468 55.9863L96.9468 55.5746C97.5643 54.9571 98.3876 54.5455 98.7993 53.7221C98.5935 53.7221 98.5935 53.7221 98.1818 53.3105C97.976 53.3105 97.5643 53.3105 97.3585 53.1046C97.5643 53.1046 97.976 52.8988 98.1818 52.693L98.1818 52.2813C99.0051 51.6638 100.446 51.2521 100.652 50.0172C100.446 50.0172 100.446 50.0172 100.034 49.6055C99.8285 49.6055 99.4168 49.6055 99.0051 49.3997C99.4168 49.3997 99.8285 49.1938 100.24 48.988C100.446 48.7822 100.034 48.5763 100.034 48.3705C100.652 47.753 101.681 47.753 101.887 46.3122C101.269 46.3122 100.858 46.3122 100.24 46.1063C100.858 45.9005 101.475 45.9005 101.887 45.283L101.681 45.0772C102.504 44.4597 103.328 44.048 103.533 43.0189C103.122 43.0189 102.916 42.4014 102.298 42.6072C102.71 42.1955 103.328 42.1955 103.739 41.7839L103.533 41.3722C104.151 40.7547 104.974 40.3431 105.18 39.3139C104.768 39.3139 104.151 39.3139 103.739 39.1081C104.357 39.1081 104.768 38.6964 104.974 38.2847L104.768 37.8731C105.386 37.2556 106.209 36.6381 106.415 35.6089L105.18 35.6089C105.592 35.4031 105.798 34.9914 106.209 34.7856L106.209 34.3739C106.415 33.7564 107.238 33.3448 107.238 32.5214L107.033 32.5214C108.679 28.6106 112.178 25.9348 113.825 22.024C110.12 24.6998 106.827 27.9931 103.533 31.0806C103.328 30.8748 103.328 30.669 103.122 30.4631C102.916 30.669 102.504 30.8748 102.298 31.0806C101.475 32.1098 100.858 32.7273 99.8285 33.3448C99.6226 33.3448 99.211 33.5506 98.7993 32.9331C97.976 33.7564 97.3585 34.3739 96.741 35.4031C96.5352 35.6089 96.1235 35.6089 95.9177 35.6089C95.506 35.8148 95.3002 36.6381 95.0943 37.0497C94.8885 36.6381 94.8885 35.8148 94.271 36.0206C93.6535 36.4322 93.6535 37.2556 93.2419 37.4614C92.6244 38.0789 92.4185 39.1081 91.5952 38.6964C91.5952 38.6964 91.3894 38.4906 91.3894 38.2847C90.566 38.6964 90.1544 39.3139 89.7427 40.1372C89.7427 40.1372 89.5369 40.3431 89.331 40.3431C89.1252 40.5489 89.1252 40.9605 88.9194 41.1664C88.3019 41.3722 87.8902 40.9605 87.6844 40.5489C86.8611 41.3722 86.4494 42.6072 85.4202 43.2247C85.6261 43.8422 85.0086 44.4597 85.2144 45.0772C84.8027 44.6655 84.8027 43.8422 83.9794 43.6364C83.5678 44.6655 83.1561 45.4888 82.5386 46.3122C82.1269 46.518 82.1269 47.1355 81.7153 47.3413C81.3036 47.3413 80.8919 47.1355 80.6861 46.7238C80.0686 48.3705 78.8336 50.0172 79.0395 51.8696C78.2161 51.6638 78.6278 50.4288 77.8045 50.223C76.7753 51.2521 76.9811 52.8988 76.3636 54.1338C76.1578 54.5455 75.7461 54.3396 75.1286 54.1338C75.1286 55.1629 74.717 56.1921 74.5112 57.0154C74.3053 57.6329 73.8937 58.2504 73.2762 58.2504C73.0703 58.2504 73.0703 58.0446 72.8645 58.0446L72.8645 58.8679C72.4528 59.8971 72.4528 60.9262 72.247 61.9554C72.247 62.3671 71.8353 62.5729 71.6295 62.7787C71.6295 62.5729 71.4237 62.5729 71.4237 62.3671C71.012 64.0137 71.012 65.6604 69.9828 67.1012C69.9828 66.8954 69.777 66.8954 69.777 66.6895C69.3653 68.1304 69.9828 69.9828 68.7479 71.012C68.7479 71.012 68.542 70.8062 68.3362 70.8062C68.3362 72.4528 68.542 74.0995 67.9245 75.5403L67.5129 75.5403C67.1012 79.0394 66.072 82.1269 64.4254 85.2144C64.0137 86.2436 63.6021 87.6844 62.3671 87.8902C62.1612 83.5677 63.6021 79.0394 65.8662 75.3345C65.6604 75.3345 65.4545 75.5403 65.2487 75.5403C65.2487 75.3345 65.4545 75.1286 65.0429 75.1286C65.4545 73.2762 66.2779 71.8353 66.6895 69.9828C66.4837 70.1887 66.072 70.1887 65.8662 70.3945L65.8662 69.777C66.4837 68.1304 67.7187 66.4837 67.1012 64.6312C66.8954 64.837 66.4837 64.837 66.2779 64.837C66.4837 64.6312 66.6895 64.2196 66.6895 64.0137L66.6895 63.1904C66.4837 62.1612 66.8954 61.1321 66.4837 60.1029L66.072 59.8971C66.4837 58.6621 66.4837 57.6329 66.4837 56.3979C66.2779 56.6038 66.072 56.6038 65.8662 56.8096C65.8662 56.6038 65.6604 56.1921 65.6604 55.9863C66.072 54.7513 66.8954 53.3105 66.072 52.2813C65.8662 52.0755 65.4545 52.8988 64.8371 52.4871C65.2487 52.2813 64.8371 51.8696 64.8371 51.458C64.8371 50.6346 65.6604 49.6055 65.4545 48.7822C65.2487 48.1647 64.6312 48.988 64.0137 48.988C64.4254 47.753 65.6604 46.3122 64.6312 44.8714C64.6312 44.8714 64.0137 45.0772 63.6021 45.283C64.0137 44.048 64.6312 42.6072 64.2196 41.1664C64.0137 40.9605 63.6021 41.1664 63.1904 41.3722C63.3962 40.9605 63.8079 40.5489 63.6021 40.1372C63.3962 39.9314 63.1904 39.9314 62.9846 39.9314C63.3962 38.9022 63.6021 37.8731 63.3962 36.6381C62.9846 37.0497 62.3671 37.2556 61.9554 37.4614C62.7787 36.8439 62.1612 35.8148 62.5729 34.9914C62.7787 34.1681 62.7787 33.1389 62.7787 32.3156C62.3671 32.5214 61.7496 32.7273 61.3379 33.1389C61.5437 32.7273 61.7496 32.1098 61.7496 31.6981L61.7496 28.4048C61.1321 28.4048 60.7204 28.6106 60.3087 29.0223C60.3087 28.4048 60.9262 27.9931 61.1321 27.3756C61.1321 27.1698 60.5146 26.964 60.5146 26.964C60.7204 25.9348 60.9262 25.1115 60.5146 24.0823C60.1029 24.2882 59.8971 24.494 59.4854 24.6998C59.4854 23.259 59.8971 22.024 59.6913 20.5832C59.0738 20.5832 58.6621 20.789 58.2504 21.2007C58.4563 19.7599 59.2796 18.319 58.2504 17.084C58.2504 17.084 57.6329 17.4957 57.2213 17.7015C57.2213 16.2607 57.2213 14.8199 56.8096 13.5849C56.6038 13.7907 56.1921 13.7907 55.9863 13.9966C55.9863 12.9674 55.7804 11.9382 55.5746 10.9091L55.163 10.9091L54.5455 6.58662C54.3396 4.5283 54.1338 2.46998 54.5455 0.411664C54.5455 0.205832 54.3396 0.205832 54.3396 0C53.7221 1.23499 53.3105 2.46998 53.1046 3.91081C52.8988 6.58662 52.4871 9.26243 52.0755 11.9382L51.6638 11.9382C51.0463 13.1732 51.6638 14.6141 51.458 15.8491C51.2521 15.6432 50.8405 15.4374 50.6346 15.6432C50.0172 17.084 50.6346 18.7307 50.4288 20.3774C50.0172 20.3774 49.6055 19.9657 49.1938 19.7599C48.7822 21.2007 49.1938 22.8473 49.3997 24.2882C48.988 24.2882 48.7822 24.0823 48.3705 23.8765C48.1647 24.494 47.9588 25.1115 48.1647 25.729C48.5763 26.5523 48.3705 27.5815 48.7822 28.4048C48.3705 28.199 47.753 27.9931 47.5472 28.199C46.7238 29.434 47.9588 30.8748 47.753 32.1098C47.753 32.1098 47.3413 32.1098 46.9297 31.9039C46.9297 32.9331 46.7238 33.9623 47.5472 34.7856C47.3413 34.7856 47.3413 34.9914 47.1355 34.9914C47.5472 35.6089 47.5472 36.6381 48.1647 37.0497L47.9588 37.2556C47.3413 37.0497 46.7238 36.6381 46.3122 36.2264C45.9005 37.2556 46.7238 38.4906 46.9297 39.5197L46.518 39.5197C46.7238 40.1372 46.9297 40.7547 47.3413 41.3722C46.9297 41.1664 46.3122 41.1664 45.9005 40.9605C45.9005 41.1664 45.6947 41.578 45.6947 41.7839C46.3122 43.4305 46.7238 45.0772 47.5472 46.518L45.6947 45.9005C45.6947 46.9297 46.3122 47.753 46.7238 48.7822L46.518 48.988C46.518 49.3997 46.9297 49.6055 47.1355 50.0172L46.1063 50.0172C46.3122 51.2521 46.518 52.4871 47.1355 53.7221C46.9297 53.7221 46.518 53.5163 46.518 53.5163C45.6947 54.9571 47.1355 56.6038 47.5472 58.0446L46.3122 58.0446C46.7238 59.8971 47.9588 61.1321 48.5763 62.7787C48.3705 62.7787 47.753 62.7787 47.753 62.9846C47.9588 64.837 49.6055 65.8662 50.8405 67.1012C50.4288 67.1012 50.0172 67.1012 49.6055 66.8954C50.223 68.1304 51.0463 69.1595 52.0755 69.9828C52.0755 69.9828 51.6638 70.3945 51.6638 70.6003C52.693 72.0412 53.928 73.2762 55.163 74.5111C54.7513 74.5111 53.928 74.5111 54.1338 74.9228C54.3396 75.7461 55.3688 75.952 55.9863 76.5695C56.3979 77.187 57.4271 77.5986 56.8096 78.422C57.8388 79.4511 59.0738 80.2744 59.6913 81.7153C59.8971 82.1269 60.1029 82.7444 60.3087 83.1561C60.5146 84.5969 61.1321 86.2436 61.1321 87.6844C61.1321 88.096 60.5146 88.5077 59.8971 88.096C56.1921 85.2144 54.7513 81.0978 52.2813 77.3928C52.2813 77.5986 52.2813 78.0103 52.0755 78.2161C51.2521 77.3928 50.6346 75.5403 50.6346 74.3053C50.4288 74.5111 50.4288 74.717 50.223 74.9228C48.988 74.0995 48.7822 72.247 48.1647 70.8062C48.1647 71.012 47.9588 71.6295 47.5472 71.012C46.518 69.9828 46.3122 68.3362 45.283 67.1012C45.0772 67.5129 44.6655 67.9245 44.6655 68.3362C44.2539 66.4837 43.0189 65.2487 41.9897 63.8079L41.7839 64.0137C41.3722 64.0137 40.9605 63.8079 40.7547 63.6021C39.9314 62.7787 39.7256 61.5437 38.6964 60.9262C38.4906 60.9262 38.2847 61.1321 38.0789 61.3379C37.4614 60.1029 36.6381 58.8679 35.4031 58.0446C35.4031 58.4563 35.1973 58.6621 35.1973 59.0738C34.1681 57.8388 33.7564 56.3979 32.5214 55.3688C32.5214 55.5746 32.3156 55.9863 32.1098 55.9863C31.6981 55.7804 31.6981 55.3688 31.6981 54.9571L31.2864 54.9571C30.8748 54.5455 30.669 53.928 30.2573 53.5163C29.8456 53.3105 29.434 52.8988 29.2281 52.4871C29.0223 53.1046 29.0223 53.5163 28.8165 54.1338C28.4048 52.2813 26.964 50.8405 25.3173 49.8113C25.1115 50.223 25.1115 50.4288 25.1115 50.8405C24.494 50.6346 24.494 50.0172 24.0823 49.6055C23.259 48.7822 22.6415 47.9588 21.6124 47.3413C21.4065 47.5472 21.4065 47.9588 21.2007 48.1647C20.9949 48.1647 20.9949 47.9588 20.789 47.9588C20.1715 47.5472 20.3774 46.7238 19.3482 46.518C18.9365 46.3122 18.7307 45.283 18.319 45.283C18.1132 45.0772 17.9074 45.6947 17.7015 46.1063C16.8782 44.6655 15.2316 43.8422 13.9966 42.813L13.9966 43.6364C12.5557 42.813 11.9383 41.1664 10.4974 40.5489C10.4974 40.7547 10.2916 41.1664 10.2916 41.3722C8.64494 39.7256 6.79245 38.6964 4.93997 37.2556C3.91081 36.0206 2.67581 35.4031 1.44082 34.3739C1.23499 34.3739 1.02916 33.9623 0.617496 34.1681C2.88165 37.4614 5.96913 40.1372 8.43911 43.2247C8.23328 43.2247 8.23328 43.4305 8.02744 43.4305C8.85077 44.048 9.26244 45.0772 10.0858 45.6947L9.6741 46.1063C10.0858 46.3122 10.4974 46.518 10.7033 46.9297C10.4974 47.1355 10.0858 47.1355 9.87993 47.3413C10.4974 48.3705 11.3208 49.1938 12.1441 50.0172C11.9383 50.0172 11.7324 50.223 11.5266 50.223C12.3499 50.6346 12.9674 51.458 13.7907 51.6638C13.3791 51.6638 12.7616 51.6638 12.7616 51.8696C12.5557 52.8988 13.5849 53.3105 14.4082 53.928L14.2024 54.3396C14.6141 54.7513 15.0257 54.9571 15.6432 54.9571C15.2316 55.1629 15.0257 55.3688 14.6141 55.5746C15.2316 56.3979 16.0549 57.0154 16.6724 57.8388L16.4666 57.8388C16.8782 58.6621 17.7015 59.0738 18.5249 59.2796C18.1132 59.4854 17.7015 59.4854 17.2899 59.6913C18.1132 60.7204 18.9365 61.5437 19.9657 62.3671C19.7599 62.5729 19.3482 62.5729 19.1424 62.7787C19.9657 63.6021 20.5832 64.2196 21.6124 64.837C22.024 65.0429 22.024 65.6604 22.4357 65.6604C22.024 65.6604 21.6124 66.072 21.2007 66.2779C21.8182 67.1012 22.8473 67.7187 23.8765 67.9245C23.8765 68.1304 23.6707 68.3362 23.6707 68.3362C24.0823 68.7478 24.6998 68.7478 25.3173 68.9537C24.9057 69.1595 24.6998 69.1595 24.2882 69.1595C24.0823 69.3653 23.4648 69.3653 24.0823 69.9828C25.1115 70.8062 26.3465 71.6295 27.5815 72.0412C27.1698 72.247 26.964 72.4528 26.7581 72.6587C26.964 72.6587 27.1698 73.0703 27.3756 73.2762C28.6106 73.8937 29.8456 74.3053 31.0806 74.9228C30.8748 75.1286 30.4631 75.1286 30.4631 75.3345C30.669 76.3636 31.9039 76.3636 32.7273 76.7753L33.3448 76.7753C33.9623 77.3928 34.7856 77.187 35.6089 77.5986C35.1973 77.8045 35.6089 78.2161 34.7856 78.2161C36.0206 79.4511 37.8731 79.4511 39.5197 79.6569C39.3139 79.8628 39.1081 80.2744 38.9022 80.4803C40.5489 80.8919 42.1955 81.0978 43.6364 81.7153L43.0189 82.3328C44.4597 82.5386 45.9005 82.7444 47.3413 83.1561C47.1355 83.3619 47.1355 83.5677 46.9297 83.7736C49.3997 83.5677 51.6638 84.8027 54.1338 85.6261C56.6038 86.6552 58.6621 88.096 60.5146 89.7427C57.6329 89.331 54.5455 89.7427 51.6638 88.9194C50.0172 88.5077 48.7822 87.6844 47.1355 87.2727C45.4889 86.8611 43.8422 86.2436 42.1955 85.6261L42.1955 85.8319C40.7547 85.8319 39.5197 85.0086 38.0789 84.8027L38.0789 85.2144C36.6381 84.8027 34.9914 84.5969 33.5506 84.1852C33.5506 84.3911 33.7564 84.5969 33.7564 84.8027C32.1098 84.8027 30.669 83.9794 29.0223 83.7736C29.0223 83.9794 29.2281 83.9794 29.2281 84.1852C28.199 83.9794 27.1698 84.1852 26.1407 83.5677C25.729 83.3619 25.1115 83.5677 24.6998 83.5677C24.6998 83.7736 24.9057 83.9794 24.9057 84.1852C23.259 84.3911 21.8182 82.9503 20.1715 83.7736C20.1715 83.9794 20.3774 84.1852 20.789 84.3911C18.9365 83.9794 17.084 83.7736 15.2316 83.5677C15.4374 83.7736 15.6432 83.9794 15.8491 84.3911C14.2024 84.1852 12.7616 83.5677 11.1149 83.5677C10.9091 83.5677 10.9091 83.7736 10.7033 83.7736C10.7033 83.9794 10.9091 83.9794 10.9091 84.1852C8.43911 83.5677 5.96913 83.3619 3.49914 82.7444C2.26415 82.5386 1.23499 82.3328 0 82.7444C3.29331 83.9794 6.79245 85.2144 10.0858 86.6552L9.87993 86.8611C11.3208 87.6844 12.9674 88.096 14.6141 88.5077C14.2024 88.7135 13.9966 88.9194 13.5849 89.1252C15.0257 89.9485 16.6724 89.9485 18.319 90.1544C17.9074 90.3602 17.7015 90.566 17.4957 90.7719C18.319 91.3894 19.554 91.3894 20.5832 91.3894C20.3774 91.3894 20.1715 91.5952 20.3774 91.801C21.8182 92.4185 23.4648 92.0069 24.9057 92.4185C24.494 92.6244 24.0823 93.036 23.6707 93.2419C23.8765 93.4477 24.2882 93.6535 24.494 93.6535C25.9348 93.8593 27.5815 93.4477 29.0223 93.6535C28.8165 94.0652 28.4048 94.271 27.9931 94.4768C29.8456 94.8885 31.9039 94.6827 33.7564 93.8593C33.5506 94.271 33.1389 94.6827 32.7273 95.0943C34.3739 95.3002 35.8148 94.271 37.4614 94.0652C37.2556 94.4768 37.0497 94.6827 36.8439 95.0943C37.4614 95.0943 38.0789 95.0943 38.6964 94.8885C39.3139 94.4768 39.9314 94.4768 40.5489 94.271C40.7547 94.271 41.1664 94.0652 41.3722 93.8593C41.1664 94.0652 41.1664 94.4768 40.9605 94.6827C42.6072 94.271 44.4597 94.0652 45.9005 93.036C45.9005 93.2419 45.6947 93.6535 45.6947 93.8593C46.3122 93.6535 47.1355 93.2419 47.753 93.036C50.223 92.4185 52.693 92.0069 55.163 91.5952C55.9863 91.3894 56.8096 90.9777 57.6329 91.1835C55.3688 91.801 53.5163 93.6535 51.0463 93.8593C49.6055 94.8885 47.753 95.506 46.1063 96.1235L46.518 96.5352C44.8714 97.1527 43.4305 97.7701 41.9897 98.7993C42.1955 98.7993 42.4014 99.0051 42.6072 99.0051C41.1664 99.211 39.9314 100.034 38.6964 100.652C38.4906 100.858 38.9022 101.063 39.1081 101.063C38.4906 101.269 38.0789 101.681 37.6672 102.093C36.6381 102.71 35.6089 103.122 34.5798 103.739L34.9914 104.151C32.5214 106.003 30.2573 107.856 28.199 110.326C27.9931 110.738 27.5815 111.355 27.1698 111.767C26.964 112.178 26.964 112.796 26.964 113.208C28.8165 111.561 30.669 109.708 32.9331 108.473C34.5798 107.65 36.4322 107.033 38.0789 106.209C38.4906 106.003 38.4906 106.621 38.4906 106.827L44.048 103.739C44.048 104.151 44.048 104.768 44.2539 104.563C45.6947 104.151 46.518 102.71 47.753 101.681C47.753 102.093 47.753 102.298 47.9588 102.71C49.3997 101.063 51.0463 99.6226 52.693 98.1818C52.8988 98.7993 52.8988 99.4168 52.8988 100.034C53.5163 100.034 53.5163 99.211 53.928 99.0051C55.9863 95.9177 57.8388 92.8302 60.9262 90.7719C61.9554 97.7701 62.3671 104.974 61.9554 111.973C61.9554 113.825 62.1612 115.472 61.9554 117.324C61.3379 121.852 61.5437 126.175 60.7204 130.703C61.3379 131.321 62.7787 131.115 62.7787 130.497C64.0137 117.942 63.8079 105.798 62.7787 93.2419C62.7787 92.4185 62.5729 91.801 62.9846 90.9777C64.0137 92.0069 65.2487 93.036 66.2779 94.271C66.6895 94.6827 67.1012 94.8885 67.5129 95.0943C68.1304 95.3002 67.7187 96.3293 68.542 96.3293C68.7479 96.1235 68.7479 95.7118 68.9537 95.506C70.1887 96.741 71.8353 97.5643 73.0703 99.0051L73.2762 98.7993C73.2762 98.3876 73.0703 97.976 72.8645 97.5643C73.6878 97.5643 74.3053 98.1818 74.9228 98.5935C75.3345 99.0051 75.7461 99.4168 76.3636 99.6226L76.9811 100.24C77.187 100.446 77.3928 100.446 77.5986 100.446L77.5986 99.4168C79.0395 100.034 79.6569 101.475 81.3036 101.681C81.3036 101.269 81.3036 101.063 81.0978 100.652C82.3328 101.063 83.3619 102.298 84.8027 102.504L84.8027 101.475C86.2436 101.887 87.6844 102.504 89.1252 103.122L89.1252 102.71C89.9485 102.916 90.566 103.122 91.3894 103.328C94.271 104.563 96.741 106.415 99.211 108.473C99.4168 108.679 99.6226 108.679 99.8285 108.679C99.4168 106.621 97.7701 105.18 96.3293 103.739C94.271 101.269 92.0069 99.211 89.1252 97.976C89.331 97.7701 89.5369 97.7701 89.7427 97.5643C88.0961 96.5352 86.2436 95.9177 84.3911 95.3002L85.0086 94.6827C83.5678 93.8593 81.7153 93.8593 80.0686 93.4477C80.2744 93.4477 80.6861 93.036 80.6861 92.8302C79.6569 91.801 77.8045 92.2127 76.3636 92.2127C76.3636 92.0069 76.5695 91.801 76.5695 91.801C75.3345 90.9777 73.8937 91.5952 72.4528 91.5952L72.247 91.1835C69.1595 90.7719 66.2779 90.566 63.3962 90.3602C67.1012 89.331 70.8062 89.5369 74.5112 90.1544L74.5112 89.7427C76.1578 89.7427 77.5986 90.1544 79.2453 90.3602C79.0395 89.9485 79.0395 89.7427 79.0395 89.331C80.6861 89.9485 82.3328 89.9485 83.9794 89.9485C83.7736 89.5369 83.3619 89.1252 83.3619 88.7135C85.0086 89.1252 86.6552 89.331 88.3019 88.9194L87.2727 87.8902C89.1252 88.096 91.1835 87.8902 93.036 87.6844C92.8302 87.4786 92.6244 87.0669 92.4185 86.8611C93.8593 86.4494 95.0943 86.4494 96.5352 86.6552L96.741 86.2436C96.3293 85.6261 96.1235 85.0086 95.506 84.5969C96.9468 84.8027 98.7993 84.8027 100.24 83.9794C101.063 83.3619 99.6226 82.9503 99.6226 82.3328C101.063 82.1269 102.298 81.3036 103.739 81.5094C103.533 81.0978 103.328 80.4803 102.916 80.0686C104.357 79.6569 106.209 79.8628 107.238 78.2161C107.033 78.0103 106.621 78.0103 106.415 77.8045C107.856 77.3928 109.297 76.7753 110.532 75.952L110.12 75.5403C113.413 74.3053 116.707 73.482 120 72.247C119.794 72.247 119.794 72.0412 119.588 72.0412"/>
	</g>
	<defs>
		<clipPath id="clip_3">
			<rect x="-908.48486" y="-678.37518" width="1436.5441" height="2091.9673" clip-rule="evenodd"/>
		</clipPath>
	</defs>
	<g clip-path="url(#clip_3)">
		<path fill="rgb(12,193,144)" stroke="none" transform="matrix(-0.796719 0.600371 -0.600371 -0.796719 174.629 306.936)" d="M119.588 72.0412C117.324 72.0412 114.854 72.247 112.59 72.0412L110.532 72.0412C109.708 72.247 108.679 72.247 107.856 72.6587L107.856 71.8353C107.238 71.6295 106.621 72.247 106.003 72.0412C104.563 71.8353 103.328 72.4528 101.887 72.4528L101.887 72.0412C101.681 71.8353 101.269 71.8353 101.063 71.8353C100.858 72.0412 100.446 72.247 100.24 72.247C99.4168 72.247 98.5935 73.0703 97.7701 73.0703C97.7701 73.0703 97.5643 72.4528 97.5643 72.247C96.1235 72.6587 95.0943 73.6878 93.6535 73.6878C92.2127 73.6878 90.9777 74.3053 89.7427 74.9228C89.331 75.1286 88.7135 74.9228 88.3019 74.9228C87.2727 75.1286 86.6552 75.952 85.8319 76.5695C84.1852 77.3928 82.7444 78.0103 81.3036 79.0394C80.8919 79.2453 80.4803 79.2453 80.0686 79.4511C78.0103 81.0978 75.952 82.3328 73.6878 83.9794C73.0703 84.3911 72.6587 84.3911 72.0412 84.8027C69.3653 86.6552 66.8954 87.8902 63.8079 88.9194L63.1904 89.5369C64.6312 87.0669 66.4837 85.2144 68.7479 83.3619C70.8062 81.9211 72.8645 80.6861 75.1286 79.8628L74.5112 79.2453C76.1578 78.422 77.8045 77.8045 79.2453 76.7753C79.0395 76.5695 78.8336 76.3636 78.6278 76.3636C80.2744 75.7461 81.7153 74.9228 83.3619 74.5111C83.1561 74.0995 82.9503 73.6878 82.5386 73.482C82.9503 73.0703 83.3619 73.0703 83.9794 72.8645C85.0086 72.4528 85.8319 71.8353 86.8611 71.2178C86.4494 71.012 86.2436 70.8062 85.8319 70.6003C87.0669 69.5712 88.7135 69.1595 89.9485 68.1304C88.9194 67.9245 89.1252 67.307 89.5369 66.8954C90.3602 66.4837 91.1835 66.072 92.0069 65.4545C92.2127 65.2487 92.4185 65.0429 92.2127 64.837C91.801 64.4254 91.5952 64.4254 90.9777 64.2196C92.2127 63.1904 94.4768 62.7787 95.0943 61.1321C94.8885 61.1321 94.8885 61.1321 94.4768 60.7204C94.271 60.7204 94.0652 60.5146 93.6535 60.5146C94.0652 60.5146 94.4768 60.3087 94.6827 60.1029C94.6827 60.1029 94.4768 59.8971 94.4768 59.6913C95.0943 59.4854 95.3002 58.8679 96.1235 58.6621C96.5352 58.4563 97.1527 57.8388 96.9468 57.4271C96.741 57.0154 95.9177 56.8096 95.3002 57.0154C95.9177 56.8096 96.5352 56.6038 96.9468 55.9863L96.9468 55.5746C97.5643 54.9571 98.3876 54.5455 98.7993 53.7221C98.5935 53.7221 98.5935 53.7221 98.1818 53.3105C97.976 53.3105 97.5643 53.3105 97.3585 53.1046C97.5643 53.1046 97.976 52.8988 98.1818 52.693L98.1818 52.2813C99.0051 51.6638 100.446 51.2521 100.652 50.0172C100.446 50.0172 100.446 50.0172 100.034 49.6055C99.8285 49.6055 99.4168 49.6055 99.0051 49.3997C99.4168 49.3997 99.8285 49.1938 100.24 48.988C100.446 48.7822 100.034 48.5763 100.034 48.3705C100.652 47.753 101.681 47.753 101.887 46.3122C101.269 46.3122 100.858 46.3122 100.24 46.1063C100.858 45.9005 101.475 45.9005 101.887 45.283L101.681 45.0772C102.504 44.4597 103.328 44.048 103.533 43.0189C103.122 43.0189 102.916 42.4014 102.298 42.6072C102.71 42.1955 103.328 42.1955 103.739 41.7839L103.533 41.3722C104.151 40.7547 104.974 40.3431 105.18 39.3139C104.768 39.3139 104.151 39.3139 103.739 39.1081C104.357 39.1081 104.768 38.6964 104.974 38.2847L104.768 37.8731C105.386 37.2556 106.209 36.6381 106.415 35.6089L105.18 35.6089C105.592 35.4031 105.798 34.9914 106.209 34.7856L106.209 34.3739C106.415 33.7564 107.238 33.3448 107.238 32.5214L107.033 32.5214C108.679 28.6106 112.178 25.9348 113.825 22.024C110.12 24.6998 106.827 27.9931 103.533 31.0806C103.328 30.8748 103.328 30.669 103.122 30.4631C102.916 30.669 102.504 30.8748 102.298 31.0806C101.475 32.1098 100.858 32.7273 99.8285 33.3448C99.6226 33.3448 99.211 33.5506 98.7993 32.9331C97.976 33.7564 97.3585 34.3739 96.741 35.4031C96.5352 35.6089 96.1235 35.6089 95.9177 35.6089C95.506 35.8148 95.3002 36.6381 95.0943 37.0497C94.8885 36.6381 94.8885 35.8148 94.271 36.0206C93.6535 36.4322 93.6535 37.2556 93.2419 37.4614C92.6244 38.0789 92.4185 39.1081 91.5952 38.6964C91.5952 38.6964 91.3894 38.4906 91.3894 38.2847C90.566 38.6964 90.1544 39.3139 89.7427 40.1372C89.7427 40.1372 89.5369 40.3431 89.331 40.3431C89.1252 40.5489 89.1252 40.9605 88.9194 41.1664C88.3019 41.3722 87.8902 40.9605 87.6844 40.5489C86.8611 41.3722 86.4494 42.6072 85.4202 43.2247C85.6261 43.8422 85.0086 44.4597 85.2144 45.0772C84.8027 44.6655 84.8027 43.8422 83.9794 43.6364C83.5678 44.6655 83.1561 45.4888 82.5386 46.3122C82.1269 46.518 82.1269 47.1355 81.7153 47.3413C81.3036 47.3413 80.8919 47.1355 80.6861 46.7238C80.0686 48.3705 78.8336 50.0172 79.0395 51.8696C78.2161 51.6638 78.6278 50.4288 77.8045 50.223C76.7753 51.2521 76.9811 52.8988 76.3636 54.1338C76.1578 54.5455 75.7461 54.3396 75.1286 54.1338C75.1286 55.1629 74.717 56.1921 74.5112 57.0154C74.3053 57.6329 73.8937 58.2504 73.2762 58.2504C73.0703 58.2504 73.0703 58.0446 72.8645 58.0446L72.8645 58.8679C72.4528 59.8971 72.4528 60.9262 72.247 61.9554C72.247 62.3671 71.8353 62.5729 71.6295 62.7787C71.6295 62.5729 71.4237 62.5729 71.4237 62.3671C71.012 64.0137 71.012 65.6604 69.9828 67.1012C69.9828 66.8954 69.777 66.8954 69.777 66.6895C69.3653 68.1304 69.9828 69.9828 68.7479 71.012C68.7479 71.012 68.542 70.8062 68.3362 70.8062C68.3362 72.4528 68.542 74.0995 67.9245 75.5403L67.5129 75.5403C67.1012 79.0394 66.072 82.1269 64.4254 85.2144C64.0137 86.2436 63.6021 87.6844 62.3671 87.8902C62.1612 83.5677 63.6021 79.0394 65.8662 75.3345C65.6604 75.3345 65.4545 75.5403 65.2487 75.5403C65.2487 75.3345 65.4545 75.1286 65.0429 75.1286C65.4545 73.2762 66.2779 71.8353 66.6895 69.9828C66.4837 70.1887 66.072 70.1887 65.8662 70.3945L65.8662 69.777C66.4837 68.1304 67.7187 66.4837 67.1012 64.6312C66.8954 64.837 66.4837 64.837 66.2779 64.837C66.4837 64.6312 66.6895 64.2196 66.6895 64.0137L66.6895 63.1904C66.4837 62.1612 66.8954 61.1321 66.4837 60.1029L66.072 59.8971C66.4837 58.6621 66.4837 57.6329 66.4837 56.3979C66.2779 56.6038 66.072 56.6038 65.8662 56.8096C65.8662 56.6038 65.6604 56.1921 65.6604 55.9863C66.072 54.7513 66.8954 53.3105 66.072 52.2813C65.8662 52.0755 65.4545 52.8988 64.8371 52.4871C65.2487 52.2813 64.8371 51.8696 64.8371 51.458C64.8371 50.6346 65.6604 49.6055 65.4545 48.7822C65.2487 48.1647 64.6312 48.988 64.0137 48.988C64.4254 47.753 65.6604 46.3122 64.6312 44.8714C64.6312 44.8714 64.0137 45.0772 63.6021 45.283C64.0137 44.048 64.6312 42.6072 64.2196 41.1664C64.0137 40.9605 63.6021 41.1664 63.1904 41.3722C63.3962 40.9605 63.8079 40.5489 63.6021 40.1372C63.3962 39.9314 63.1904 39.9314 62.9846 39.9314C63.3962 38.9022 63.6021 37.8731 63.3962 36.6381C62.9846 37.0497 62.3671 37.2556 61.9554 37.4614C62.7787 36.8439 62.1612 35.8148 62.5729 34.9914C62.7787 34.1681 62.7787 33.1389 62.7787 32.3156C62.3671 32.5214 61.7496 32.7273 61.3379 33.1389C61.5437 32.7273 61.7496 32.1098 61.7496 31.6981L61.7496 28.4048C61.1321 28.4048 60.7204 28.6106 60.3087 29.0223C60.3087 28.4048 60.9262 27.9931 61.1321 27.3756C61.1321 27.1698 60.5146 26.964 60.5146 26.964C60.7204 25.9348 60.9262 25.1115 60.5146 24.0823C60.1029 24.2882 59.8971 24.494 59.4854 24.6998C59.4854 23.259 59.8971 22.024 59.6913 20.5832C59.0738 20.5832 58.6621 20.789 58.2504 21.2007C58.4563 19.7599 59.2796 18.319 58.2504 17.084C58.2504 17.084 57.6329 17.4957 57.2213 17.7015C57.2213 16.2607 57.2213 14.8199 56.8096 13.5849C56.6038 13.7907 56.1921 13.7907 55.9863 13.9966C55.9863 12.9674 55.7804 11.9382 55.5746 10.9091L55.163 10.9091L54.5455 6.58662C54.3396 4.5283 54.1338 2.46998 54.5455 0.411664C54.5455 0.205832 54.3396 0.205832 54.3396 0C53.7221 1.23499 53.3105 2.46998 53.1046 3.91081C52.8988 6.58662 52.4871 9.26243 52.0755 11.9382L51.6638 11.9382C51.0463 13.1732 51.6638 14.6141 51.458 15.8491C51.2521 15.6432 50.8405 15.4374 50.6346 15.6432C50.0172 17.084 50.6346 18.7307 50.4288 20.3774C50.0172 20.3774 49.6055 19.9657 49.1938 19.7599C48.7822 21.2007 49.1938 22.8473 49.3997 24.2882C48.988 24.2882 48.7822 24.0823 48.3705 23.8765C48.1647 24.494 47.9588 25.1115 48.1647 25.729C48.5763 26.5523 48.3705 27.5815 48.7822 28.4048C48.3705 28.199 47.753 27.9931 47.5472 28.199C46.7238 29.434 47.9588 30.8748 47.753 32.1098C47.753 32.1098 47.3413 32.1098 46.9297 31.9039C46.9297 32.9331 46.7238 33.9623 47.5472 34.7856C47.3413 34.7856 47.3413 34.9914 47.1355 34.9914C47.5472 35.6089 47.5472 36.6381 48.1647 37.0497L47.9588 37.2556C47.3413 37.0497 46.7238 36.6381 46.3122 36.2264C45.9005 37.2556 46.7238 38.4906 46.9297 39.5197L46.518 39.5197C46.7238 40.1372 46.9297 40.7547 47.3413 41.3722C46.9297 41.1664 46.3122 41.1664 45.9005 40.9605C45.9005 41.1664 45.6947 41.578 45.6947 41.7839C46.3122 43.4305 46.7238 45.0772 47.5472 46.518L45.6947 45.9005C45.6947 46.9297 46.3122 47.753 46.7238 48.7822L46.518 48.988C46.518 49.3997 46.9297 49.6055 47.1355 50.0172L46.1063 50.0172C46.3122 51.2521 46.518 52.4871 47.1355 53.7221C46.9297 53.7221 46.518 53.5163 46.518 53.5163C45.6947 54.9571 47.1355 56.6038 47.5472 58.0446L46.3122 58.0446C46.7238 59.8971 47.9588 61.1321 48.5763 62.7787C48.3705 62.7787 47.753 62.7787 47.753 62.9846C47.9588 64.837 49.6055 65.8662 50.8405 67.1012C50.4288 67.1012 50.0172 67.1012 49.6055 66.8954C50.223 68.1304 51.0463 69.1595 52.0755 69.9828C52.0755 69.9828 51.6638 70.3945 51.6638 70.6003C52.693 72.0412 53.928 73.2762 55.163 74.5111C54.7513 74.5111 53.928 74.5111 54.1338 74.9228C54.3396 75.7461 55.3688 75.952 55.9863 76.5695C56.3979 77.187 57.4271 77.5986 56.8096 78.422C57.8388 79.4511 59.0738 80.2744 59.6913 81.7153C59.8971 82.1269 60.1029 82.7444 60.3087 83.1561C60.5146 84.5969 61.1321 86.2436 61.1321 87.6844C61.1321 88.096 60.5146 88.5077 59.8971 88.096C56.1921 85.2144 54.7513 81.0978 52.2813 77.3928C52.2813 77.5986 52.2813 78.0103 52.0755 78.2161C51.2521 77.3928 50.6346 75.5403 50.6346 74.3053C50.4288 74.5111 50.4288 74.717 50.223 74.9228C48.988 74.0995 48.7822 72.247 48.1647 70.8062C48.1647 71.012 47.9588 71.6295 47.5472 71.012C46.518 69.9828 46.3122 68.3362 45.283 67.1012C45.0772 67.5129 44.6655 67.9245 44.6655 68.3362C44.2539 66.4837 43.0189 65.2487 41.9897 63.8079L41.7839 64.0137C41.3722 64.0137 40.9605 63.8079 40.7547 63.6021C39.9314 62.7787 39.7256 61.5437 38.6964 60.9262C38.4906 60.9262 38.2847 61.1321 38.0789 61.3379C37.4614 60.1029 36.6381 58.8679 35.4031 58.0446C35.4031 58.4563 35.1973 58.6621 35.1973 59.0738C34.1681 57.8388 33.7564 56.3979 32.5214 55.3688C32.5214 55.5746 32.3156 55.9863 32.1098 55.9863C31.6981 55.7804 31.6981 55.3688 31.6981 54.9571L31.2864 54.9571C30.8748 54.5455 30.669 53.928 30.2573 53.5163C29.8456 53.3105 29.434 52.8988 29.2281 52.4871C29.0223 53.1046 29.0223 53.5163 28.8165 54.1338C28.4048 52.2813 26.964 50.8405 25.3173 49.8113C25.1115 50.223 25.1115 50.4288 25.1115 50.8405C24.494 50.6346 24.494 50.0172 24.0823 49.6055C23.259 48.7822 22.6415 47.9588 21.6124 47.3413C21.4065 47.5472 21.4065 47.9588 21.2007 48.1647C20.9949 48.1647 20.9949 47.9588 20.789 47.9588C20.1715 47.5472 20.3774 46.7238 19.3482 46.518C18.9365 46.3122 18.7307 45.283 18.319 45.283C18.1132 45.0772 17.9074 45.6947 17.7015 46.1063C16.8782 44.6655 15.2316 43.8422 13.9966 42.813L13.9966 43.6364C12.5557 42.813 11.9383 41.1664 10.4974 40.5489C10.4974 40.7547 10.2916 41.1664 10.2916 41.3722C8.64494 39.7256 6.79245 38.6964 4.93997 37.2556C3.91081 36.0206 2.67581 35.4031 1.44082 34.3739C1.23499 34.3739 1.02916 33.9623 0.617496 34.1681C2.88165 37.4614 5.96913 40.1372 8.43911 43.2247C8.23328 43.2247 8.23328 43.4305 8.02744 43.4305C8.85077 44.048 9.26244 45.0772 10.0858 45.6947L9.6741 46.1063C10.0858 46.3122 10.4974 46.518 10.7033 46.9297C10.4974 47.1355 10.0858 47.1355 9.87993 47.3413C10.4974 48.3705 11.3208 49.1938 12.1441 50.0172C11.9383 50.0172 11.7324 50.223 11.5266 50.223C12.3499 50.6346 12.9674 51.458 13.7907 51.6638C13.3791 51.6638 12.7616 51.6638 12.7616 51.8696C12.5557 52.8988 13.5849 53.3105 14.4082 53.928L14.2024 54.3396C14.6141 54.7513 15.0257 54.9571 15.6432 54.9571C15.2316 55.1629 15.0257 55.3688 14.6141 55.5746C15.2316 56.3979 16.0549 57.0154 16.6724 57.8388L16.4666 57.8388C16.8782 58.6621 17.7015 59.0738 18.5249 59.2796C18.1132 59.4854 17.7015 59.4854 17.2899 59.6913C18.1132 60.7204 18.9365 61.5437 19.9657 62.3671C19.7599 62.5729 19.3482 62.5729 19.1424 62.7787C19.9657 63.6021 20.5832 64.2196 21.6124 64.837C22.024 65.0429 22.024 65.6604 22.4357 65.6604C22.024 65.6604 21.6124 66.072 21.2007 66.2779C21.8182 67.1012 22.8473 67.7187 23.8765 67.9245C23.8765 68.1304 23.6707 68.3362 23.6707 68.3362C24.0823 68.7478 24.6998 68.7478 25.3173 68.9537C24.9057 69.1595 24.6998 69.1595 24.2882 69.1595C24.0823 69.3653 23.4648 69.3653 24.0823 69.9828C25.1115 70.8062 26.3465 71.6295 27.5815 72.0412C27.1698 72.247 26.964 72.4528 26.7581 72.6587C26.964 72.6587 27.1698 73.0703 27.3756 73.2762C28.6106 73.8937 29.8456 74.3053 31.0806 74.9228C30.8748 75.1286 30.4631 75.1286 30.4631 75.3345C30.669 76.3636 31.9039 76.3636 32.7273 76.7753L33.3448 76.7753C33.9623 77.3928 34.7856 77.187 35.6089 77.5986C35.1973 77.8045 35.6089 78.2161 34.7856 78.2161C36.0206 79.4511 37.8731 79.4511 39.5197 79.6569C39.3139 79.8628 39.1081 80.2744 38.9022 80.4803C40.5489 80.8919 42.1955 81.0978 43.6364 81.7153L43.0189 82.3328C44.4597 82.5386 45.9005 82.7444 47.3413 83.1561C47.1355 83.3619 47.1355 83.5677 46.9297 83.7736C49.3997 83.5677 51.6638 84.8027 54.1338 85.6261C56.6038 86.6552 58.6621 88.096 60.5146 89.7427C57.6329 89.331 54.5455 89.7427 51.6638 88.9194C50.0172 88.5077 48.7822 87.6844 47.1355 87.2727C45.4889 86.8611 43.8422 86.2436 42.1955 85.6261L42.1955 85.8319C40.7547 85.8319 39.5197 85.0086 38.0789 84.8027L38.0789 85.2144C36.6381 84.8027 34.9914 84.5969 33.5506 84.1852C33.5506 84.3911 33.7564 84.5969 33.7564 84.8027C32.1098 84.8027 30.669 83.9794 29.0223 83.7736C29.0223 83.9794 29.2281 83.9794 29.2281 84.1852C28.199 83.9794 27.1698 84.1852 26.1407 83.5677C25.729 83.3619 25.1115 83.5677 24.6998 83.5677C24.6998 83.7736 24.9057 83.9794 24.9057 84.1852C23.259 84.3911 21.8182 82.9503 20.1715 83.7736C20.1715 83.9794 20.3774 84.1852 20.789 84.3911C18.9365 83.9794 17.084 83.7736 15.2316 83.5677C15.4374 83.7736 15.6432 83.9794 15.8491 84.3911C14.2024 84.1852 12.7616 83.5677 11.1149 83.5677C10.9091 83.5677 10.9091 83.7736 10.7033 83.7736C10.7033 83.9794 10.9091 83.9794 10.9091 84.1852C8.43911 83.5677 5.96913 83.3619 3.49914 82.7444C2.26415 82.5386 1.23499 82.3328 0 82.7444C3.29331 83.9794 6.79245 85.2144 10.0858 86.6552L9.87993 86.8611C11.3208 87.6844 12.9674 88.096 14.6141 88.5077C14.2024 88.7135 13.9966 88.9194 13.5849 89.1252C15.0257 89.9485 16.6724 89.9485 18.319 90.1544C17.9074 90.3602 17.7015 90.566 17.4957 90.7719C18.319 91.3894 19.554 91.3894 20.5832 91.3894C20.3774 91.3894 20.1715 91.5952 20.3774 91.801C21.8182 92.4185 23.4648 92.0069 24.9057 92.4185C24.494 92.6244 24.0823 93.036 23.6707 93.2419C23.8765 93.4477 24.2882 93.6535 24.494 93.6535C25.9348 93.8593 27.5815 93.4477 29.0223 93.6535C28.8165 94.0652 28.4048 94.271 27.9931 94.4768C29.8456 94.8885 31.9039 94.6827 33.7564 93.8593C33.5506 94.271 33.1389 94.6827 32.7273 95.0943C34.3739 95.3002 35.8148 94.271 37.4614 94.0652C37.2556 94.4768 37.0497 94.6827 36.8439 95.0943C37.4614 95.0943 38.0789 95.0943 38.6964 94.8885C39.3139 94.4768 39.9314 94.4768 40.5489 94.271C40.7547 94.271 41.1664 94.0652 41.3722 93.8593C41.1664 94.0652 41.1664 94.4768 40.9605 94.6827C42.6072 94.271 44.4597 94.0652 45.9005 93.036C45.9005 93.2419 45.6947 93.6535 45.6947 93.8593C46.3122 93.6535 47.1355 93.2419 47.753 93.036C50.223 92.4185 52.693 92.0069 55.163 91.5952C55.9863 91.3894 56.8096 90.9777 57.6329 91.1835C55.3688 91.801 53.5163 93.6535 51.0463 93.8593C49.6055 94.8885 47.753 95.506 46.1063 96.1235L46.518 96.5352C44.8714 97.1527 43.4305 97.7701 41.9897 98.7993C42.1955 98.7993 42.4014 99.0051 42.6072 99.0051C41.1664 99.211 39.9314 100.034 38.6964 100.652C38.4906 100.858 38.9022 101.063 39.1081 101.063C38.4906 101.269 38.0789 101.681 37.6672 102.093C36.6381 102.71 35.6089 103.122 34.5798 103.739L34.9914 104.151C32.5214 106.003 30.2573 107.856 28.199 110.326C27.9931 110.738 27.5815 111.355 27.1698 111.767C26.964 112.178 26.964 112.796 26.964 113.208C28.8165 111.561 30.669 109.708 32.9331 108.473C34.5798 107.65 36.4322 107.033 38.0789 106.209C38.4906 106.003 38.4906 106.621 38.4906 106.827L44.048 103.739C44.048 104.151 44.048 104.768 44.2539 104.563C45.6947 104.151 46.518 102.71 47.753 101.681C47.753 102.093 47.753 102.298 47.9588 102.71C49.3997 101.063 51.0463 99.6226 52.693 98.1818C52.8988 98.7993 52.8988 99.4168 52.8988 100.034C53.5163 100.034 53.5163 99.211 53.928 99.0051C55.9863 95.9177 57.8388 92.8302 60.9262 90.7719C61.9554 97.7701 62.3671 104.974 61.9554 111.973C61.9554 113.825 62.1612 115.472 61.9554 117.324C61.3379 121.852 61.5437 126.175 60.7204 130.703C61.3379 131.321 62.7787 131.115 62.7787 130.497C64.0137 117.942 63.8079 105.798 62.7787 93.2419C62.7787 92.4185 62.5729 91.801 62.9846 90.9777C64.0137 92.0069 65.2487 93.036 66.2779 94.271C66.6895 94.6827 67.1012 94.8885 67.5129 95.0943C68.1304 95.3002 67.7187 96.3293 68.542 96.3293C68.7479 96.1235 68.7479 95.7118 68.9537 95.506C70.1887 96.741 71.8353 97.5643 73.0703 99.0051L73.2762 98.7993C73.2762 98.3876 73.0703 97.976 72.8645 97.5643C73.6878 97.5643 74.3053 98.1818 74.9228 98.5935C75.3345 99.0051 75.7461 99.4168 76.3636 99.6226L76.9811 100.24C77.187 100.446 77.3928 100.446 77.5986 100.446L77.5986 99.4168C79.0395 100.034 79.6569 101.475 81.3036 101.681C81.3036 101.269 81.3036 101.063 81.0978 100.652C82.3328 101.063 83.3619 102.298 84.8027 102.504L84.8027 101.475C86.2436 101.887 87.6844 102.504 89.1252 103.122L89.1252 102.71C89.9485 102.916 90.566 103.122 91.3894 103.328C94.271 104.563 96.741 106.415 99.211 108.473C99.4168 108.679 99.6226 108.679 99.8285 108.679C99.4168 106.621 97.7701 105.18 96.3293 103.739C94.271 101.269 92.0069 99.211 89.1252 97.976C89.331 97.7701 89.5369 97.7701 89.7427 97.5643C88.0961 96.5352 86.2436 95.9177 84.3911 95.3002L85.0086 94.6827C83.5678 93.8593 81.7153 93.8593 80.0686 93.4477C80.2744 93.4477 80.6861 93.036 80.6861 92.8302C79.6569 91.801 77.8045 92.2127 76.3636 92.2127C76.3636 92.0069 76.5695 91.801 76.5695 91.801C75.3345 90.9777 73.8937 91.5952 72.4528 91.5952L72.247 91.1835C69.1595 90.7719 66.2779 90.566 63.3962 90.3602C67.1012 89.331 70.8062 89.5369 74.5112 90.1544L74.5112 89.7427C76.1578 89.7427 77.5986 90.1544 79.2453 90.3602C79.0395 89.9485 79.0395 89.7427 79.0395 89.331C80.6861 89.9485 82.3328 89.9485 83.9794 89.9485C83.7736 89.5369 83.3619 89.1252 83.3619 88.7135C85.0086 89.1252 86.6552 89.331 88.3019 88.9194L87.2727 87.8902C89.1252 88.096 91.1835 87.8902 93.036 87.6844C92.8302 87.4786 92.6244 87.0669 92.4185 86.8611C93.8593 86.4494 95.0943 86.4494 96.5352 86.6552L96.741 86.2436C96.3293 85.6261 96.1235 85.0086 95.506 84.5969C96.9468 84.8027 98.7993 84.8027 100.24 83.9794C101.063 83.3619 99.6226 82.9503 99.6226 82.3328C101.063 82.1269 102.298 81.3036 103.739 81.5094C103.533 81.0978 103.328 80.4803 102.916 80.0686C104.357 79.6569 106.209 79.8628 107.238 78.2161C107.033 78.0103 106.621 78.0103 106.415 77.8045C107.856 77.3928 109.297 76.7753 110.532 75.952L110.12 75.5403C113.413 74.3053 116.707 73.482 120 72.247C119.794 72.247 119.794 72.0412 119.588 72.0412"/>
	</g>
</svg>
